UbuntuMono-BoldItalic.ufo
<glyph name="exclam" format="2">
  <advance width="560"/>
  <unicode hex="0021"/>
  <outline>
    <contour>
      <point x="213" y="252" type="curve"/>
      <point x="328" y="252" type="line"/>
      <point x="365" y="340"/>
      <point x="386" y="398"/>
      <point x="412" y="506" type="curve" smooth="yes"/>
      <point x="456" y="693" type="line"/>
      <point x="297" y="693" type="line"/>
      <point x="255" y="514" type="line" smooth="yes"/>
      <point x="232" y="423"/>
      <point x="222" y="355"/>
    </contour>
    <contour>
      <point x="226" y="-13" type="curve" smooth="yes"/>
      <point x="278" y="-13"/>
      <point x="326" y="31"/>
      <point x="326" y="91" type="curve" smooth="yes"/>
      <point x="326" y="146"/>
      <point x="291" y="174"/>
      <point x="244" y="174" type="curve" smooth="yes"/>
      <point x="192" y="174"/>
      <point x="143" y="132"/>
      <point x="143" y="71" type="curve" smooth="yes"/>
      <point x="143" y="16"/>
      <point x="180" y="-13"/>
    </contour>
  </outline>
</glyph>
<glyph name="quotedbl" format="2">
  <advance width="560"/>
  <unicode hex="0022"/>
  <outline>
    <contour>
      <point x="216" y="446" type="curve"/>
      <point x="295" y="446" type="line"/>
      <point x="328" y="521"/>
      <point x="368" y="622"/>
      <point x="384" y="690" type="curve" smooth="yes"/>
      <point x="401" y="760" type="line"/>
      <point x="255" y="760" type="line"/>
      <point x="244" y="708" type="line" smooth="yes"/>
      <point x="225" y="634"/>
      <point x="220" y="522"/>
    </contour>
    <contour>
      <point x="437" y="446" type="curve"/>
      <point x="515" y="446" type="line"/>
      <point x="550" y="521"/>
      <point x="590" y="622"/>
      <point x="606" y="690" type="curve" smooth="yes"/>
      <point x="622" y="760" type="line"/>
      <point x="477" y="760" type="line"/>
      <point x="465" y="708" type="line" smooth="yes"/>
      <point x="447" y="634"/>
      <point x="440" y="522"/>
    </contour>
  </outline>
</glyph>
<glyph name="numbersign" format="2">
  <advance width="560"/>
  <unicode hex="0023"/>
  <outline>
    <contour>
      <point x="-6" y="0" type="line"/>
      <point x="106" y="0" type="line"/>
      <point x="174" y="171" type="line"/>
      <point x="268" y="171" type="line"/>
      <point x="199" y="0" type="line"/>
      <point x="311" y="0" type="line"/>
      <point x="380" y="171" type="line"/>
      <point x="508" y="171" type="line"/>
      <point x="535" y="283" type="line"/>
      <point x="425" y="283" type="line"/>
      <point x="477" y="411" type="line"/>
      <point x="566" y="411" type="line"/>
      <point x="593" y="523" type="line"/>
      <point x="520" y="523" type="line"/>
      <point x="590" y="693" type="line"/>
      <point x="478" y="693" type="line"/>
      <point x="409" y="523" type="line"/>
      <point x="316" y="523" type="line"/>
      <point x="385" y="693" type="line"/>
      <point x="273" y="693" type="line"/>
      <point x="204" y="523" type="line"/>
      <point x="80" y="523" type="line"/>
      <point x="53" y="411" type="line"/>
      <point x="160" y="411" type="line"/>
      <point x="108" y="283" type="line"/>
      <point x="22" y="283" type="line"/>
      <point x="-5" y="171" type="line"/>
      <point x="62" y="171" type="line"/>
    </contour>
    <contour>
      <point x="220" y="283" type="line"/>
      <point x="272" y="411" type="line"/>
      <point x="365" y="411" type="line"/>
      <point x="313" y="283" type="line"/>
    </contour>
  </outline>
</glyph>
<glyph name="dollar" format="2">
  <advance width="560"/>
  <unicode hex="0024"/>
  <outline>
    <contour>
      <point x="133" y="-109" type="line"/>
      <point x="249" y="-109" type="line"/>
      <point x="277" y="11" type="line"/>
      <point x="404" y="24"/>
      <point x="489" y="88"/>
      <point x="489" y="211" type="curve" smooth="yes"/>
      <point x="489" y="311"/>
      <point x="417" y="360"/>
      <point x="341" y="398" type="curve" smooth="yes"/>
      <point x="275" y="430"/>
      <point x="253" y="454"/>
      <point x="253" y="491" type="curve" smooth="yes"/>
      <point x="253" y="540"/>
      <point x="305" y="564"/>
      <point x="366" y="564" type="curve" smooth="yes"/>
      <point x="413" y="564"/>
      <point x="466" y="551"/>
      <point x="503" y="525" type="curve"/>
      <point x="558" y="624" type="line"/>
      <point x="531" y="640"/>
      <point x="487" y="659"/>
      <point x="434" y="670" type="curve"/>
      <point x="461" y="776" type="line"/>
      <point x="346" y="776" type="line"/>
      <point x="319" y="672" type="line"/>
      <point x="176" y="656"/>
      <point x="113" y="572"/>
      <point x="113" y="484" type="curve" smooth="yes"/>
      <point x="113" y="402"/>
      <point x="148" y="347"/>
      <point x="260" y="292" type="curve" smooth="yes"/>
      <point x="309" y="268"/>
      <point x="350" y="248"/>
      <point x="350" y="200" type="curve" smooth="yes"/>
      <point x="350" y="132"/>
      <point x="283" y="121"/>
      <point x="222" y="121" type="curve" smooth="yes"/>
      <point x="158" y="121"/>
      <point x="99" y="147"/>
      <point x="67" y="168" type="curve"/>
      <point x="11" y="65" type="line"/>
      <point x="38" y="48"/>
      <point x="92" y="22"/>
      <point x="162" y="12" type="curve"/>
    </contour>
  </outline>
</glyph>
<glyph name="percent" format="2">
  <advance width="560"/>
  <unicode hex="0025"/>
  <outline>
    <contour>
      <point x="4" y="0" type="line"/>
      <point x="105" y="0" type="line"/>
      <point x="684" y="693" type="line"/>
      <point x="585" y="693" type="line"/>
    </contour>
    <contour>
      <point x="419" y="-16" type="curve" smooth="yes"/>
      <point x="542" y="-16"/>
      <point x="586" y="128"/>
      <point x="586" y="220" type="curve" smooth="yes"/>
      <point x="586" y="287"/>
      <point x="547" y="332"/>
      <point x="489" y="332" type="curve" smooth="yes"/>
      <point x="366" y="332"/>
      <point x="323" y="188"/>
      <point x="323" y="96" type="curve" smooth="yes"/>
      <point x="323" y="29"/>
      <point x="362" y="-16"/>
    </contour>
    <contour>
      <point x="435" y="71" type="curve" smooth="yes"/>
      <point x="422" y="71"/>
      <point x="408" y="78"/>
      <point x="408" y="111" type="curve" smooth="yes"/>
      <point x="408" y="147"/>
      <point x="429" y="246"/>
      <point x="473" y="246" type="curve" smooth="yes"/>
      <point x="486" y="246"/>
      <point x="501" y="239"/>
      <point x="501" y="205" type="curve" smooth="yes"/>
      <point x="501" y="169"/>
      <point x="479" y="71"/>
    </contour>
    <contour>
      <point x="200" y="361" type="curve" smooth="yes"/>
      <point x="323" y="361"/>
      <point x="367" y="505"/>
      <point x="367" y="597" type="curve" smooth="yes"/>
      <point x="367" y="664"/>
      <point x="327" y="709"/>
      <point x="270" y="709" type="curve" smooth="yes"/>
      <point x="147" y="709"/>
      <point x="103" y="566"/>
      <point x="103" y="473" type="curve" smooth="yes"/>
      <point x="103" y="407"/>
      <point x="143" y="361"/>
    </contour>
    <contour>
      <point x="216" y="447" type="curve" smooth="yes"/>
      <point x="203" y="447"/>
      <point x="189" y="455"/>
      <point x="189" y="488" type="curve" smooth="yes"/>
      <point x="189" y="524"/>
      <point x="211" y="623"/>
      <point x="254" y="623" type="curve" smooth="yes"/>
      <point x="267" y="623"/>
      <point x="281" y="615"/>
      <point x="281" y="582" type="curve" smooth="yes"/>
      <point x="281" y="547"/>
      <point x="260" y="447"/>
    </contour>
  </outline>
</glyph>
<glyph name="ampersand" format="2">
  <advance width="560"/>
  <unicode hex="0026"/>
  <outline>
    <contour>
      <point x="169" y="-10" type="curve" smooth="yes"/>
      <point x="236" y="-10"/>
      <point x="300" y="10"/>
      <point x="357" y="64" type="curve"/>
      <point x="365" y="43"/>
      <point x="369" y="29"/>
      <point x="376" y="0" type="curve"/>
      <point x="502" y="0" type="line"/>
      <point x="487" y="63"/>
      <point x="465" y="112"/>
      <point x="446" y="152" type="curve"/>
      <point x="480" y="200"/>
      <point x="524" y="264"/>
      <point x="546" y="360" type="curve"/>
      <point x="443" y="372" type="line"/>
      <point x="428" y="325"/>
      <point x="412" y="278"/>
      <point x="388" y="242" type="curve"/>
      <point x="365" y="277"/>
      <point x="341" y="312"/>
      <point x="318" y="347" type="curve"/>
      <point x="323" y="351" type="line" smooth="yes"/>
      <point x="463" y="435"/>
      <point x="497" y="510"/>
      <point x="497" y="576" type="curve" smooth="yes"/>
      <point x="497" y="659"/>
      <point x="449" y="709"/>
      <point x="352" y="709" type="curve" smooth="yes"/>
      <point x="229" y="709"/>
      <point x="137" y="622"/>
      <point x="137" y="488" type="curve" smooth="yes"/>
      <point x="137" y="450"/>
      <point x="150" y="411"/>
      <point x="169" y="375" type="curve"/>
      <point x="156" y="366" type="line" smooth="yes"/>
      <point x="60" y="297"/>
      <point x="8" y="243"/>
      <point x="8" y="144" type="curve" smooth="yes"/>
      <point x="8" y="59"/>
      <point x="59" y="-10"/>
    </contour>
    <contour>
      <point x="201" y="93" type="curve" smooth="yes"/>
      <point x="156" y="93"/>
      <point x="130" y="125"/>
      <point x="130" y="165" type="curve" smooth="yes"/>
      <point x="130" y="199"/>
      <point x="139" y="250"/>
      <point x="202" y="290" type="curve"/>
      <point x="216" y="298" type="line"/>
      <point x="251" y="244"/>
      <point x="292" y="185"/>
      <point x="313" y="148" type="curve"/>
      <point x="285" y="116"/>
      <point x="240" y="93"/>
    </contour>
    <contour>
      <point x="268" y="421" type="line"/>
      <point x="257" y="445"/>
      <point x="250" y="467"/>
      <point x="250" y="501" type="curve" smooth="yes"/>
      <point x="250" y="566"/>
      <point x="290" y="607"/>
      <point x="339" y="607" type="curve" smooth="yes"/>
      <point x="374" y="607"/>
      <point x="386" y="586"/>
      <point x="386" y="560" type="curve" smooth="yes"/>
      <point x="386" y="521"/>
      <point x="360" y="467"/>
      <point x="277" y="426" type="curve" smooth="yes"/>
    </contour>
  </outline>
</glyph>
<glyph name="quotesingle" format="2">
  <advance width="560"/>
  <unicode hex="0027"/>
  <outline>
    <contour>
      <point x="314" y="426" type="curve"/>
      <point x="394" y="426" type="line"/>
      <point x="428" y="503"/>
      <point x="468" y="599"/>
      <point x="486" y="673" type="curve" smooth="yes"/>
      <point x="507" y="760" type="line"/>
      <point x="360" y="760" type="line"/>
      <point x="343" y="691" type="line" smooth="yes"/>
      <point x="325" y="616"/>
      <point x="318" y="503"/>
    </contour>
  </outline>
</glyph>
<glyph name="parenleft" format="2">
  <advance width="560"/>
  <unicode hex="0028"/>
  <outline>
    <contour>
      <point x="317" y="-190" type="curve"/>
      <point x="400" y="-109" type="line"/>
      <point x="312" y="-16"/>
      <point x="282" y="73"/>
      <point x="282" y="186" type="curve" smooth="yes"/>
      <point x="282" y="363"/>
      <point x="401" y="571"/>
      <point x="600" y="698" type="curve"/>
      <point x="550" y="795" type="line"/>
      <point x="325" y="672"/>
      <point x="152" y="449"/>
      <point x="152" y="176" type="curve" smooth="yes"/>
      <point x="152" y="30"/>
      <point x="222" y="-109"/>
    </contour>
  </outline>
</glyph>
<glyph name="parenright" format="2">
  <advance width="560"/>
  <unicode hex="0029"/>
  <outline>
    <contour>
      <point x="99" y="-190" type="line"/>
      <point x="324" y="-67"/>
      <point x="496" y="156"/>
      <point x="496" y="429" type="curve" smooth="yes"/>
      <point x="496" y="575"/>
      <point x="427" y="713"/>
      <point x="332" y="795" type="curve"/>
      <point x="249" y="713" type="line"/>
      <point x="336" y="620"/>
      <point x="366" y="532"/>
      <point x="366" y="419" type="curve" smooth="yes"/>
      <point x="366" y="242"/>
      <point x="248" y="34"/>
      <point x="48" y="-93" type="curve"/>
    </contour>
  </outline>
</glyph>
<glyph name="asterisk" format="2">
  <advance width="560"/>
  <unicode hex="002A"/>
  <outline>
    <contour>
      <point x="446" y="255" type="line"/>
      <point x="551" y="332" type="line"/>
      <point x="530" y="360" type="line" smooth="yes"/>
      <point x="510" y="389"/>
      <point x="452" y="435"/>
      <point x="420" y="455" type="curve"/>
      <point x="458" y="454"/>
      <point x="531" y="456"/>
      <point x="566" y="467" type="curve" smooth="yes"/>
      <point x="599" y="477" type="line"/>
      <point x="559" y="601" type="line"/>
      <point x="526" y="590" type="line" smooth="yes"/>
      <point x="491" y="579"/>
      <point x="431" y="539"/>
      <point x="400" y="516" type="curve"/>
      <point x="413" y="552"/>
      <point x="433" y="622"/>
      <point x="433" y="659" type="curve" smooth="yes"/>
      <point x="433" y="693" type="line"/>
      <point x="304" y="693" type="line"/>
      <point x="304" y="659" type="line" smooth="yes"/>
      <point x="304" y="622"/>
      <point x="323" y="552"/>
      <point x="336" y="516" type="curve"/>
      <point x="306" y="540"/>
      <point x="246" y="581"/>
      <point x="212" y="594" type="curve" smooth="yes"/>
      <point x="179" y="604" type="line"/>
      <point x="138" y="482" type="line"/>
      <point x="171" y="470" type="line" smooth="yes"/>
      <point x="205" y="458"/>
      <point x="278" y="455"/>
      <point x="316" y="456" type="curve"/>
      <point x="286" y="435"/>
      <point x="228" y="390"/>
      <point x="207" y="360" type="curve" smooth="yes"/>
      <point x="186" y="332" type="line"/>
      <point x="291" y="256" type="line"/>
      <point x="312" y="284" type="line" smooth="yes"/>
      <point x="333" y="314"/>
      <point x="358" y="382"/>
      <point x="368" y="419" type="curve"/>
      <point x="379" y="381"/>
      <point x="404" y="312"/>
      <point x="426" y="283" type="curve" smooth="yes"/>
    </contour>
  </outline>
</glyph>
<glyph name="plus" format="2">
  <advance width="560"/>
  <unicode hex="002B"/>
  <outline>
    <contour>
      <point x="205" y="43" type="line"/>
      <point x="324" y="43" type="line"/>
      <point x="370" y="237" type="line"/>
      <point x="545" y="237" type="line"/>
      <point x="573" y="351" type="line"/>
      <point x="398" y="351" type="line"/>
      <point x="444" y="545" type="line"/>
      <point x="325" y="545" type="line"/>
      <point x="279" y="351" type="line"/>
      <point x="103" y="351" type="line"/>
      <point x="75" y="237" type="line"/>
      <point x="251" y="237" type="line"/>
    </contour>
  </outline>
</glyph>
<glyph name="comma" format="2">
  <advance width="560"/>
  <unicode hex="002C"/>
  <outline>
    <contour>
      <point x="116" y="-169" type="line"/>
      <point x="297" y="-157"/>
      <point x="380" y="-31"/>
      <point x="380" y="99" type="curve" smooth="yes"/>
      <point x="380" y="147"/>
      <point x="351" y="187"/>
      <point x="292" y="187" type="curve" smooth="yes"/>
      <point x="231" y="187"/>
      <point x="183" y="139"/>
      <point x="183" y="75" type="curve" smooth="yes"/>
      <point x="183" y="28"/>
      <point x="211" y="-3"/>
      <point x="255" y="-9" type="curve"/>
      <point x="240" y="-53"/>
      <point x="169" y="-77"/>
      <point x="108" y="-81" type="curve"/>
    </contour>
  </outline>
</glyph>
<glyph name="hyphen" format="2">
  <advance width="560"/>
  <unicode hex="002D"/>
  <outline>
    <contour>
      <point x="156" y="220" type="line"/>
      <point x="461" y="220" type="line"/>
      <point x="495" y="355" type="line"/>
      <point x="188" y="355" type="line"/>
    </contour>
  </outline>
</glyph>
<glyph name="period" format="2">
  <advance width="560"/>
  <unicode hex="002E"/>
  <outline>
    <contour>
      <point x="272" y="-13" type="curve" smooth="yes"/>
      <point x="327" y="-13"/>
      <point x="380" y="32"/>
      <point x="380" y="99" type="curve" smooth="yes"/>
      <point x="380" y="157"/>
      <point x="342" y="187"/>
      <point x="290" y="187" type="curve" smooth="yes"/>
      <point x="235" y="187"/>
      <point x="183" y="141"/>
      <point x="183" y="76" type="curve" smooth="yes"/>
      <point x="183" y="17"/>
      <point x="221" y="-13"/>
    </contour>
  </outline>
</glyph>
<glyph name="slash" format="2">
  <advance width="560"/>
  <unicode hex="002F"/>
  <outline>
    <contour>
      <point x="-12" y="-185" type="line"/>
      <point x="132" y="-185" type="line"/>
      <point x="650" y="783" type="line"/>
      <point x="505" y="783" type="line"/>
    </contour>
  </outline>
</glyph>
<glyph name="zero" format="2">
  <advance width="560"/>
  <unicode hex="0030"/>
  <outline>
    <contour>
      <point x="229" y="-15" type="curve" smooth="yes"/>
      <point x="482" y="-15"/>
      <point x="558" y="318"/>
      <point x="558" y="494" type="curve" smooth="yes"/>
      <point x="558" y="624"/>
      <point x="487" y="709"/>
      <point x="368" y="709" type="curve" smooth="yes"/>
      <point x="114" y="709"/>
      <point x="38" y="376"/>
      <point x="38" y="200" type="curve" smooth="yes"/>
      <point x="38" y="71"/>
      <point x="110" y="-15"/>
    </contour>
    <contour>
      <point x="241" y="101" type="curve" smooth="yes"/>
      <point x="185" y="101"/>
      <point x="165" y="148"/>
      <point x="165" y="208" type="curve" smooth="yes"/>
      <point x="165" y="352"/>
      <point x="228" y="594"/>
      <point x="356" y="594" type="curve" smooth="yes"/>
      <point x="412" y="594"/>
      <point x="431" y="547"/>
      <point x="431" y="486" type="curve" smooth="yes"/>
      <point x="431" y="342"/>
      <point x="368" y="101"/>
    </contour>
    <contour>
      <point x="290" y="284" type="curve" smooth="yes"/>
      <point x="319" y="284"/>
      <point x="365" y="316"/>
      <point x="365" y="382" type="curve" smooth="yes"/>
      <point x="365" y="410"/>
      <point x="350" y="433"/>
      <point x="313" y="433" type="curve" smooth="yes"/>
      <point x="283" y="433"/>
      <point x="237" y="401"/>
      <point x="237" y="335" type="curve" smooth="yes"/>
      <point x="237" y="307"/>
      <point x="253" y="284"/>
    </contour>
  </outline>
</glyph>
<glyph name="one" format="2">
  <advance width="560"/>
  <unicode hex="0031"/>
  <outline>
    <contour>
      <point x="72" y="0" type="line"/>
      <point x="493" y="0" type="line"/>
      <point x="520" y="114" type="line"/>
      <point x="382" y="114" type="line"/>
      <point x="521" y="693" type="line"/>
      <point x="412" y="693" type="line"/>
      <point x="343" y="635"/>
      <point x="233" y="577"/>
      <point x="153" y="549" type="curve"/>
      <point x="186" y="437" type="line"/>
      <point x="225" y="450"/>
      <point x="290" y="480"/>
      <point x="340" y="515" type="curve"/>
      <point x="244" y="114" type="line"/>
      <point x="99" y="114" type="line"/>
    </contour>
  </outline>
</glyph>
<glyph name="two" format="2">
  <advance width="560"/>
  <unicode hex="0032"/>
  <outline>
    <contour>
      <point x="46" y="0" type="curve"/>
      <point x="495" y="0" type="line"/>
      <point x="522" y="114" type="line"/>
      <point x="213" y="114" type="line"/>
      <point x="237" y="157"/>
      <point x="286" y="198"/>
      <point x="372" y="258" type="curve" smooth="yes"/>
      <point x="486" y="337"/>
      <point x="595" y="414"/>
      <point x="595" y="547" type="curve" smooth="yes"/>
      <point x="595" y="635"/>
      <point x="528" y="709"/>
      <point x="409" y="709" type="curve" smooth="yes"/>
      <point x="328" y="709"/>
      <point x="242" y="682"/>
      <point x="165" y="622" type="curve"/>
      <point x="209" y="522" type="line"/>
      <point x="267" y="564"/>
      <point x="327" y="589"/>
      <point x="381" y="589" type="curve" smooth="yes"/>
      <point x="435" y="589"/>
      <point x="457" y="562"/>
      <point x="457" y="522" type="curve" smooth="yes"/>
      <point x="457" y="463"/>
      <point x="407" y="420"/>
      <point x="278" y="328" type="curve" smooth="yes"/>
      <point x="153" y="239"/>
      <point x="65" y="159"/>
    </contour>
  </outline>
</glyph>
<glyph name="three" format="2">
  <advance width="560"/>
  <unicode hex="0033"/>
  <outline>
    <contour>
      <point x="234" y="-15" type="curve" smooth="yes"/>
      <point x="456" y="-15"/>
      <point x="535" y="105"/>
      <point x="535" y="215" type="curve" smooth="yes"/>
      <point x="535" y="278"/>
      <point x="503" y="334"/>
      <point x="435" y="365" type="curve"/>
      <point x="538" y="405"/>
      <point x="584" y="474"/>
      <point x="584" y="556" type="curve" smooth="yes"/>
      <point x="584" y="660"/>
      <point x="493" y="709"/>
      <point x="383" y="709" type="curve" smooth="yes"/>
      <point x="324" y="709"/>
      <point x="250" y="688"/>
      <point x="187" y="655" type="curve"/>
      <point x="222" y="554" type="line"/>
      <point x="270" y="581"/>
      <point x="319" y="596"/>
      <point x="358" y="596" type="curve" smooth="yes"/>
      <point x="411" y="596"/>
      <point x="448" y="571"/>
      <point x="448" y="526" type="curve" smooth="yes"/>
      <point x="448" y="444"/>
      <point x="363" y="418"/>
      <point x="304" y="418" type="curve" smooth="yes"/>
      <point x="246" y="418" type="line"/>
      <point x="218" y="309" type="line"/>
      <point x="264" y="309" type="line" smooth="yes"/>
      <point x="347" y="309"/>
      <point x="398" y="281"/>
      <point x="398" y="221" type="curve" smooth="yes"/>
      <point x="398" y="129"/>
      <point x="325" y="97"/>
      <point x="242" y="97" type="curve" smooth="yes"/>
      <point x="183" y="97"/>
      <point x="122" y="115"/>
      <point x="81" y="141" type="curve"/>
      <point x="34" y="34" type="line"/>
      <point x="94" y="-1"/>
      <point x="161" y="-15"/>
    </contour>
  </outline>
</glyph>
<glyph name="four" format="2">
  <advance width="500"/>
  <unicode hex="0034"/>
  <outline>
    <contour>
      <point x="279" y="0" type="line"/>
      <point x="395" y="0" type="line"/>
      <point x="430" y="146" type="line"/>
      <point x="496" y="146" type="line"/>
      <point x="520" y="244" type="line"/>
      <point x="454" y="244" type="line"/>
      <point x="544" y="619" type="line"/>
      <point x="424" y="619" type="line"/>
      <point x="296" y="511"/>
      <point x="138" y="341"/>
      <point x="62" y="238" type="curve"/>
      <point x="40" y="146" type="line"/>
      <point x="313" y="146" type="line"/>
    </contour>
    <contour>
      <point x="173" y="244" type="line"/>
      <point x="236" y="325"/>
      <point x="322" y="415"/>
      <point x="396" y="484" type="curve"/>
      <point x="338" y="244" type="line"/>
    </contour>
  </outline>
</glyph>
<glyph name="five" format="2">
  <advance width="560"/>
  <unicode hex="0035"/>
  <outline>
    <contour>
      <point x="242" y="-15" type="curve" smooth="yes"/>
      <point x="435" y="-15"/>
      <point x="534" y="83"/>
      <point x="534" y="232" type="curve" smooth="yes"/>
      <point x="534" y="335"/>
      <point x="459" y="420"/>
      <point x="296" y="433" type="curve"/>
      <point x="309" y="467"/>
      <point x="327" y="524"/>
      <point x="342" y="579" type="curve"/>
      <point x="595" y="579" type="line"/>
      <point x="622" y="693" type="line"/>
      <point x="258" y="693" type="line"/>
      <point x="227" y="580"/>
      <point x="188" y="458"/>
      <point x="144" y="333" type="curve"/>
      <point x="325" y="330"/>
      <point x="398" y="288"/>
      <point x="398" y="221" type="curve" smooth="yes"/>
      <point x="398" y="140"/>
      <point x="343" y="100"/>
      <point x="239" y="100" type="curve" smooth="yes"/>
      <point x="189" y="100"/>
      <point x="134" y="114"/>
      <point x="87" y="143" type="curve"/>
      <point x="36" y="32" type="line"/>
      <point x="99" y="0"/>
      <point x="170" y="-15"/>
    </contour>
  </outline>
</glyph>
<glyph name="six" format="2">
  <advance width="560"/>
  <unicode hex="0036"/>
  <outline>
    <contour>
      <point x="302" y="-15" type="curve" smooth="yes"/>
      <point x="444" y="-15"/>
      <point x="564" y="81"/>
      <point x="564" y="253" type="curve" smooth="yes"/>
      <point x="564" y="375"/>
      <point x="485" y="437"/>
      <point x="388" y="437" type="curve" smooth="yes"/>
      <point x="351" y="437"/>
      <point x="295" y="427"/>
      <point x="246" y="399" type="curve"/>
      <point x="309" y="556"/>
      <point x="451" y="586"/>
      <point x="607" y="587" type="curve"/>
      <point x="623" y="697" type="line"/>
      <point x="615" y="697"/>
      <point x="598" y="698"/>
      <point x="590" y="698" type="curve" smooth="yes"/>
      <point x="240" y="698"/>
      <point x="84" y="466"/>
      <point x="84" y="228" type="curve" smooth="yes"/>
      <point x="84" y="71"/>
      <point x="179" y="-15"/>
    </contour>
    <contour>
      <point x="315" y="99" type="curve" smooth="yes"/>
      <point x="248" y="99"/>
      <point x="215" y="157"/>
      <point x="215" y="226" type="curve" smooth="yes"/>
      <point x="215" y="256"/>
      <point x="220" y="283"/>
      <point x="227" y="310" type="curve"/>
      <point x="261" y="324"/>
      <point x="300" y="334"/>
      <point x="336" y="334" type="curve" smooth="yes"/>
      <point x="389" y="334"/>
      <point x="433" y="314"/>
      <point x="433" y="243" type="curve" smooth="yes"/>
      <point x="433" y="153"/>
      <point x="385" y="99"/>
    </contour>
  </outline>
</glyph>
<glyph name="seven" format="2">
  <advance width="560"/>
  <unicode hex="0037"/>
  <outline>
    <contour>
      <point x="132" y="0" type="curve"/>
      <point x="273" y="0" type="line"/>
      <point x="344" y="253"/>
      <point x="538" y="505"/>
      <point x="641" y="592" type="curve"/>
      <point x="665" y="693" type="line"/>
      <point x="183" y="693" type="line"/>
      <point x="155" y="576" type="line"/>
      <point x="469" y="576" type="line"/>
      <point x="342" y="442"/>
      <point x="187" y="199"/>
    </contour>
  </outline>
</glyph>
<glyph name="eight" format="2">
  <advance width="560"/>
  <unicode hex="0038"/>
  <outline>
    <contour>
      <point x="237" y="-15" type="curve" smooth="yes"/>
      <point x="409" y="-15"/>
      <point x="503" y="83"/>
      <point x="503" y="202" type="curve" smooth="yes"/>
      <point x="503" y="276"/>
      <point x="463" y="317"/>
      <point x="414" y="352" type="curve"/>
      <point x="542" y="416"/>
      <point x="563" y="489"/>
      <point x="563" y="548" type="curve" smooth="yes"/>
      <point x="563" y="645"/>
      <point x="479" y="709"/>
      <point x="369" y="709" type="curve" smooth="yes"/>
      <point x="202" y="709"/>
      <point x="125" y="601"/>
      <point x="125" y="496" type="curve" smooth="yes"/>
      <point x="125" y="441"/>
      <point x="152" y="403"/>
      <point x="186" y="367" type="curve"/>
      <point x="73" y="297"/>
      <point x="27" y="241"/>
      <point x="27" y="155" type="curve" smooth="yes"/>
      <point x="27" y="29"/>
      <point x="141" y="-15"/>
    </contour>
    <contour>
      <point x="253" y="94" type="curve" smooth="yes"/>
      <point x="200" y="94"/>
      <point x="158" y="120"/>
      <point x="158" y="172" type="curve" smooth="yes"/>
      <point x="158" y="220"/>
      <point x="178" y="269"/>
      <point x="269" y="314" type="curve"/>
      <point x="325" y="283"/>
      <point x="370" y="255"/>
      <point x="370" y="198" type="curve" smooth="yes"/>
      <point x="370" y="134"/>
      <point x="314" y="94"/>
    </contour>
    <contour>
      <point x="328" y="403" type="curve"/>
      <point x="286" y="428"/>
      <point x="251" y="458"/>
      <point x="251" y="505" type="curve" smooth="yes"/>
      <point x="251" y="559"/>
      <point x="290" y="599"/>
      <point x="351" y="599" type="curve" smooth="yes"/>
      <point x="404" y="599"/>
      <point x="434" y="575"/>
      <point x="434" y="526" type="curve" smooth="yes"/>
      <point x="434" y="486"/>
      <point x="413" y="444"/>
    </contour>
  </outline>
</glyph>
<glyph name="nine" format="2">
  <advance width="560"/>
  <unicode hex="0039"/>
  <outline>
    <contour>
      <point x="95" y="-4" type="curve" smooth="yes"/>
      <point x="444" y="-4"/>
      <point x="599" y="228"/>
      <point x="599" y="466" type="curve" smooth="yes"/>
      <point x="599" y="624"/>
      <point x="503" y="709"/>
      <point x="380" y="709" type="curve" smooth="yes"/>
      <point x="239" y="709"/>
      <point x="118" y="617"/>
      <point x="118" y="444" type="curve" smooth="yes"/>
      <point x="118" y="323"/>
      <point x="197" y="262"/>
      <point x="295" y="262" type="curve" smooth="yes"/>
      <point x="334" y="262"/>
      <point x="390" y="272"/>
      <point x="438" y="300" type="curve"/>
      <point x="374" y="140"/>
      <point x="234" y="108"/>
      <point x="78" y="106" type="curve"/>
      <point x="62" y="-2" type="line"/>
      <point x="71" y="-3"/>
      <point x="87" y="-4"/>
    </contour>
    <contour>
      <point x="347" y="364" type="curve" smooth="yes"/>
      <point x="293" y="364"/>
      <point x="249" y="385"/>
      <point x="249" y="454" type="curve" smooth="yes"/>
      <point x="249" y="547"/>
      <point x="298" y="594"/>
      <point x="368" y="594" type="curve" smooth="yes"/>
      <point x="435" y="594"/>
      <point x="467" y="538"/>
      <point x="467" y="469" type="curve" smooth="yes"/>
      <point x="467" y="441"/>
      <point x="463" y="416"/>
      <point x="456" y="388" type="curve"/>
      <point x="422" y="374"/>
      <point x="382" y="364"/>
    </contour>
  </outline>
</glyph>
<glyph name="less" format="2">
  <advance width="560"/>
  <unicode hex="003C"/>
  <outline>
    <contour>
      <point x="479" y="49" type="line"/>
      <point x="536" y="156" type="line"/>
      <point x="251" y="287" type="line"/>
      <point x="598" y="408" type="line"/>
      <point x="588" y="531" type="line"/>
      <point x="114" y="349" type="line"/>
      <point x="87" y="239" type="line"/>
    </contour>
  </outline>
</glyph>
<glyph name="equal" format="2">
  <advance width="560"/>
  <unicode hex="003D"/>
  <outline>
    <contour>
      <point x="102" y="346" type="line"/>
      <point x="572" y="346" type="line"/>
      <point x="599" y="460" type="line"/>
      <point x="130" y="460" type="line"/>
    </contour>
    <contour>
      <point x="50" y="128" type="line"/>
      <point x="521" y="128" type="line"/>
      <point x="548" y="242" type="line"/>
      <point x="77" y="242" type="line"/>
    </contour>
  </outline>
</glyph>
<glyph name="greater" format="2">
  <advance width="560"/>
  <unicode hex="003E"/>
  <outline>
    <contour>
      <point x="69" y="49" type="line"/>
      <point x="543" y="231" type="line"/>
      <point x="570" y="342" type="line"/>
      <point x="178" y="531" type="line"/>
      <point x="121" y="424" type="line"/>
      <point x="407" y="293" type="line"/>
      <point x="59" y="172" type="line"/>
    </contour>
  </outline>
</glyph>
<glyph name="question" format="2">
  <advance width="560"/>
  <unicode hex="003F"/>
  <outline>
    <contour>
      <point x="225" y="252" type="curve"/>
      <point x="353" y="252" type="line"/>
      <point x="372" y="309"/>
      <point x="396" y="327"/>
      <point x="465" y="376" type="curve" smooth="yes"/>
      <point x="539" y="428"/>
      <point x="595" y="476"/>
      <point x="595" y="566" type="curve" smooth="yes"/>
      <point x="595" y="645"/>
      <point x="544" y="709"/>
      <point x="413" y="709" type="curve" smooth="yes"/>
      <point x="342" y="709"/>
      <point x="276" y="690"/>
      <point x="215" y="657" type="curve"/>
      <point x="232" y="551" type="line"/>
      <point x="290" y="577"/>
      <point x="326" y="594"/>
      <point x="375" y="594" type="curve" smooth="yes"/>
      <point x="422" y="594"/>
      <point x="446" y="575"/>
      <point x="446" y="542" type="curve" smooth="yes"/>
      <point x="446" y="496"/>
      <point x="422" y="479"/>
      <point x="351" y="427" type="curve" smooth="yes"/>
      <point x="267" y="367"/>
      <point x="236" y="320"/>
    </contour>
    <contour>
      <point x="255" y="-13" type="curve" smooth="yes"/>
      <point x="308" y="-13"/>
      <point x="356" y="31"/>
      <point x="356" y="91" type="curve" smooth="yes"/>
      <point x="356" y="146"/>
      <point x="320" y="174"/>
      <point x="273" y="174" type="curve" smooth="yes"/>
      <point x="222" y="174"/>
      <point x="172" y="132"/>
      <point x="172" y="71" type="curve" smooth="yes"/>
      <point x="172" y="16"/>
      <point x="209" y="-13"/>
    </contour>
  </outline>
</glyph>
<glyph name="at" format="2">
  <advance width="560"/>
  <unicode hex="0040"/>
  <outline>
    <contour>
      <point x="335" y="-151" type="curve" smooth="yes"/>
      <point x="379" y="-151"/>
      <point x="419" y="-144"/>
      <point x="457" y="-136" type="curve"/>
      <point x="465" y="-39" type="line"/>
      <point x="452" y="-43"/>
      <point x="414" y="-54"/>
      <point x="351" y="-54" type="curve" smooth="yes"/>
      <point x="235" y="-54"/>
      <point x="166" y="12"/>
      <point x="166" y="178" type="curve" smooth="yes"/>
      <point x="166" y="448"/>
      <point x="286" y="613"/>
      <point x="427" y="613" type="curve" smooth="yes"/>
      <point x="482" y="613"/>
      <point x="516" y="582"/>
      <point x="516" y="536" type="curve" smooth="yes"/>
      <point x="516" y="525"/>
      <point x="513" y="503"/>
      <point x="508" y="487" type="curve"/>
      <point x="498" y="491"/>
      <point x="477" y="496"/>
      <point x="451" y="496" type="curve" smooth="yes"/>
      <point x="307" y="496"/>
      <point x="234" y="354"/>
      <point x="234" y="216" type="curve" smooth="yes"/>
      <point x="234" y="88"/>
      <point x="299" y="39"/>
      <point x="395" y="39" type="curve" smooth="yes"/>
      <point x="433" y="39"/>
      <point x="482" y="48"/>
      <point x="523" y="62" type="curve"/>
      <point x="614" y="439" type="line" smooth="yes"/>
      <point x="622" y="472"/>
      <point x="627" y="510"/>
      <point x="627" y="538" type="curve" smooth="yes"/>
      <point x="627" y="647"/>
      <point x="566" y="709"/>
      <point x="432" y="709" type="curve" smooth="yes"/>
      <point x="215" y="709"/>
      <point x="62" y="478"/>
      <point x="62" y="165" type="curve" smooth="yes"/>
      <point x="62" y="-49"/>
      <point x="160" y="-151"/>
    </contour>
    <contour>
      <point x="407" y="146" type="curve" smooth="yes"/>
      <point x="368" y="146"/>
      <point x="346" y="170"/>
      <point x="346" y="217" type="curve" smooth="yes"/>
      <point x="346" y="300"/>
      <point x="377" y="389"/>
      <point x="455" y="389" type="curve" smooth="yes"/>
      <point x="467" y="389"/>
      <point x="478" y="385"/>
      <point x="483" y="382" type="curve"/>
      <point x="427" y="148" type="line"/>
      <point x="421" y="146"/>
      <point x="411" y="146"/>
    </contour>
  </outline>
</glyph>
<glyph name="A" format="2">
  <advance width="560"/>
  <unicode hex="0041"/>
  <outline>
    <contour>
      <point x="-7" y="0" type="curve"/>
      <point x="133" y="0" type="line"/>
      <point x="155" y="57"/>
      <point x="179" y="111"/>
      <point x="202" y="161" type="curve"/>
      <point x="399" y="161" type="line"/>
      <point x="398" y="108"/>
      <point x="395" y="54"/>
      <point x="394" y="0" type="curve"/>
      <point x="533" y="0" type="line"/>
      <point x="535" y="264"/>
      <point x="520" y="492"/>
      <point x="496" y="693" type="curve"/>
      <point x="349" y="693" type="line"/>
      <point x="239" y="512"/>
      <point x="120" y="276"/>
    </contour>
    <contour>
      <point x="253" y="272" type="line"/>
      <point x="323" y="426"/>
      <point x="355" y="488"/>
      <point x="394" y="562" type="curve"/>
      <point x="398" y="489"/>
      <point x="404" y="426"/>
      <point x="401" y="272" type="curve"/>
    </contour>
  </outline>
</glyph>
<glyph name="B" format="2">
  <advance width="560"/>
  <unicode hex="0042"/>
  <outline>
    <contour>
      <point x="232" y="-9" type="curve" smooth="yes"/>
      <point x="448" y="-9"/>
      <point x="563" y="86"/>
      <point x="563" y="228" type="curve" smooth="yes"/>
      <point x="563" y="293"/>
      <point x="535" y="336"/>
      <point x="474" y="366" type="curve"/>
      <point x="570" y="404"/>
      <point x="600" y="470"/>
      <point x="600" y="538" type="curve" smooth="yes"/>
      <point x="600" y="654"/>
      <point x="514" y="701"/>
      <point x="386" y="701" type="curve" smooth="yes"/>
      <point x="342" y="701"/>
      <point x="264" y="696"/>
      <point x="204" y="680" type="curve"/>
      <point x="44" y="15" type="line"/>
      <point x="102" y="-3"/>
      <point x="188" y="-9"/>
    </contour>
    <contour>
      <point x="281" y="109" type="curve" smooth="yes"/>
      <point x="244" y="109"/>
      <point x="217" y="111"/>
      <point x="202" y="113" type="curve"/>
      <point x="248" y="305" type="line"/>
      <point x="320" y="305" type="line" smooth="yes"/>
      <point x="384" y="305"/>
      <point x="429" y="289"/>
      <point x="429" y="230" type="curve" smooth="yes"/>
      <point x="429" y="134"/>
      <point x="335" y="109"/>
    </contour>
    <contour>
      <point x="276" y="416" type="line"/>
      <point x="314" y="581" type="line"/>
      <point x="329" y="584"/>
      <point x="353" y="585"/>
      <point x="376" y="585" type="curve" smooth="yes"/>
      <point x="435" y="585"/>
      <point x="469" y="568"/>
      <point x="469" y="520" type="curve" smooth="yes"/>
      <point x="469" y="441"/>
      <point x="392" y="416"/>
      <point x="318" y="416" type="curve" smooth="yes"/>
    </contour>
  </outline>
</glyph>
<glyph name="C" format="2">
  <advance width="560"/>
  <unicode hex="0043"/>
  <outline>
    <contour>
      <point x="323" y="-15" type="curve" smooth="yes"/>
      <point x="408" y="-15"/>
      <point x="478" y="10"/>
      <point x="516" y="34" type="curve"/>
      <point x="501" y="144" type="line"/>
      <point x="470" y="127"/>
      <point x="426" y="106"/>
      <point x="357" y="106" type="curve" smooth="yes"/>
      <point x="267" y="106"/>
      <point x="237" y="164"/>
      <point x="237" y="243" type="curve" smooth="yes"/>
      <point x="237" y="398"/>
      <point x="309" y="589"/>
      <point x="456" y="589" type="curve" smooth="yes"/>
      <point x="517" y="589"/>
      <point x="557" y="571"/>
      <point x="586" y="549" type="curve"/>
      <point x="637" y="655" type="line"/>
      <point x="622" y="669"/>
      <point x="566" y="709"/>
      <point x="470" y="709" type="curve" smooth="yes"/>
      <point x="220" y="709"/>
      <point x="99" y="455"/>
      <point x="99" y="230" type="curve" smooth="yes"/>
      <point x="99" y="83"/>
      <point x="169" y="-15"/>
    </contour>
  </outline>
</glyph>
<glyph name="D" format="2">
  <advance width="560"/>
  <unicode hex="0044"/>
  <outline>
    <contour>
      <point x="202" y="-9" type="curve" smooth="yes"/>
      <point x="483" y="-9"/>
      <point x="592" y="218"/>
      <point x="592" y="458" type="curve" smooth="yes"/>
      <point x="592" y="613"/>
      <point x="500" y="701"/>
      <point x="352" y="701" type="curve" smooth="yes"/>
      <point x="304" y="701"/>
      <point x="264" y="698"/>
      <point x="198" y="684" type="curve"/>
      <point x="35" y="8" type="line"/>
      <point x="87" y="-4"/>
      <point x="153" y="-9"/>
    </contour>
    <contour>
      <point x="223" y="111" type="curve" smooth="yes"/>
      <point x="215" y="111"/>
      <point x="205" y="111"/>
      <point x="198" y="112" type="curve"/>
      <point x="310" y="578" type="line"/>
      <point x="324" y="580"/>
      <point x="338" y="581"/>
      <point x="351" y="581" type="curve" smooth="yes"/>
      <point x="435" y="581"/>
      <point x="454" y="526"/>
      <point x="454" y="454" type="curve" smooth="yes"/>
      <point x="454" y="309"/>
      <point x="393" y="111"/>
    </contour>
  </outline>
</glyph>
<glyph name="E" format="2">
  <advance width="560"/>
  <unicode hex="0045"/>
  <outline>
    <contour>
      <point x="17" y="0" type="line"/>
      <point x="453" y="0" type="line"/>
      <point x="480" y="114" type="line"/>
      <point x="182" y="114" type="line"/>
      <point x="229" y="309" type="line"/>
      <point x="466" y="309" type="line"/>
      <point x="493" y="423" type="line"/>
      <point x="256" y="423" type="line"/>
      <point x="294" y="579" type="line"/>
      <point x="567" y="579" type="line"/>
      <point x="594" y="693" type="line"/>
      <point x="183" y="693" type="line"/>
    </contour>
  </outline>
</glyph>
<glyph name="F" format="2">
  <advance width="560"/>
  <unicode hex="0046"/>
  <anchor x="217" y="0" name="bottom"/>
  <anchor x="381" y="685" name="top"/>
  <outline>
    <contour>
      <point x="22" y="0" type="line"/>
      <point x="160" y="0" type="line"/>
      <point x="231" y="297" type="line"/>
      <point x="482" y="297" type="line"/>
      <point x="509" y="411" type="line"/>
      <point x="258" y="411" type="line"/>
      <point x="300" y="579" type="line"/>
      <point x="586" y="579" type="line"/>
      <point x="613" y="693" type="line"/>
      <point x="188" y="693" type="line"/>
    </contour>
  </outline>
</glyph>
<glyph name="G" format="2">
  <advance width="560"/>
  <unicode hex="0047"/>
  <outline>
    <contour>
      <point x="295" y="-15" type="curve" smooth="yes"/>
      <point x="382" y="-15"/>
      <point x="459" y="4"/>
      <point x="494" y="17" type="curve"/>
      <point x="577" y="363" type="line"/>
      <point x="439" y="363" type="line"/>
      <point x="379" y="110" type="line"/>
      <point x="362" y="108"/>
      <point x="343" y="105"/>
      <point x="324" y="105" type="curve" smooth="yes"/>
      <point x="252" y="105"/>
      <point x="225" y="164"/>
      <point x="225" y="243" type="curve" smooth="yes"/>
      <point x="225" y="398"/>
      <point x="304" y="589"/>
      <point x="456" y="589" type="curve" smooth="yes"/>
      <point x="517" y="589"/>
      <point x="557" y="571"/>
      <point x="586" y="549" type="curve"/>
      <point x="637" y="655" type="line"/>
      <point x="622" y="669"/>
      <point x="566" y="709"/>
      <point x="470" y="709" type="curve" smooth="yes"/>
      <point x="215" y="709"/>
      <point x="87" y="455"/>
      <point x="87" y="230" type="curve" smooth="yes"/>
      <point x="87" y="75"/>
      <point x="157" y="-15"/>
    </contour>
  </outline>
</glyph>
<glyph name="H" format="2">
  <advance width="560"/>
  <unicode hex="0048"/>
  <outline>
    <contour>
      <point x="29" y="0" type="line"/>
      <point x="167" y="0" type="line"/>
      <point x="241" y="306" type="line"/>
      <point x="426" y="306" type="line"/>
      <point x="351" y="0" type="line"/>
      <point x="489" y="0" type="line"/>
      <point x="656" y="693" type="line"/>
      <point x="519" y="693" type="line"/>
      <point x="452" y="420" type="line"/>
      <point x="268" y="420" type="line"/>
      <point x="334" y="693" type="line"/>
      <point x="196" y="693" type="line"/>
    </contour>
  </outline>
</glyph>
<glyph name="I" format="2">
  <advance width="560"/>
  <unicode hex="0049"/>
  <outline>
    <contour>
      <point x="39" y="0" type="line"/>
      <point x="479" y="0" type="line"/>
      <point x="506" y="114" type="line"/>
      <point x="356" y="114" type="line"/>
      <point x="468" y="579" type="line"/>
      <point x="618" y="579" type="line"/>
      <point x="645" y="693" type="line"/>
      <point x="205" y="693" type="line"/>
      <point x="178" y="579" type="line"/>
      <point x="330" y="579" type="line"/>
      <point x="218" y="114" type="line"/>
      <point x="66" y="114" type="line"/>
    </contour>
  </outline>
</glyph>
<glyph name="J" format="2">
  <advance width="560"/>
  <unicode hex="004A"/>
  <outline>
    <contour>
      <point x="195" y="-15" type="curve" smooth="yes"/>
      <point x="379" y="-15"/>
      <point x="438" y="91"/>
      <point x="472" y="232" type="curve" smooth="yes"/>
      <point x="582" y="693" type="line"/>
      <point x="220" y="693" type="line"/>
      <point x="193" y="579" type="line"/>
      <point x="417" y="579" type="line"/>
      <point x="337" y="240" type="line" smooth="yes"/>
      <point x="311" y="137"/>
      <point x="264" y="105"/>
      <point x="193" y="105" type="curve" smooth="yes"/>
      <point x="142" y="105"/>
      <point x="99" y="134"/>
      <point x="70" y="161" type="curve"/>
      <point x="-1" y="62" type="line"/>
      <point x="33" y="29"/>
      <point x="99" y="-15"/>
    </contour>
  </outline>
</glyph>
<glyph name="K" format="2">
  <advance width="560"/>
  <unicode hex="004B"/>
  <outline>
    <contour>
      <point x="35" y="0" type="line"/>
      <point x="172" y="0" type="line"/>
      <point x="250" y="321" type="line"/>
      <point x="310" y="251"/>
      <point x="373" y="105"/>
      <point x="394" y="0" type="curve"/>
      <point x="539" y="0" type="line"/>
      <point x="513" y="129"/>
      <point x="449" y="272"/>
      <point x="379" y="361" type="curve"/>
      <point x="498" y="465"/>
      <point x="608" y="601"/>
      <point x="675" y="693" type="curve"/>
      <point x="517" y="693" type="line"/>
      <point x="463" y="613"/>
      <point x="363" y="488"/>
      <point x="270" y="405" type="curve"/>
      <point x="339" y="693" type="line"/>
      <point x="200" y="693" type="line"/>
    </contour>
  </outline>
</glyph>
<glyph name="L" format="2">
  <advance width="560"/>
  <unicode hex="004C"/>
  <outline>
    <contour>
      <point x="50" y="0" type="line"/>
      <point x="480" y="0" type="line"/>
      <point x="507" y="114" type="line"/>
      <point x="215" y="114" type="line"/>
      <point x="354" y="693" type="line"/>
      <point x="216" y="693" type="line"/>
    </contour>
  </outline>
</glyph>
<glyph name="M" format="2">
  <advance width="560"/>
  <unicode hex="004D"/>
  <outline>
    <contour>
      <point x="7" y="0" type="curve"/>
      <point x="133" y="0" type="line"/>
      <point x="175" y="179"/>
      <point x="216" y="360"/>
      <point x="258" y="539" type="curve"/>
      <point x="264" y="449"/>
      <point x="272" y="344"/>
      <point x="276" y="245" type="curve"/>
      <point x="373" y="245" type="line"/>
      <point x="528" y="544" type="line"/>
      <point x="482" y="363"/>
      <point x="435" y="181"/>
      <point x="389" y="0" type="curve"/>
      <point x="515" y="0" type="line"/>
      <point x="568" y="239"/>
      <point x="616" y="469"/>
      <point x="645" y="693" type="curve"/>
      <point x="519" y="693" type="line"/>
      <point x="351" y="370" type="line"/>
      <point x="346" y="478"/>
      <point x="333" y="629"/>
      <point x="326" y="693" type="curve"/>
      <point x="207" y="693" type="line"/>
      <point x="142" y="503"/>
      <point x="69" y="226"/>
    </contour>
  </outline>
</glyph>
<glyph name="N" format="2">
  <advance width="560"/>
  <unicode hex="004E"/>
  <outline>
    <contour>
      <point x="29" y="0" type="line"/>
      <point x="151" y="0" type="line"/>
      <point x="270" y="497" type="line"/>
      <point x="318" y="312"/>
      <point x="352" y="152"/>
      <point x="377" y="0" type="curve"/>
      <point x="489" y="0" type="line"/>
      <point x="655" y="693" type="line"/>
      <point x="533" y="693" type="line"/>
      <point x="427" y="244" type="line"/>
      <point x="407" y="374"/>
      <point x="355" y="562"/>
      <point x="312" y="693" type="curve"/>
      <point x="195" y="693" type="line"/>
    </contour>
  </outline>
</glyph>
<glyph name="O" format="2">
  <advance width="560"/>
  <unicode hex="004F"/>
  <outline>
    <contour>
      <point x="270" y="-15" type="curve" smooth="yes"/>
      <point x="529" y="-15"/>
      <point x="605" y="318"/>
      <point x="605" y="494" type="curve" smooth="yes"/>
      <point x="605" y="624"/>
      <point x="532" y="709"/>
      <point x="411" y="709" type="curve" smooth="yes"/>
      <point x="152" y="709"/>
      <point x="75" y="376"/>
      <point x="75" y="200" type="curve" smooth="yes"/>
      <point x="75" y="71"/>
      <point x="148" y="-15"/>
    </contour>
    <contour>
      <point x="286" y="105" type="curve" smooth="yes"/>
      <point x="228" y="105"/>
      <point x="213" y="152"/>
      <point x="213" y="211" type="curve" smooth="yes"/>
      <point x="213" y="352"/>
      <point x="272" y="589"/>
      <point x="395" y="589" type="curve" smooth="yes"/>
      <point x="451" y="589"/>
      <point x="467" y="542"/>
      <point x="467" y="484" type="curve" smooth="yes"/>
      <point x="467" y="342"/>
      <point x="408" y="105"/>
    </contour>
  </outline>
</glyph>
<glyph name="P" format="2">
  <advance width="560"/>
  <unicode hex="0050"/>
  <outline>
    <contour>
      <point x="43" y="0" type="line"/>
      <point x="180" y="0" type="line"/>
      <point x="237" y="235" type="line"/>
      <point x="267" y="235" type="line" smooth="yes"/>
      <point x="475" y="235"/>
      <point x="622" y="320"/>
      <point x="622" y="510" type="curve" smooth="yes"/>
      <point x="622" y="622"/>
      <point x="554" y="701"/>
      <point x="389" y="701" type="curve" smooth="yes"/>
      <point x="342" y="701"/>
      <point x="277" y="697"/>
      <point x="207" y="684" type="curve"/>
    </contour>
    <contour>
      <point x="265" y="354" type="line"/>
      <point x="319" y="578" type="line"/>
      <point x="339" y="581"/>
      <point x="351" y="581"/>
      <point x="371" y="581" type="curve" smooth="yes"/>
      <point x="458" y="581"/>
      <point x="483" y="547"/>
      <point x="483" y="489" type="curve" smooth="yes"/>
      <point x="483" y="405"/>
      <point x="419" y="354"/>
      <point x="299" y="354" type="curve" smooth="yes"/>
    </contour>
  </outline>
</glyph>
<glyph name="Q" format="2">
  <advance width="560"/>
  <unicode hex="0051"/>
  <outline>
    <contour>
      <point x="423" y="-190" type="curve"/>
      <point x="466" y="-99" type="line"/>
      <point x="376" y="-88"/>
      <point x="308" y="-64"/>
      <point x="308" y="-20" type="curve" smooth="yes"/>
      <point x="308" y="-12" type="line"/>
      <point x="536" y="18"/>
      <point x="604" y="327"/>
      <point x="604" y="494" type="curve" smooth="yes"/>
      <point x="604" y="624"/>
      <point x="532" y="709"/>
      <point x="411" y="709" type="curve" smooth="yes"/>
      <point x="152" y="709"/>
      <point x="76" y="376"/>
      <point x="76" y="200" type="curve" smooth="yes"/>
      <point x="76" y="97"/>
      <point x="121" y="24"/>
      <point x="199" y="-4" type="curve"/>
      <point x="198" y="-11"/>
      <point x="198" y="-18"/>
      <point x="198" y="-24" type="curve" smooth="yes"/>
      <point x="198" y="-121"/>
      <point x="276" y="-169"/>
    </contour>
    <contour>
      <point x="286" y="105" type="curve" smooth="yes"/>
      <point x="228" y="105"/>
      <point x="213" y="152"/>
      <point x="213" y="211" type="curve" smooth="yes"/>
      <point x="213" y="352"/>
      <point x="272" y="589"/>
      <point x="395" y="589" type="curve" smooth="yes"/>
      <point x="451" y="589"/>
      <point x="467" y="542"/>
      <point x="467" y="484" type="curve" smooth="yes"/>
      <point x="467" y="342"/>
      <point x="408" y="105"/>
    </contour>
  </outline>
</glyph>
<glyph name="R" format="2">
  <advance width="560"/>
  <unicode hex="0052"/>
  <outline>
    <contour>
      <point x="38" y="0" type="line"/>
      <point x="174" y="0" type="line"/>
      <point x="235" y="255" type="line"/>
      <point x="307" y="255" type="line"/>
      <point x="347" y="172"/>
      <point x="377" y="88"/>
      <point x="394" y="0" type="curve"/>
      <point x="529" y="0" type="line"/>
      <point x="510" y="92"/>
      <point x="470" y="208"/>
      <point x="427" y="283" type="curve"/>
      <point x="539" y="315"/>
      <point x="597" y="416"/>
      <point x="597" y="521" type="curve" smooth="yes"/>
      <point x="597" y="631"/>
      <point x="523" y="701"/>
      <point x="376" y="701" type="curve" smooth="yes"/>
      <point x="332" y="701"/>
      <point x="258" y="696"/>
      <point x="200" y="682" type="curve"/>
    </contour>
    <contour>
      <point x="262" y="370" type="line"/>
      <point x="314" y="582" type="line"/>
      <point x="326" y="585"/>
      <point x="339" y="587"/>
      <point x="355" y="587" type="curve" smooth="yes"/>
      <point x="431" y="587"/>
      <point x="459" y="557"/>
      <point x="459" y="505" type="curve" smooth="yes"/>
      <point x="459" y="412"/>
      <point x="392" y="370"/>
      <point x="314" y="370" type="curve"/>
    </contour>
  </outline>
</glyph>
<glyph name="S" format="2">
  <advance width="560"/>
  <unicode hex="0053"/>
  <outline>
    <contour>
      <point x="250" y="-15" type="curve" smooth="yes"/>
      <point x="428" y="-15"/>
      <point x="531" y="68"/>
      <point x="531" y="220" type="curve" smooth="yes"/>
      <point x="531" y="330"/>
      <point x="466" y="374"/>
      <point x="377" y="416" type="curve" smooth="yes"/>
      <point x="329" y="437"/>
      <point x="291" y="458"/>
      <point x="291" y="508" type="curve" smooth="yes"/>
      <point x="291" y="571"/>
      <point x="337" y="594"/>
      <point x="393" y="594" type="curve" smooth="yes"/>
      <point x="466" y="594"/>
      <point x="519" y="575"/>
      <point x="552" y="551" type="curve"/>
      <point x="610" y="657" type="line"/>
      <point x="580" y="676"/>
      <point x="519" y="709"/>
      <point x="411" y="709" type="curve" smooth="yes"/>
      <point x="248" y="709"/>
      <point x="155" y="622"/>
      <point x="155" y="491" type="curve" smooth="yes"/>
      <point x="155" y="382"/>
      <point x="211" y="348"/>
      <point x="286" y="310" type="curve" smooth="yes"/>
      <point x="345" y="280"/>
      <point x="393" y="252"/>
      <point x="393" y="197" type="curve" smooth="yes"/>
      <point x="393" y="127"/>
      <point x="334" y="101"/>
      <point x="264" y="101" type="curve" smooth="yes"/>
      <point x="188" y="101"/>
      <point x="123" y="132"/>
      <point x="94" y="151" type="curve"/>
      <point x="35" y="46" type="line"/>
      <point x="65" y="25"/>
      <point x="130" y="-15"/>
    </contour>
  </outline>
</glyph>
<glyph name="T" format="2">
  <advance width="560"/>
  <unicode hex="0054"/>
  <outline>
    <contour>
      <point x="188" y="0" type="line"/>
      <point x="326" y="0" type="line"/>
      <point x="465" y="579" type="line"/>
      <point x="648" y="579" type="line"/>
      <point x="675" y="693" type="line"/>
      <point x="171" y="693" type="line"/>
      <point x="144" y="579" type="line"/>
      <point x="327" y="579" type="line"/>
    </contour>
  </outline>
</glyph>
<glyph name="U" format="2">
  <advance width="560"/>
  <unicode hex="0055"/>
  <outline>
    <contour>
      <point x="265" y="-15" type="curve" smooth="yes"/>
      <point x="451" y="-15"/>
      <point x="501" y="83"/>
      <point x="540" y="246" type="curve" smooth="yes"/>
      <point x="647" y="693" type="line"/>
      <point x="510" y="693" type="line"/>
      <point x="404" y="256" type="line" smooth="yes"/>
      <point x="376" y="140"/>
      <point x="352" y="105"/>
      <point x="286" y="105" type="curve" smooth="yes"/>
      <point x="231" y="105"/>
      <point x="213" y="132"/>
      <point x="213" y="177" type="curve" smooth="yes"/>
      <point x="213" y="202"/>
      <point x="220" y="233"/>
      <point x="227" y="268" type="curve" smooth="yes"/>
      <point x="329" y="693" type="line"/>
      <point x="192" y="693" type="line"/>
      <point x="88" y="267" type="line" smooth="yes"/>
      <point x="80" y="228"/>
      <point x="75" y="195"/>
      <point x="75" y="164" type="curve" smooth="yes"/>
      <point x="75" y="52"/>
      <point x="136" y="-15"/>
    </contour>
  </outline>
</glyph>
<glyph name="V" format="2">
  <advance width="560"/>
  <unicode hex="0056"/>
  <outline>
    <contour>
      <point x="190" y="0" type="curve"/>
      <point x="337" y="0" type="line"/>
      <point x="482" y="237"/>
      <point x="614" y="515"/>
      <point x="691" y="693" type="curve"/>
      <point x="548" y="693" type="line"/>
      <point x="491" y="550"/>
      <point x="379" y="296"/>
      <point x="297" y="140" type="curve"/>
      <point x="288" y="307"/>
      <point x="289" y="526"/>
      <point x="295" y="693" type="curve"/>
      <point x="153" y="693" type="line"/>
      <point x="146" y="560"/>
      <point x="167" y="174"/>
    </contour>
  </outline>
</glyph>
<glyph name="W" format="2">
  <advance width="560"/>
  <unicode hex="0057"/>
  <outline>
    <contour>
      <point x="44" y="0" type="curve"/>
      <point x="171" y="0" type="line"/>
      <point x="338" y="323" type="line"/>
      <point x="343" y="215"/>
      <point x="356" y="64"/>
      <point x="363" y="0" type="curve"/>
      <point x="482" y="0" type="line"/>
      <point x="547" y="190"/>
      <point x="620" y="467"/>
      <point x="682" y="693" type="curve"/>
      <point x="557" y="693" type="line"/>
      <point x="515" y="514"/>
      <point x="474" y="334"/>
      <point x="432" y="155" type="curve"/>
      <point x="426" y="244"/>
      <point x="417" y="349"/>
      <point x="413" y="448" type="curve"/>
      <point x="316" y="448" type="line"/>
      <point x="264" y="348"/>
      <point x="214" y="249"/>
      <point x="162" y="149" type="curve"/>
      <point x="208" y="330"/>
      <point x="254" y="512"/>
      <point x="300" y="693" type="curve"/>
      <point x="174" y="693" type="line"/>
      <point x="121" y="454"/>
      <point x="73" y="224"/>
    </contour>
  </outline>
</glyph>
<glyph name="X" format="2">
  <advance width="560"/>
  <unicode hex="0058"/>
  <outline>
    <contour>
      <point x="2" y="0" type="line"/>
      <point x="160" y="0" type="line"/>
      <point x="340" y="255" type="line"/>
      <point x="365" y="172"/>
      <point x="385" y="76"/>
      <point x="395" y="0" type="curve"/>
      <point x="532" y="0" type="line"/>
      <point x="522" y="80"/>
      <point x="483" y="241"/>
      <point x="433" y="370" type="curve"/>
      <point x="519" y="474"/>
      <point x="604" y="579"/>
      <point x="683" y="693" type="curve"/>
      <point x="538" y="693" type="line"/>
      <point x="491" y="620"/>
      <point x="435" y="545"/>
      <point x="385" y="482" type="curve"/>
      <point x="309" y="693" type="line"/>
      <point x="168" y="693" type="line"/>
      <point x="291" y="379" type="line"/>
    </contour>
  </outline>
</glyph>
<glyph name="Y" format="2">
  <advance width="560"/>
  <unicode hex="0059"/>
  <outline>
    <contour>
      <point x="192" y="0" type="line"/>
      <point x="329" y="0" type="line"/>
      <point x="393" y="264" type="line"/>
      <point x="514" y="410"/>
      <point x="600" y="541"/>
      <point x="692" y="693" type="curve"/>
      <point x="544" y="693" type="line"/>
      <point x="491" y="597"/>
      <point x="398" y="450"/>
      <point x="348" y="381" type="curve"/>
      <point x="326" y="473"/>
      <point x="304" y="586"/>
      <point x="295" y="693" type="curve"/>
      <point x="159" y="693" type="line"/>
      <point x="180" y="541"/>
      <point x="208" y="409"/>
      <point x="254" y="263" type="curve"/>
    </contour>
  </outline>
</glyph>
<glyph name="Z" format="2">
  <advance width="560"/>
  <unicode hex="005A"/>
  <outline>
    <contour>
      <point x="31" y="0" type="line"/>
      <point x="486" y="0" type="line"/>
      <point x="514" y="113" type="line"/>
      <point x="213" y="113" type="line"/>
      <point x="324" y="252"/>
      <point x="440" y="388"/>
      <point x="613" y="581" type="curve"/>
      <point x="640" y="693" type="line"/>
      <point x="207" y="693" type="line"/>
      <point x="179" y="580" type="line"/>
      <point x="459" y="580" type="line"/>
      <point x="261" y="358"/>
      <point x="146" y="217"/>
      <point x="54" y="91" type="curve"/>
    </contour>
  </outline>
</glyph>
<glyph name="bracketleft" format="2">
  <advance width="500"/>
  <unicode hex="005B"/>
  <outline>
    <contour>
      <point x="89" y="-165" type="line"/>
      <point x="367" y="-165" type="line"/>
      <point x="390" y="-69" type="line"/>
      <point x="230" y="-69" type="line"/>
      <point x="392" y="603" type="line"/>
      <point x="552" y="603" type="line"/>
      <point x="575" y="699" type="line"/>
      <point x="297" y="699" type="line"/>
    </contour>
  </outline>
</glyph>
<glyph name="backslash" format="2">
  <advance width="560"/>
  <unicode hex="005C"/>
  <outline>
    <contour>
      <point x="319" y="-185" type="line"/>
      <point x="452" y="-185" type="line"/>
      <point x="362" y="783" type="line"/>
      <point x="231" y="783" type="line"/>
    </contour>
  </outline>
</glyph>
<glyph name="bracketright" format="2">
  <advance width="560"/>
  <unicode hex="005D"/>
  <outline>
    <contour>
      <point x="17" y="-185" type="line"/>
      <point x="328" y="-185" type="line"/>
      <point x="561" y="783" type="line"/>
      <point x="250" y="783" type="line"/>
      <point x="224" y="675" type="line"/>
      <point x="403" y="675" type="line"/>
      <point x="222" y="-77" type="line"/>
      <point x="43" y="-77" type="line"/>
    </contour>
  </outline>
</glyph>
<glyph name="asciicircum" format="2">
  <advance width="560"/>
  <unicode hex="005E"/>
  <outline>
    <contour>
      <point x="476" y="289" type="line"/>
      <point x="601" y="343" type="line"/>
      <point x="484" y="693" type="line"/>
      <point x="367" y="693" type="line"/>
      <point x="86" y="356" type="line"/>
      <point x="190" y="293" type="line"/>
      <point x="394" y="542" type="line"/>
    </contour>
  </outline>
</glyph>
<glyph name="underscore" format="2">
  <advance width="560"/>
  <unicode hex="005F"/>
  <outline>
    <contour>
      <point x="-38" y="-185" type="line"/>
      <point x="463" y="-185" type="line"/>
      <point x="492" y="-65" type="line"/>
      <point x="-9" y="-65" type="line"/>
    </contour>
  </outline>
</glyph>
<glyph name="grave" format="2">
  <advance width="560"/>
  <unicode hex="0060"/>
  <outline>
    <contour>
      <point x="461" y="567" type="line"/>
      <point x="512" y="642" type="line"/>
      <point x="335" y="774" type="line"/>
      <point x="267" y="669" type="line"/>
    </contour>
  </outline>
</glyph>
<glyph name="a" format="2">
  <advance width="500"/>
  <unicode hex="0061"/>
  <outline>
    <contour>
      <point x="206" y="-11" type="curve" smooth="yes"/>
      <point x="278" y="-11"/>
      <point x="322" y="16"/>
      <point x="348" y="36" type="curve"/>
      <point x="350" y="29"/>
      <point x="362" y="2"/>
      <point x="367" y="-8" type="curve"/>
      <point x="475" y="10" type="line"/>
      <point x="463" y="46"/>
      <point x="455" y="82"/>
      <point x="455" y="121" type="curve" smooth="yes"/>
      <point x="455" y="145"/>
      <point x="458" y="168"/>
      <point x="463" y="192" type="curve" smooth="yes"/>
      <point x="525" y="447" type="line"/>
      <point x="468" y="470"/>
      <point x="411" y="480"/>
      <point x="357" y="480" type="curve" smooth="yes"/>
      <point x="196" y="480"/>
      <point x="64" y="354"/>
      <point x="64" y="172" type="curve" smooth="yes"/>
      <point x="64" y="54"/>
      <point x="119" y="-10"/>
    </contour>
    <contour>
      <point x="251" y="94" type="curve" smooth="yes"/>
      <point x="212" y="94"/>
      <point x="186" y="112"/>
      <point x="186" y="182" type="curve" smooth="yes"/>
      <point x="186" y="282"/>
      <point x="245" y="376"/>
      <point x="338" y="376" type="curve" smooth="yes"/>
      <point x="353" y="376"/>
      <point x="369" y="375"/>
      <point x="384" y="371" type="curve"/>
      <point x="341" y="193" type="line" smooth="yes"/>
      <point x="336" y="170"/>
      <point x="333" y="155"/>
      <point x="331" y="136" type="curve"/>
      <point x="312" y="113"/>
      <point x="288" y="94"/>
    </contour>
  </outline>
</glyph>
<glyph name="c" format="2">
  <advance width="560"/>
  <unicode hex="0063"/>
  <outline>
    <contour>
      <point x="327" y="-12" type="curve" smooth="yes"/>
      <point x="432" y="-12"/>
      <point x="475" y="4"/>
      <point x="511" y="24" type="curve"/>
      <point x="497" y="133" type="line"/>
      <point x="472" y="122"/>
      <point x="418" y="108"/>
      <point x="360" y="108" type="curve" smooth="yes"/>
      <point x="251" y="108"/>
      <point x="225" y="151"/>
      <point x="225" y="209" type="curve" smooth="yes"/>
      <point x="225" y="344"/>
      <point x="315" y="420"/>
      <point x="436" y="420" type="curve" smooth="yes"/>
      <point x="484" y="420"/>
      <point x="522" y="410"/>
      <point x="545" y="400" type="curve"/>
      <point x="595" y="510" type="line"/>
      <point x="557" y="526"/>
      <point x="515" y="539"/>
      <point x="436" y="539" type="curve" smooth="yes"/>
      <point x="231" y="539"/>
      <point x="86" y="398"/>
      <point x="86" y="204" type="curve" smooth="yes"/>
      <point x="86" y="86"/>
      <point x="146" y="-12"/>
    </contour>
  </outline>
</glyph>
<glyph name="e" format="2">
  <advance width="560"/>
  <unicode hex="0065"/>
  <outline>
    <contour>
      <point x="325" y="-13" type="curve" smooth="yes"/>
      <point x="401" y="-13"/>
      <point x="469" y="6"/>
      <point x="505" y="24" type="curve"/>
      <point x="496" y="128" type="line"/>
      <point x="470" y="116"/>
      <point x="411" y="100"/>
      <point x="352" y="100" type="curve" smooth="yes"/>
      <point x="251" y="100"/>
      <point x="220" y="132"/>
      <point x="220" y="187" type="curve"/>
      <point x="426" y="187"/>
      <point x="585" y="243"/>
      <point x="585" y="395" type="curve" smooth="yes"/>
      <point x="585" y="486"/>
      <point x="512" y="540"/>
      <point x="409" y="540" type="curve" smooth="yes"/>
      <point x="204" y="540"/>
      <point x="84" y="380"/>
      <point x="84" y="205" type="curve" smooth="yes"/>
      <point x="84" y="77"/>
      <point x="153" y="-13"/>
    </contour>
    <contour>
      <point x="221" y="282" type="curve"/>
      <point x="244" y="385"/>
      <point x="315" y="430"/>
      <point x="383" y="430" type="curve" smooth="yes"/>
      <point x="428" y="430"/>
      <point x="454" y="411"/>
      <point x="454" y="376" type="curve" smooth="yes"/>
      <point x="454" y="337"/>
      <point x="409" y="282"/>
    </contour>
  </outline>
</glyph>
<glyph name="f" format="2">
  <advance width="560"/>
  <unicode hex="0066"/>
  <outline>
    <contour>
      <point x="73" y="-188" type="curve" smooth="yes"/>
      <point x="203" y="-188"/>
      <point x="283" y="-110"/>
      <point x="311" y="29" type="curve" smooth="yes"/>
      <point x="388" y="412" type="line"/>
      <point x="572" y="412" type="line"/>
      <point x="600" y="526" type="line"/>
      <point x="410" y="526" type="line"/>
      <point x="416" y="557" type="line" smooth="yes"/>
      <point x="435" y="648"/>
      <point x="476" y="659"/>
      <point x="529" y="659" type="curve" smooth="yes"/>
      <point x="560" y="659"/>
      <point x="584" y="653"/>
      <point x="614" y="640" type="curve"/>
      <point x="662" y="752" type="line"/>
      <point x="624" y="769"/>
      <point x="579" y="776"/>
      <point x="531" y="776" type="curve" smooth="yes"/>
      <point x="411" y="776"/>
      <point x="312" y="727"/>
      <point x="278" y="557" type="curve" smooth="yes"/>
      <point x="272" y="526" type="line"/>
      <point x="164" y="526" type="line"/>
      <point x="136" y="412" type="line"/>
      <point x="249" y="412" type="line"/>
      <point x="172" y="34" type="line" smooth="yes"/>
      <point x="162" y="-19"/>
      <point x="137" y="-63"/>
      <point x="71" y="-63" type="curve" smooth="yes"/>
      <point x="40" y="-63"/>
      <point x="18" y="-56"/>
      <point x="-1" y="-49" type="curve"/>
      <point x="-39" y="-166" type="line"/>
      <point x="-10" y="-179"/>
      <point x="28" y="-188"/>
    </contour>
  </outline>
</glyph>
<glyph name="g" format="2">
  <advance width="560"/>
  <unicode hex="0067"/>
  <outline>
    <contour>
      <point x="144" y="-188" type="curve" smooth="yes"/>
      <point x="325" y="-188"/>
      <point x="408" y="-111"/>
      <point x="449" y="62" type="curve" smooth="yes"/>
      <point x="555" y="505" type="line"/>
      <point x="499" y="529"/>
      <point x="432" y="538"/>
      <point x="370" y="538" type="curve" smooth="yes"/>
      <point x="203" y="538"/>
      <point x="43" y="423"/>
      <point x="43" y="220" type="curve" smooth="yes"/>
      <point x="43" y="109"/>
      <point x="92" y="36"/>
      <point x="211" y="36" type="curve" smooth="yes"/>
      <point x="242" y="36"/>
      <point x="278" y="47"/>
      <point x="311" y="63" type="curve"/>
      <point x="304" y="34" type="line" smooth="yes"/>
      <point x="290" y="-29"/>
      <point x="247" y="-71"/>
      <point x="157" y="-71" type="curve" smooth="yes"/>
      <point x="94" y="-71"/>
      <point x="45" y="-53"/>
      <point x="7" y="-36" type="curve"/>
      <point x="-41" y="-144" type="line"/>
      <point x="15" y="-174"/>
      <point x="64" y="-188"/>
    </contour>
    <contour>
      <point x="251" y="147" type="curve" smooth="yes"/>
      <point x="192" y="147"/>
      <point x="178" y="185"/>
      <point x="178" y="230" type="curve" smooth="yes"/>
      <point x="178" y="333"/>
      <point x="245" y="426"/>
      <point x="346" y="426" type="curve" smooth="yes"/>
      <point x="362" y="426"/>
      <point x="379" y="423"/>
      <point x="397" y="419" type="curve"/>
      <point x="338" y="174" type="line"/>
      <point x="309" y="155"/>
      <point x="272" y="147"/>
    </contour>
  </outline>
</glyph>
<glyph name="h" format="2">
  <advance width="560"/>
  <unicode hex="0068"/>
  <outline>
    <contour>
      <point x="49" y="0" type="line"/>
      <point x="187" y="0" type="line"/>
      <point x="286" y="407" type="line"/>
      <point x="307" y="416"/>
      <point x="332" y="419"/>
      <point x="351" y="419" type="curve" smooth="yes"/>
      <point x="401" y="419"/>
      <point x="416" y="389"/>
      <point x="416" y="354" type="curve" smooth="yes"/>
      <point x="416" y="329"/>
      <point x="408" y="302"/>
      <point x="403" y="279" type="curve" smooth="yes"/>
      <point x="336" y="0" type="line"/>
      <point x="474" y="0" type="line"/>
      <point x="545" y="297" type="line" smooth="yes"/>
      <point x="553" y="329"/>
      <point x="557" y="360"/>
      <point x="557" y="385" type="curve" smooth="yes"/>
      <point x="557" y="482"/>
      <point x="501" y="538"/>
      <point x="391" y="538" type="curve" smooth="yes"/>
      <point x="365" y="538"/>
      <point x="337" y="531"/>
      <point x="312" y="524" type="curve"/>
      <point x="373" y="777" type="line"/>
      <point x="230" y="754" type="line"/>
    </contour>
  </outline>
</glyph>
<glyph name="i" format="2">
  <advance width="560"/>
  <unicode hex="0069"/>
  <outline>
    <contour>
      <point x="368" y="-12" type="curve" smooth="yes"/>
      <point x="410" y="-12"/>
      <point x="459" y="-6"/>
      <point x="514" y="15" type="curve"/>
      <point x="512" y="127" type="line"/>
      <point x="470" y="112"/>
      <point x="435" y="108"/>
      <point x="410" y="108" type="curve" smooth="yes"/>
      <point x="371" y="108"/>
      <point x="353" y="127"/>
      <point x="353" y="164" type="curve" smooth="yes"/>
      <point x="353" y="175"/>
      <point x="355" y="189"/>
      <point x="360" y="205" type="curve" smooth="yes"/>
      <point x="436" y="526" type="line"/>
      <point x="152" y="526" type="line"/>
      <point x="124" y="412" type="line"/>
      <point x="270" y="412" type="line"/>
      <point x="225" y="222" type="line" smooth="yes"/>
      <point x="217" y="190"/>
      <point x="213" y="161"/>
      <point x="213" y="136" type="curve" smooth="yes"/>
      <point x="213" y="43"/>
      <point x="263" y="-12"/>
    </contour>
    <contour>
      <point x="372" y="590" type="curve" smooth="yes"/>
      <point x="417" y="590"/>
      <point x="466" y="631"/>
      <point x="466" y="685" type="curve" smooth="yes"/>
      <point x="466" y="741"/>
      <point x="429" y="766"/>
      <point x="385" y="766" type="curve" smooth="yes"/>
      <point x="338" y="766"/>
      <point x="292" y="727"/>
      <point x="292" y="669" type="curve" smooth="yes"/>
      <point x="292" y="615"/>
      <point x="325" y="590"/>
    </contour>
  </outline>
</glyph>
<glyph name="j" format="2">
  <advance width="560"/>
  <unicode hex="006A"/>
  <outline>
    <contour>
      <point x="174" y="-190" type="curve" smooth="yes"/>
      <point x="296" y="-190"/>
      <point x="370" y="-143"/>
      <point x="411" y="28" type="curve" smooth="yes"/>
      <point x="531" y="526" type="line"/>
      <point x="180" y="526" type="line"/>
      <point x="152" y="412" type="line"/>
      <point x="365" y="412" type="line"/>
      <point x="273" y="28" type="line" smooth="yes"/>
      <point x="255" y="-46"/>
      <point x="220" y="-69"/>
      <point x="164" y="-69" type="curve" smooth="yes"/>
      <point x="116" y="-69"/>
      <point x="80" y="-50"/>
      <point x="47" y="-29" type="curve"/>
      <point x="-7" y="-140" type="line"/>
      <point x="32" y="-170"/>
      <point x="97" y="-190"/>
    </contour>
    <contour>
      <point x="444" y="590" type="curve" smooth="yes"/>
      <point x="488" y="590"/>
      <point x="538" y="631"/>
      <point x="538" y="685" type="curve" smooth="yes"/>
      <point x="538" y="741"/>
      <point x="501" y="766"/>
      <point x="456" y="766" type="curve" smooth="yes"/>
      <point x="409" y="766"/>
      <point x="363" y="727"/>
      <point x="363" y="669" type="curve" smooth="yes"/>
      <point x="363" y="615"/>
      <point x="396" y="590"/>
    </contour>
  </outline>
</glyph>
<glyph name="k" format="2">
  <advance width="500"/>
  <unicode hex="006B"/>
  <outline>
    <contour>
      <point x="54" y="0" type="line"/>
      <point x="178" y="0" type="line"/>
      <point x="232" y="227" type="line"/>
      <point x="271" y="179"/>
      <point x="321" y="68"/>
      <point x="343" y="0" type="curve"/>
      <point x="476" y="0" type="line"/>
      <point x="449" y="77"/>
      <point x="392" y="195"/>
      <point x="345" y="254" type="curve"/>
      <point x="417" y="314"/>
      <point x="503" y="393"/>
      <point x="567" y="470" type="curve"/>
      <point x="427" y="470" type="line"/>
      <point x="381" y="413"/>
      <point x="296" y="330"/>
      <point x="247" y="290" type="curve"/>
      <point x="344" y="694" type="line"/>
      <point x="216" y="673" type="line"/>
    </contour>
  </outline>
</glyph>
<glyph name="l" format="2">
  <advance width="500"/>
  <unicode hex="006C"/>
  <outline>
    <contour>
      <point x="308" y="-11" type="curve" smooth="yes"/>
      <point x="391" y="-11"/>
      <point x="445" y="14"/>
      <point x="455" y="20" type="curve"/>
      <point x="447" y="117" type="line"/>
      <point x="435" y="113"/>
      <point x="390" y="96"/>
      <point x="353" y="96" type="curve" smooth="yes"/>
      <point x="308" y="96"/>
      <point x="297" y="120"/>
      <point x="297" y="146" type="curve" smooth="yes"/>
      <point x="297" y="158"/>
      <point x="301" y="175"/>
      <point x="304" y="188" type="curve" smooth="yes"/>
      <point x="422" y="688" type="line"/>
      <point x="169" y="688" type="line"/>
      <point x="145" y="586" type="line"/>
      <point x="275" y="586" type="line"/>
      <point x="182" y="196" type="line" smooth="yes"/>
      <point x="176" y="170"/>
      <point x="172" y="145"/>
      <point x="172" y="122" type="curve" smooth="yes"/>
      <point x="172" y="38"/>
      <point x="218" y="-11"/>
    </contour>
  </outline>
</glyph>
<glyph name="m" format="2">
  <advance width="560"/>
  <unicode hex="006D"/>
  <anchor x="217" y="0" name="bottom"/>
  <anchor x="343" y="526" name="top"/>
  <outline>
    <contour>
      <point x="-18" y="0" type="line"/>
      <point x="94" y="0" type="line"/>
      <point x="195" y="426" type="line"/>
      <point x="206" y="429"/>
      <point x="217" y="431"/>
      <point x="231" y="431" type="curve" smooth="yes"/>
      <point x="254" y="431"/>
      <point x="259" y="416"/>
      <point x="259" y="401" type="curve" smooth="yes"/>
      <point x="259" y="389"/>
      <point x="255" y="376"/>
      <point x="253" y="367" type="curve" smooth="yes"/>
      <point x="213" y="200" type="line"/>
      <point x="322" y="200" type="line"/>
      <point x="360" y="360" type="line" smooth="yes"/>
      <point x="365" y="379"/>
      <point x="367" y="396"/>
      <point x="367" y="413" type="curve"/>
      <point x="379" y="423"/>
      <point x="393" y="432"/>
      <point x="407" y="432" type="curve" smooth="yes"/>
      <point x="427" y="432"/>
      <point x="437" y="421"/>
      <point x="437" y="399" type="curve" smooth="yes"/>
      <point x="437" y="393"/>
      <point x="436" y="380"/>
      <point x="433" y="370" type="curve" smooth="yes"/>
      <point x="346" y="0" type="line"/>
      <point x="458" y="0" type="line"/>
      <point x="543" y="360" type="line" smooth="yes"/>
      <point x="548" y="380"/>
      <point x="550" y="401"/>
      <point x="550" y="419" type="curve" smooth="yes"/>
      <point x="550" y="496"/>
      <point x="508" y="532"/>
      <point x="449" y="532" type="curve" smooth="yes"/>
      <point x="417" y="532"/>
      <point x="374" y="520"/>
      <point x="340" y="493" type="curve"/>
      <point x="319" y="521"/>
      <point x="284" y="532"/>
      <point x="245" y="532" type="curve" smooth="yes"/>
      <point x="202" y="532"/>
      <point x="157" y="522"/>
      <point x="102" y="503" type="curve"/>
    </contour>
  </outline>
</glyph>
<glyph name="n" format="2">
  <advance width="560"/>
  <unicode hex="006E"/>
  <outline>
    <contour>
      <point x="49" y="0" type="line"/>
      <point x="187" y="0" type="line"/>
      <point x="286" y="407" type="line"/>
      <point x="307" y="416"/>
      <point x="330" y="419"/>
      <point x="351" y="419" type="curve" smooth="yes"/>
      <point x="400" y="419"/>
      <point x="416" y="389"/>
      <point x="416" y="354" type="curve" smooth="yes"/>
      <point x="416" y="329"/>
      <point x="408" y="302"/>
      <point x="403" y="279" type="curve" smooth="yes"/>
      <point x="335" y="0" type="line"/>
      <point x="473" y="0" type="line"/>
      <point x="545" y="297" type="line" smooth="yes"/>
      <point x="553" y="329"/>
      <point x="557" y="360"/>
      <point x="557" y="385" type="curve" smooth="yes"/>
      <point x="557" y="482"/>
      <point x="506" y="538"/>
      <point x="381" y="538" type="curve" smooth="yes"/>
      <point x="297" y="538"/>
      <point x="216" y="519"/>
      <point x="170" y="504" type="curve"/>
    </contour>
  </outline>
</glyph>
<glyph name="o" format="2">
  <advance width="560"/>
  <unicode hex="006F"/>
  <outline>
    <contour>
      <point x="259" y="-15" type="curve" smooth="yes"/>
      <point x="463" y="-15"/>
      <point x="566" y="165"/>
      <point x="566" y="342" type="curve" smooth="yes"/>
      <point x="566" y="473"/>
      <point x="493" y="540"/>
      <point x="384" y="540" type="curve" smooth="yes"/>
      <point x="181" y="540"/>
      <point x="73" y="361"/>
      <point x="73" y="183" type="curve" smooth="yes"/>
      <point x="73" y="64"/>
      <point x="133" y="-15"/>
    </contour>
    <contour>
      <point x="287" y="105" type="curve" smooth="yes"/>
      <point x="225" y="105"/>
      <point x="211" y="149"/>
      <point x="211" y="218" type="curve" smooth="yes"/>
      <point x="211" y="301"/>
      <point x="263" y="421"/>
      <point x="351" y="421" type="curve" smooth="yes"/>
      <point x="413" y="421"/>
      <point x="428" y="377"/>
      <point x="428" y="308" type="curve" smooth="yes"/>
      <point x="428" y="225"/>
      <point x="375" y="105"/>
    </contour>
  </outline>
</glyph>
<glyph name="p" format="2">
  <advance width="560"/>
  <unicode hex="0070"/>
  <outline>
    <contour>
      <point x="-2" y="-185" type="line"/>
      <point x="136" y="-185" type="line"/>
      <point x="179" y="-7" type="line"/>
      <point x="192" y="-9"/>
      <point x="205" y="-11"/>
      <point x="235" y="-11" type="curve" smooth="yes"/>
      <point x="460" y="-11"/>
      <point x="567" y="161"/>
      <point x="567" y="347" type="curve" smooth="yes"/>
      <point x="567" y="459"/>
      <point x="505" y="538"/>
      <point x="366" y="538" type="curve" smooth="yes"/>
      <point x="312" y="538"/>
      <point x="226" y="529"/>
      <point x="164" y="502" type="curve"/>
    </contour>
    <contour>
      <point x="234" y="108" type="curve" smooth="yes"/>
      <point x="224" y="108"/>
      <point x="214" y="108"/>
      <point x="207" y="110" type="curve"/>
      <point x="281" y="417" type="line"/>
      <point x="297" y="421"/>
      <point x="316" y="424"/>
      <point x="346" y="424" type="curve" smooth="yes"/>
      <point x="418" y="424"/>
      <point x="431" y="382"/>
      <point x="431" y="337" type="curve" smooth="yes"/>
      <point x="431" y="214"/>
      <point x="357" y="108"/>
    </contour>
  </outline>
</glyph>
<glyph name="q" format="2">
  <advance width="560"/>
  <unicode hex="0071"/>
  <outline>
    <contour>
      <point x="295" y="-185" type="line"/>
      <point x="432" y="-185" type="line"/>
      <point x="597" y="501" type="line"/>
      <point x="533" y="526"/>
      <point x="469" y="538"/>
      <point x="409" y="538" type="curve" smooth="yes"/>
      <point x="228" y="538"/>
      <point x="81" y="398"/>
      <point x="81" y="193" type="curve" smooth="yes"/>
      <point x="81" y="60"/>
      <point x="143" y="-10"/>
      <point x="240" y="-10" type="curve" smooth="yes"/>
      <point x="276" y="-10"/>
      <point x="310" y="-1"/>
      <point x="342" y="15" type="curve"/>
    </contour>
    <contour>
      <point x="290" y="105" type="curve" smooth="yes"/>
      <point x="246" y="105"/>
      <point x="217" y="125"/>
      <point x="217" y="204" type="curve" smooth="yes"/>
      <point x="217" y="316"/>
      <point x="283" y="421"/>
      <point x="388" y="421" type="curve" smooth="yes"/>
      <point x="404" y="421"/>
      <point x="422" y="420"/>
      <point x="439" y="416" type="curve"/>
      <point x="370" y="132" type="line"/>
      <point x="348" y="115"/>
      <point x="314" y="105"/>
    </contour>
  </outline>
</glyph>
<glyph name="r" format="2">
  <advance width="560"/>
  <unicode hex="0072"/>
  <outline>
    <contour>
      <point x="77" y="0" type="line"/>
      <point x="215" y="0" type="line"/>
      <point x="308" y="390" type="line"/>
      <point x="343" y="402"/>
      <point x="385" y="407"/>
      <point x="424" y="407" type="curve" smooth="yes"/>
      <point x="480" y="407"/>
      <point x="519" y="400"/>
      <point x="547" y="390" type="curve"/>
      <point x="599" y="516" type="line"/>
      <point x="554" y="529"/>
      <point x="507" y="536"/>
      <point x="423" y="536" type="curve" smooth="yes"/>
      <point x="352" y="536"/>
      <point x="264" y="520"/>
      <point x="195" y="492" type="curve"/>
    </contour>
  </outline>
</glyph>
<glyph name="s" format="2">
  <advance width="560"/>
  <unicode hex="0073"/>
  <anchor x="217" y="0" name="bottom"/>
  <anchor x="343" y="526" name="top"/>
  <outline>
    <contour>
      <point x="225" y="-15" type="curve" smooth="yes"/>
      <point x="396" y="-15"/>
      <point x="464" y="76"/>
      <point x="464" y="162" type="curve" smooth="yes"/>
      <point x="464" y="245"/>
      <point x="425" y="278"/>
      <point x="335" y="312" type="curve" smooth="yes"/>
      <point x="260" y="340"/>
      <point x="250" y="351"/>
      <point x="250" y="377" type="curve" smooth="yes"/>
      <point x="250" y="418"/>
      <point x="302" y="426"/>
      <point x="331" y="426" type="curve" smooth="yes"/>
      <point x="398" y="426"/>
      <point x="440" y="413"/>
      <point x="473" y="398" type="curve"/>
      <point x="524" y="506" type="line"/>
      <point x="487" y="524"/>
      <point x="418" y="540"/>
      <point x="343" y="540" type="curve" smooth="yes"/>
      <point x="190" y="540"/>
      <point x="113" y="468"/>
      <point x="113" y="360" type="curve" smooth="yes"/>
      <point x="113" y="281"/>
      <point x="154" y="251"/>
      <point x="238" y="220" type="curve" smooth="yes"/>
      <point x="306" y="193"/>
      <point x="324" y="183"/>
      <point x="324" y="155" type="curve" smooth="yes"/>
      <point x="324" y="127"/>
      <point x="298" y="102"/>
      <point x="220" y="102" type="curve" smooth="yes"/>
      <point x="147" y="102"/>
      <point x="94" y="127"/>
      <point x="64" y="143" type="curve"/>
      <point x="13" y="35" type="line"/>
      <point x="40" y="20"/>
      <point x="102" y="-15"/>
    </contour>
  </outline>
</glyph>
<glyph name="t" format="2">
  <advance width="500"/>
  <unicode hex="0074"/>
  <outline>
    <contour>
      <point x="312" y="-11" type="curve" smooth="yes"/>
      <point x="361" y="-11"/>
      <point x="414" y="-1"/>
      <point x="455" y="17" type="curve"/>
      <point x="456" y="120" type="line"/>
      <point x="420" y="105"/>
      <point x="381" y="96"/>
      <point x="345" y="96" type="curve" smooth="yes"/>
      <point x="310" y="96"/>
      <point x="278" y="106"/>
      <point x="278" y="146" type="curve" smooth="yes"/>
      <point x="278" y="157"/>
      <point x="280" y="170"/>
      <point x="283" y="185" type="curve" smooth="yes"/>
      <point x="327" y="368" type="line"/>
      <point x="505" y="368" type="line"/>
      <point x="530" y="470" type="line"/>
      <point x="351" y="470" type="line"/>
      <point x="385" y="608" type="line"/>
      <point x="256" y="588" type="line"/>
      <point x="228" y="470" type="line"/>
      <point x="135" y="470" type="line"/>
      <point x="110" y="368" type="line"/>
      <point x="204" y="368" type="line"/>
      <point x="162" y="192" type="line" smooth="yes"/>
      <point x="155" y="167"/>
      <point x="153" y="145"/>
      <point x="153" y="124" type="curve" smooth="yes"/>
      <point x="153" y="37"/>
      <point x="206" y="-11"/>
    </contour>
  </outline>
</glyph>
<glyph name="v" format="2">
  <advance width="560"/>
  <unicode hex="0076"/>
  <outline>
    <contour>
      <point x="195" y="0" type="curve"/>
      <point x="319" y="0" type="line"/>
      <point x="416" y="113"/>
      <point x="550" y="335"/>
      <point x="622" y="526" type="curve"/>
      <point x="474" y="526" type="line"/>
      <point x="440" y="416"/>
      <point x="354" y="245"/>
      <point x="291" y="156" type="curve"/>
      <point x="276" y="264"/>
      <point x="264" y="418"/>
      <point x="262" y="526" type="curve"/>
      <point x="119" y="526" type="line"/>
      <point x="130" y="316"/>
      <point x="160" y="136"/>
    </contour>
  </outline>
</glyph>
<glyph name="w" format="2">
  <advance width="560"/>
  <unicode hex="0077"/>
  <outline>
    <contour>
      <point x="72" y="0" type="curve"/>
      <point x="178" y="0" type="line"/>
      <point x="237" y="93"/>
      <point x="273" y="149"/>
      <point x="326" y="260" type="curve"/>
      <point x="332" y="156"/>
      <point x="337" y="78"/>
      <point x="344" y="0" type="curve"/>
      <point x="447" y="0" type="line"/>
      <point x="519" y="134"/>
      <point x="582" y="323"/>
      <point x="647" y="526" type="curve"/>
      <point x="526" y="526" type="line"/>
      <point x="493" y="392"/>
      <point x="465" y="280"/>
      <point x="416" y="138" type="curve"/>
      <point x="410" y="258"/>
      <point x="407" y="336"/>
      <point x="403" y="420" type="curve"/>
      <point x="312" y="420" type="line"/>
      <point x="273" y="334"/>
      <point x="239" y="259"/>
      <point x="169" y="138" type="curve"/>
      <point x="186" y="276"/>
      <point x="209" y="398"/>
      <point x="234" y="526" type="curve"/>
      <point x="114" y="526" type="line"/>
      <point x="83" y="325"/>
      <point x="71" y="131"/>
    </contour>
  </outline>
</glyph>
<glyph name="x" format="2">
  <advance width="560"/>
  <unicode hex="0078"/>
  <outline>
    <contour>
      <point x="-31" y="0" type="line"/>
      <point x="120" y="0" type="line"/>
      <point x="268" y="170" type="line"/>
      <point x="291" y="124"/>
      <point x="319" y="62"/>
      <point x="342" y="0" type="curve"/>
      <point x="483" y="0" type="line"/>
      <point x="453" y="88"/>
      <point x="417" y="168"/>
      <point x="365" y="267" type="curve"/>
      <point x="452" y="360"/>
      <point x="518" y="446"/>
      <point x="574" y="526" type="curve"/>
      <point x="428" y="526" type="line"/>
      <point x="391" y="472"/>
      <point x="347" y="412"/>
      <point x="302" y="358" type="curve"/>
      <point x="225" y="526" type="line"/>
      <point x="80" y="526" type="line"/>
      <point x="208" y="268" type="line"/>
    </contour>
  </outline>
</glyph>
<glyph name="y" format="2">
  <advance width="560"/>
  <unicode hex="0079"/>
  <outline>
    <contour>
      <point x="59" y="-188" type="curve" smooth="yes"/>
      <point x="200" y="-188"/>
      <point x="295" y="-69"/>
      <point x="368" y="37" type="curve" smooth="yes"/>
      <point x="467" y="178"/>
      <point x="539" y="320"/>
      <point x="615" y="526" type="curve"/>
      <point x="468" y="526" type="line"/>
      <point x="424" y="381"/>
      <point x="374" y="260"/>
      <point x="306" y="156" type="curve"/>
      <point x="284" y="261"/>
      <point x="273" y="420"/>
      <point x="270" y="526" type="curve"/>
      <point x="127" y="526" type="line"/>
      <point x="137" y="318"/>
      <point x="169" y="152"/>
      <point x="205" y="10" type="curve"/>
      <point x="169" y="-44"/>
      <point x="124" y="-71"/>
      <point x="69" y="-71" type="curve" smooth="yes"/>
      <point x="37" y="-71"/>
      <point x="19" y="-65"/>
      <point x="-4" y="-55" type="curve"/>
      <point x="-48" y="-165" type="line"/>
      <point x="-22" y="-180"/>
      <point x="13" y="-188"/>
    </contour>
  </outline>
</glyph>
<glyph name="z" format="2">
  <advance width="560"/>
  <unicode hex="007A"/>
  <outline>
    <contour>
      <point x="55" y="0" type="line"/>
      <point x="475" y="0" type="line"/>
      <point x="503" y="114" type="line"/>
      <point x="251" y="114" type="line"/>
      <point x="365" y="237"/>
      <point x="511" y="374"/>
      <point x="570" y="426" type="curve"/>
      <point x="594" y="526" type="line"/>
      <point x="189" y="526" type="line"/>
      <point x="161" y="412" type="line"/>
      <point x="389" y="412" type="line"/>
      <point x="293" y="323"/>
      <point x="158" y="187"/>
      <point x="78" y="91" type="curve"/>
    </contour>
  </outline>
</glyph>
<glyph name="braceleft" format="2">
  <advance width="560"/>
  <unicode hex="007B"/>
  <outline>
    <contour>
      <point x="324" y="-185" type="curve" smooth="yes"/>
      <point x="428" y="-185" type="line"/>
      <point x="454" y="-77" type="line"/>
      <point x="353" y="-77" type="line" smooth="yes"/>
      <point x="314" y="-77"/>
      <point x="301" y="-58"/>
      <point x="301" y="-34" type="curve" smooth="yes"/>
      <point x="301" y="-19"/>
      <point x="306" y="1"/>
      <point x="309" y="16" type="curve" smooth="yes"/>
      <point x="334" y="127" type="line" smooth="yes"/>
      <point x="339" y="147"/>
      <point x="342" y="169"/>
      <point x="342" y="190" type="curve" smooth="yes"/>
      <point x="342" y="235"/>
      <point x="327" y="277"/>
      <point x="277" y="299" type="curve"/>
      <point x="355" y="314"/>
      <point x="391" y="361"/>
      <point x="411" y="444" type="curve" smooth="yes"/>
      <point x="445" y="586" type="line" smooth="yes"/>
      <point x="460" y="650"/>
      <point x="475" y="675"/>
      <point x="538" y="675" type="curve" smooth="yes"/>
      <point x="622" y="675" type="line"/>
      <point x="648" y="783" type="line"/>
      <point x="529" y="783" type="line" smooth="yes"/>
      <point x="394" y="783"/>
      <point x="351" y="724"/>
      <point x="325" y="613" type="curve" smooth="yes"/>
      <point x="286" y="447" type="line" smooth="yes"/>
      <point x="272" y="386"/>
      <point x="237" y="353"/>
      <point x="192" y="353" type="curve" smooth="yes"/>
      <point x="137" y="353" type="line"/>
      <point x="111" y="245" type="line"/>
      <point x="164" y="245" type="line" smooth="yes"/>
      <point x="207" y="245"/>
      <point x="220" y="220"/>
      <point x="220" y="190" type="curve" smooth="yes"/>
      <point x="220" y="172"/>
      <point x="215" y="155"/>
      <point x="211" y="137" type="curve" smooth="yes"/>
      <point x="183" y="15" type="line" smooth="yes"/>
      <point x="176" y="-12"/>
      <point x="172" y="-35"/>
      <point x="172" y="-55" type="curve" smooth="yes"/>
      <point x="172" y="-151"/>
      <point x="237" y="-185"/>
    </contour>
  </outline>
</glyph>
<glyph name="bar" format="2">
  <advance width="500"/>
  <unicode hex="007C"/>
  <outline>
    <contour>
      <point x="125" y="-165" type="line"/>
      <point x="249" y="-165" type="line"/>
      <point x="456" y="699" type="line"/>
      <point x="333" y="699" type="line"/>
    </contour>
  </outline>
</glyph>
<glyph name="braceright" format="2">
  <advance width="560"/>
  <unicode hex="007D"/>
  <outline>
    <contour>
      <point x="-38" y="-185" type="line"/>
      <point x="81" y="-185" type="line" smooth="yes"/>
      <point x="216" y="-185"/>
      <point x="259" y="-125"/>
      <point x="285" y="-15" type="curve" smooth="yes"/>
      <point x="324" y="151" type="line" smooth="yes"/>
      <point x="338" y="212"/>
      <point x="374" y="245"/>
      <point x="419" y="245" type="curve" smooth="yes"/>
      <point x="473" y="245" type="line"/>
      <point x="499" y="353" type="line"/>
      <point x="446" y="353" type="line" smooth="yes"/>
      <point x="403" y="353"/>
      <point x="391" y="379"/>
      <point x="391" y="408" type="curve" smooth="yes"/>
      <point x="391" y="426"/>
      <point x="395" y="444"/>
      <point x="399" y="461" type="curve" smooth="yes"/>
      <point x="428" y="585" type="line" smooth="yes"/>
      <point x="434" y="610"/>
      <point x="437" y="633"/>
      <point x="437" y="653" type="curve" smooth="yes"/>
      <point x="437" y="749"/>
      <point x="374" y="783"/>
      <point x="286" y="783" type="curve" smooth="yes"/>
      <point x="182" y="783" type="line"/>
      <point x="156" y="675" type="line"/>
      <point x="257" y="675" type="line" smooth="yes"/>
      <point x="297" y="675"/>
      <point x="309" y="656"/>
      <point x="309" y="632" type="curve" smooth="yes"/>
      <point x="309" y="617"/>
      <point x="304" y="597"/>
      <point x="301" y="582" type="curve" smooth="yes"/>
      <point x="276" y="472" type="line" smooth="yes"/>
      <point x="272" y="451"/>
      <point x="268" y="429"/>
      <point x="268" y="408" type="curve" smooth="yes"/>
      <point x="268" y="363"/>
      <point x="283" y="321"/>
      <point x="333" y="299" type="curve"/>
      <point x="255" y="284"/>
      <point x="219" y="237"/>
      <point x="199" y="155" type="curve" smooth="yes"/>
      <point x="165" y="12" type="line" smooth="yes"/>
      <point x="150" y="-52"/>
      <point x="135" y="-77"/>
      <point x="73" y="-77" type="curve" smooth="yes"/>
      <point x="-12" y="-77" type="line"/>
    </contour>
  </outline>
</glyph>
<glyph name="asciitilde" format="2">
  <advance width="560"/>
  <unicode hex="007E"/>
  <outline>
    <contour>
      <point x="404" y="193" type="curve" smooth="yes"/>
      <point x="501" y="193"/>
      <point x="557" y="272"/>
      <point x="594" y="367" type="curve"/>
      <point x="500" y="396" type="line"/>
      <point x="468" y="330"/>
      <point x="454" y="323"/>
      <point x="423" y="323" type="curve" smooth="yes"/>
      <point x="400" y="323"/>
      <point x="374" y="340"/>
      <point x="353" y="355" type="curve" smooth="yes"/>
      <point x="324" y="376"/>
      <point x="291" y="399"/>
      <point x="244" y="399" type="curve" smooth="yes"/>
      <point x="148" y="399"/>
      <point x="86" y="315"/>
      <point x="56" y="224" type="curve"/>
      <point x="149" y="196" type="line"/>
      <point x="180" y="262"/>
      <point x="195" y="269"/>
      <point x="225" y="269" type="curve" smooth="yes"/>
      <point x="250" y="269"/>
      <point x="274" y="252"/>
      <point x="297" y="237" type="curve"/>
      <point x="325" y="216"/>
      <point x="357" y="193"/>
    </contour>
  </outline>
</glyph>
<glyph name="exclamdown" format="2">
  <advance width="560"/>
  <unicode hex="00A1"/>
  <outline>
    <contour>
      <point x="142" y="-180" type="line"/>
      <point x="301" y="-180" type="line"/>
      <point x="344" y="-1" type="line" smooth="yes"/>
      <point x="366" y="90"/>
      <point x="376" y="158"/>
      <point x="385" y="261" type="curve"/>
      <point x="271" y="261" type="line"/>
      <point x="234" y="172"/>
      <point x="213" y="115"/>
      <point x="187" y="7" type="curve" smooth="yes"/>
    </contour>
    <contour>
      <point x="356" y="339" type="curve" smooth="yes"/>
      <point x="408" y="339"/>
      <point x="457" y="381"/>
      <point x="457" y="442" type="curve" smooth="yes"/>
      <point x="457" y="497"/>
      <point x="420" y="526"/>
      <point x="374" y="526" type="curve" smooth="yes"/>
      <point x="321" y="526"/>
      <point x="273" y="482"/>
      <point x="273" y="422" type="curve" smooth="yes"/>
      <point x="273" y="367"/>
      <point x="309" y="339"/>
    </contour>
  </outline>
</glyph>
<glyph name="cent" format="2">
  <advance width="560"/>
  <unicode hex="00A2"/>
  <outline>
    <contour>
      <point x="212" y="-109" type="line"/>
      <point x="351" y="-109" type="line"/>
      <point x="383" y="32" type="line"/>
      <point x="442" y="37"/>
      <point x="491" y="53"/>
      <point x="520" y="68" type="curve"/>
      <point x="506" y="178" type="line"/>
      <point x="480" y="167"/>
      <point x="437" y="150"/>
      <point x="379" y="150" type="curve" smooth="yes"/>
      <point x="277" y="150"/>
      <point x="237" y="192"/>
      <point x="237" y="258" type="curve" smooth="yes"/>
      <point x="237" y="375"/>
      <point x="324" y="433"/>
      <point x="438" y="433" type="curve" smooth="yes"/>
      <point x="486" y="433"/>
      <point x="529" y="419"/>
      <point x="551" y="409" type="curve"/>
      <point x="601" y="519" type="line"/>
      <point x="576" y="529"/>
      <point x="545" y="541"/>
      <point x="507" y="547" type="curve"/>
      <point x="542" y="693" type="line"/>
      <point x="404" y="693" type="line"/>
      <point x="370" y="549" type="line"/>
      <point x="209" y="528"/>
      <point x="99" y="409"/>
      <point x="99" y="242" type="curve" smooth="yes"/>
      <point x="99" y="150"/>
      <point x="137" y="65"/>
      <point x="248" y="41" type="curve"/>
    </contour>
  </outline>
</glyph>
<glyph name="sterling" format="2">
  <advance width="560"/>
  <unicode hex="00A3"/>
  <outline>
    <contour>
      <point x="85" y="0" type="curve"/>
      <point x="515" y="0" type="line"/>
      <point x="542" y="115" type="line"/>
      <point x="267" y="115" type="line"/>
      <point x="286" y="166"/>
      <point x="308" y="230"/>
      <point x="320" y="277" type="curve"/>
      <point x="497" y="277" type="line"/>
      <point x="524" y="391" type="line"/>
      <point x="347" y="391" type="line"/>
      <point x="365" y="464" type="line" smooth="yes"/>
      <point x="391" y="570"/>
      <point x="439" y="591"/>
      <point x="501" y="591" type="curve" smooth="yes"/>
      <point x="532" y="591"/>
      <point x="566" y="585"/>
      <point x="595" y="568" type="curve"/>
      <point x="651" y="672" type="line"/>
      <point x="613" y="697"/>
      <point x="557" y="708"/>
      <point x="501" y="708" type="curve" smooth="yes"/>
      <point x="388" y="708"/>
      <point x="274" y="652"/>
      <point x="236" y="495" type="curve" smooth="yes"/>
      <point x="211" y="392" type="line"/>
      <point x="121" y="392" type="line"/>
      <point x="94" y="277" type="line"/>
      <point x="183" y="277" type="line"/>
      <point x="162" y="200"/>
      <point x="136" y="112"/>
    </contour>
  </outline>
</glyph>
<glyph name="currency" format="2">
  <advance width="560"/>
  <unicode hex="00A4"/>
  <outline>
    <contour>
      <point x="172" y="99" type="line"/>
      <point x="248" y="170" type="line"/>
      <point x="277" y="157"/>
      <point x="307" y="150"/>
      <point x="342" y="150" type="curve" smooth="yes"/>
      <point x="377" y="150"/>
      <point x="405" y="157"/>
      <point x="433" y="170" type="curve"/>
      <point x="508" y="99" type="line"/>
      <point x="600" y="188" type="line"/>
      <point x="529" y="258" type="line"/>
      <point x="542" y="284"/>
      <point x="549" y="314"/>
      <point x="549" y="349" type="curve" smooth="yes"/>
      <point x="549" y="383"/>
      <point x="542" y="413"/>
      <point x="529" y="439" type="curve"/>
      <point x="600" y="510" type="line"/>
      <point x="510" y="599" type="line"/>
      <point x="435" y="528" type="line"/>
      <point x="405" y="540"/>
      <point x="375" y="547"/>
      <point x="342" y="547" type="curve" smooth="yes"/>
      <point x="305" y="547"/>
      <point x="277" y="540"/>
      <point x="249" y="528" type="curve"/>
      <point x="174" y="599" type="line"/>
      <point x="82" y="510" type="line"/>
      <point x="155" y="439" type="line"/>
      <point x="140" y="413"/>
      <point x="133" y="383"/>
      <point x="133" y="348" type="curve" smooth="yes"/>
      <point x="133" y="314"/>
      <point x="140" y="284"/>
      <point x="155" y="258" type="curve"/>
      <point x="82" y="188" type="line"/>
    </contour>
    <contour>
      <point x="342" y="259" type="curve" smooth="yes"/>
      <point x="295" y="259"/>
      <point x="256" y="290"/>
      <point x="256" y="348" type="curve" smooth="yes"/>
      <point x="256" y="407"/>
      <point x="295" y="438"/>
      <point x="342" y="438" type="curve" smooth="yes"/>
      <point x="388" y="438"/>
      <point x="426" y="407"/>
      <point x="426" y="349" type="curve" smooth="yes"/>
      <point x="426" y="290"/>
      <point x="388" y="259"/>
    </contour>
  </outline>
</glyph>
<glyph name="yen" format="2">
  <advance width="560"/>
  <unicode hex="00A5"/>
  <outline>
    <contour>
      <point x="145" y="0" type="line"/>
      <point x="291" y="0" type="line"/>
      <point x="318" y="113" type="line"/>
      <point x="465" y="113" type="line"/>
      <point x="487" y="200" type="line"/>
      <point x="340" y="200" type="line"/>
      <point x="358" y="280" type="line"/>
      <point x="505" y="280" type="line"/>
      <point x="526" y="367" type="line"/>
      <point x="416" y="367" type="line"/>
      <point x="514" y="486"/>
      <point x="580" y="575"/>
      <point x="654" y="693" type="curve"/>
      <point x="505" y="693" type="line"/>
      <point x="447" y="592"/>
      <point x="385" y="501"/>
      <point x="319" y="421" type="curve"/>
      <point x="281" y="536"/>
      <point x="263" y="604"/>
      <point x="246" y="693" type="curve"/>
      <point x="102" y="693" type="line"/>
      <point x="124" y="604"/>
      <point x="163" y="482"/>
      <point x="207" y="367" type="curve"/>
      <point x="88" y="367" type="line"/>
      <point x="67" y="280" type="line"/>
      <point x="212" y="280" type="line"/>
      <point x="194" y="200" type="line"/>
      <point x="48" y="200" type="line"/>
      <point x="27" y="113" type="line"/>
      <point x="173" y="113" type="line"/>
    </contour>
  </outline>
</glyph>
<glyph name="brokenbar" format="2">
  <advance width="560"/>
  <unicode hex="00A6"/>
  <outline>
    <contour>
      <point x="283" y="386" type="line"/>
      <point x="421" y="386" type="line"/>
      <point x="516" y="783" type="line"/>
      <point x="379" y="783" type="line"/>
    </contour>
    <contour>
      <point x="146" y="-185" type="line"/>
      <point x="284" y="-185" type="line"/>
      <point x="379" y="212" type="line"/>
      <point x="241" y="212" type="line"/>
    </contour>
  </outline>
</glyph>
<glyph name="section" format="2">
  <advance width="560"/>
  <unicode hex="00A7"/>
  <outline>
    <contour>
      <point x="211" y="-109" type="curve" smooth="yes"/>
      <point x="379" y="-109"/>
      <point x="454" y="-20"/>
      <point x="454" y="67" type="curve" smooth="yes"/>
      <point x="454" y="96"/>
      <point x="448" y="127"/>
      <point x="422" y="153" type="curve"/>
      <point x="503" y="199"/>
      <point x="547" y="267"/>
      <point x="547" y="329" type="curve" smooth="yes"/>
      <point x="547" y="412"/>
      <point x="494" y="437"/>
      <point x="424" y="474" type="curve" smooth="yes"/>
      <point x="363" y="506"/>
      <point x="337" y="517"/>
      <point x="337" y="549" type="curve" smooth="yes"/>
      <point x="337" y="579"/>
      <point x="370" y="601"/>
      <point x="436" y="601" type="curve" smooth="yes"/>
      <point x="472" y="601"/>
      <point x="511" y="592"/>
      <point x="552" y="572" type="curve"/>
      <point x="599" y="672" type="line"/>
      <point x="556" y="696"/>
      <point x="496" y="709"/>
      <point x="438" y="709" type="curve" smooth="yes"/>
      <point x="284" y="709"/>
      <point x="206" y="631"/>
      <point x="206" y="549" type="curve" smooth="yes"/>
      <point x="206" y="519"/>
      <point x="214" y="486"/>
      <point x="235" y="463" type="curve"/>
      <point x="160" y="417"/>
      <point x="113" y="351"/>
      <point x="113" y="286" type="curve" smooth="yes"/>
      <point x="113" y="204"/>
      <point x="165" y="174"/>
      <point x="236" y="139" type="curve" smooth="yes"/>
      <point x="298" y="108"/>
      <point x="323" y="96"/>
      <point x="323" y="62" type="curve" smooth="yes"/>
      <point x="323" y="28"/>
      <point x="290" y="0"/>
      <point x="208" y="0" type="curve" smooth="yes"/>
      <point x="166" y="0"/>
      <point x="127" y="9"/>
      <point x="85" y="32" type="curve"/>
      <point x="38" y="-68" type="line"/>
      <point x="81" y="-95"/>
      <point x="148" y="-109"/>
    </contour>
    <contour>
      <point x="348" y="207" type="curve"/>
      <point x="334" y="214"/>
      <point x="318" y="222"/>
      <point x="304" y="228" type="curve" smooth="yes"/>
      <point x="258" y="250"/>
      <point x="236" y="282"/>
      <point x="236" y="310" type="curve" smooth="yes"/>
      <point x="236" y="351"/>
      <point x="265" y="382"/>
      <point x="309" y="410" type="curve"/>
      <point x="321" y="404"/>
      <point x="335" y="399"/>
      <point x="347" y="393" type="curve" smooth="yes"/>
      <point x="403" y="368"/>
      <point x="424" y="339"/>
      <point x="424" y="306" type="curve" smooth="yes"/>
      <point x="424" y="270"/>
      <point x="393" y="234"/>
    </contour>
  </outline>
</glyph>
<glyph name="dieresis" format="2">
  <advance width="560"/>
  <unicode hex="00A8"/>
  <outline>
    <contour>
      <point x="258" y="603" type="curve" smooth="yes"/>
      <point x="295" y="603"/>
      <point x="340" y="637"/>
      <point x="340" y="687" type="curve" smooth="yes"/>
      <point x="340" y="727"/>
      <point x="309" y="754"/>
      <point x="272" y="754" type="curve" smooth="yes"/>
      <point x="232" y="754"/>
      <point x="191" y="719"/>
      <point x="191" y="669" type="curve" smooth="yes"/>
      <point x="191" y="628"/>
      <point x="219" y="603"/>
    </contour>
    <contour>
      <point x="480" y="603" type="curve" smooth="yes"/>
      <point x="517" y="603"/>
      <point x="562" y="637"/>
      <point x="562" y="687" type="curve" smooth="yes"/>
      <point x="562" y="727"/>
      <point x="531" y="754"/>
      <point x="494" y="754" type="curve" smooth="yes"/>
      <point x="454" y="754"/>
      <point x="413" y="719"/>
      <point x="413" y="669" type="curve" smooth="yes"/>
      <point x="413" y="628"/>
      <point x="441" y="603"/>
    </contour>
  </outline>
</glyph>
<glyph name="copyright" format="2">
  <advance width="560"/>
  <unicode hex="00A9"/>
  <outline>
    <contour>
      <point x="323" y="-15" type="curve" smooth="yes"/>
      <point x="454" y="-15"/>
      <point x="576" y="77"/>
      <point x="576" y="259" type="curve" smooth="yes"/>
      <point x="576" y="441"/>
      <point x="454" y="532"/>
      <point x="323" y="532" type="curve" smooth="yes"/>
      <point x="193" y="532"/>
      <point x="71" y="441"/>
      <point x="71" y="259" type="curve" smooth="yes"/>
      <point x="71" y="77"/>
      <point x="193" y="-15"/>
    </contour>
    <contour>
      <point x="329" y="116" type="curve" smooth="yes"/>
      <point x="353" y="116"/>
      <point x="383" y="122"/>
      <point x="408" y="134" type="curve"/>
      <point x="389" y="194" type="line"/>
      <point x="374" y="187"/>
      <point x="354" y="184"/>
      <point x="342" y="184" type="curve" smooth="yes"/>
      <point x="296" y="184"/>
      <point x="271" y="214"/>
      <point x="271" y="261" type="curve" smooth="yes"/>
      <point x="271" y="298"/>
      <point x="290" y="334"/>
      <point x="336" y="334" type="curve" smooth="yes"/>
      <point x="351" y="334"/>
      <point x="367" y="332"/>
      <point x="383" y="325" type="curve"/>
      <point x="407" y="385" type="line"/>
      <point x="380" y="396"/>
      <point x="353" y="400"/>
      <point x="330" y="400" type="curve" smooth="yes"/>
      <point x="241" y="400"/>
      <point x="200" y="328"/>
      <point x="200" y="256" type="curve" smooth="yes"/>
      <point x="200" y="186"/>
      <point x="243" y="116"/>
    </contour>
    <contour>
      <point x="323" y="57" type="curve" smooth="yes"/>
      <point x="234" y="57"/>
      <point x="144" y="128"/>
      <point x="144" y="260" type="curve" smooth="yes"/>
      <point x="144" y="389"/>
      <point x="233" y="461"/>
      <point x="323" y="461" type="curve" smooth="yes"/>
      <point x="411" y="461"/>
      <point x="500" y="389"/>
      <point x="500" y="260" type="curve" smooth="yes"/>
      <point x="500" y="128"/>
      <point x="410" y="57"/>
    </contour>
  </outline>
</glyph>
<glyph name="ordfeminine" format="2">
  <advance width="560"/>
  <unicode hex="00AA"/>
  <outline>
    <contour>
      <point x="323" y="305" type="curve" smooth="yes"/>
      <point x="358" y="305"/>
      <point x="393" y="317"/>
      <point x="428" y="340" type="curve"/>
      <point x="432" y="330"/>
      <point x="437" y="319"/>
      <point x="441" y="309" type="curve"/>
      <point x="535" y="323" type="line"/>
      <point x="506" y="398"/>
      <point x="517" y="458"/>
      <point x="529" y="504" type="curve" smooth="yes"/>
      <point x="573" y="690" type="line"/>
      <point x="526" y="703"/>
      <point x="484" y="708"/>
      <point x="445" y="708" type="curve" smooth="yes"/>
      <point x="265" y="708"/>
      <point x="181" y="579"/>
      <point x="181" y="467" type="curve" smooth="yes"/>
      <point x="181" y="381"/>
      <point x="230" y="305"/>
    </contour>
    <contour>
      <point x="351" y="405" type="curve" smooth="yes"/>
      <point x="307" y="405"/>
      <point x="287" y="438"/>
      <point x="287" y="478" type="curve" smooth="yes"/>
      <point x="287" y="558"/>
      <point x="348" y="609"/>
      <point x="420" y="609" type="curve" smooth="yes"/>
      <point x="428" y="609"/>
      <point x="437" y="608"/>
      <point x="446" y="607" type="curve"/>
      <point x="419" y="503" type="line" smooth="yes"/>
      <point x="412" y="475"/>
      <point x="407" y="449"/>
      <point x="410" y="427" type="curve"/>
      <point x="389" y="411"/>
      <point x="370" y="405"/>
    </contour>
  </outline>
</glyph>
<glyph name="guillemetleft" format="2">
  <advance width="560"/>
  <unicode hex="00AB"/>
  <outline>
    <contour>
      <point x="433" y="52" type="line"/>
      <point x="511" y="92" type="line"/>
      <point x="446" y="281" type="line"/>
      <point x="588" y="468" type="line"/>
      <point x="519" y="519" type="line"/>
      <point x="324" y="290" type="line"/>
    </contour>
    <contour>
      <point x="209" y="52" type="line"/>
      <point x="287" y="92" type="line"/>
      <point x="222" y="281" type="line"/>
      <point x="364" y="468" type="line"/>
      <point x="295" y="519" type="line"/>
      <point x="100" y="290" type="line"/>
    </contour>
  </outline>
</glyph>
<glyph name="guillemotleft" format="2">
  <advance width="560"/>
  <unicode hex="00AB"/>
  <outline>
    <contour>
      <point x="433" y="52" type="line"/>
      <point x="511" y="92" type="line"/>
      <point x="446" y="281" type="line"/>
      <point x="588" y="468" type="line"/>
      <point x="519" y="519" type="line"/>
      <point x="324" y="290" type="line"/>
    </contour>
    <contour>
      <point x="209" y="52" type="line"/>
      <point x="287" y="92" type="line"/>
      <point x="222" y="281" type="line"/>
      <point x="364" y="468" type="line"/>
      <point x="295" y="519" type="line"/>
      <point x="100" y="290" type="line"/>
    </contour>
  </outline>
</glyph>
<glyph name="logicalnot" format="2">
  <advance width="560"/>
  <unicode hex="00AC"/>
  <outline>
    <contour>
      <point x="374" y="47" type="line"/>
      <point x="492" y="47" type="line"/>
      <point x="578" y="407" type="line"/>
      <point x="127" y="407" type="line"/>
      <point x="99" y="292" type="line"/>
      <point x="433" y="292" type="line"/>
    </contour>
  </outline>
</glyph>
<glyph name="registered" format="2">
  <advance width="500"/>
  <unicode hex="00AE"/>
  <outline>
    <contour>
      <point x="288" y="-13" type="curve" smooth="yes"/>
      <point x="405" y="-13"/>
      <point x="514" y="69"/>
      <point x="514" y="231" type="curve" smooth="yes"/>
      <point x="514" y="394"/>
      <point x="405" y="475"/>
      <point x="288" y="475" type="curve" smooth="yes"/>
      <point x="172" y="475"/>
      <point x="63" y="394"/>
      <point x="63" y="231" type="curve" smooth="yes"/>
      <point x="63" y="69"/>
      <point x="172" y="-13"/>
    </contour>
    <contour>
      <point x="288" y="51" type="curve" smooth="yes"/>
      <point x="209" y="51"/>
      <point x="129" y="114"/>
      <point x="129" y="232" type="curve" smooth="yes"/>
      <point x="129" y="347"/>
      <point x="208" y="412"/>
      <point x="288" y="412" type="curve" smooth="yes"/>
      <point x="367" y="412"/>
      <point x="446" y="347"/>
      <point x="446" y="232" type="curve" smooth="yes"/>
      <point x="446" y="114"/>
      <point x="366" y="51"/>
    </contour>
    <contour>
      <point x="204" y="110" type="line"/>
      <point x="257" y="110" type="line"/>
      <point x="257" y="187" type="line"/>
      <point x="294" y="187" type="line"/>
      <point x="306" y="166"/>
      <point x="320" y="142"/>
      <point x="337" y="110" type="curve"/>
      <point x="394" y="110" type="line"/>
      <point x="377" y="144"/>
      <point x="358" y="178"/>
      <point x="343" y="200" type="curve"/>
      <point x="369" y="215"/>
      <point x="382" y="238"/>
      <point x="382" y="271" type="curve" smooth="yes"/>
      <point x="382" y="326"/>
      <point x="346" y="357"/>
      <point x="271" y="357" type="curve" smooth="yes"/>
      <point x="246" y="357"/>
      <point x="221" y="353"/>
      <point x="204" y="348" type="curve"/>
    </contour>
    <contour>
      <point x="257" y="237" type="line"/>
      <point x="257" y="305" type="line"/>
      <point x="263" y="306"/>
      <point x="271" y="307"/>
      <point x="280" y="307" type="curve" smooth="yes"/>
      <point x="303" y="307"/>
      <point x="329" y="301"/>
      <point x="329" y="274" type="curve" smooth="yes"/>
      <point x="329" y="244"/>
      <point x="312" y="237"/>
      <point x="276" y="237" type="curve" smooth="yes"/>
    </contour>
  </outline>
</glyph>
<glyph name="macron" format="2">
  <advance width="560"/>
  <unicode hex="00AF"/>
  <outline>
    <contour>
      <point x="240" y="627" type="line"/>
      <point x="562" y="627" type="line"/>
      <point x="586" y="725" type="line"/>
      <point x="264" y="725" type="line"/>
    </contour>
  </outline>
</glyph>
<glyph name="degree" format="2">
  <advance width="560"/>
  <unicode hex="00B0"/>
  <outline>
    <contour>
      <point x="390" y="472" type="curve" smooth="yes"/>
      <point x="483" y="472"/>
      <point x="551" y="530"/>
      <point x="551" y="626" type="curve" smooth="yes"/>
      <point x="551" y="722"/>
      <point x="483" y="782"/>
      <point x="390" y="782" type="curve" smooth="yes"/>
      <point x="295" y="782"/>
      <point x="228" y="722"/>
      <point x="228" y="626" type="curve" smooth="yes"/>
      <point x="228" y="530"/>
      <point x="293" y="472"/>
    </contour>
    <contour>
      <point x="390" y="566" type="curve" smooth="yes"/>
      <point x="356" y="566"/>
      <point x="329" y="586"/>
      <point x="329" y="627" type="curve" smooth="yes"/>
      <point x="329" y="669"/>
      <point x="357" y="688"/>
      <point x="390" y="688" type="curve" smooth="yes"/>
      <point x="426" y="688"/>
      <point x="451" y="669"/>
      <point x="451" y="627" type="curve" smooth="yes"/>
      <point x="451" y="586"/>
      <point x="426" y="566"/>
    </contour>
  </outline>
</glyph>
<glyph name="plusminus" format="2">
  <advance width="560"/>
  <unicode hex="00B1"/>
  <outline>
    <contour>
      <point x="239" y="160" type="line"/>
      <point x="357" y="160" type="line"/>
      <point x="400" y="336" type="line"/>
      <point x="576" y="336" type="line"/>
      <point x="603" y="450" type="line"/>
      <point x="427" y="450" type="line"/>
      <point x="468" y="625" type="line"/>
      <point x="349" y="625" type="line"/>
      <point x="308" y="450" type="line"/>
      <point x="132" y="450" type="line"/>
      <point x="105" y="336" type="line"/>
      <point x="281" y="336" type="line"/>
    </contour>
    <contour>
      <point x="26" y="0" type="line"/>
      <point x="495" y="0" type="line"/>
      <point x="522" y="114" type="line"/>
      <point x="53" y="114" type="line"/>
    </contour>
  </outline>
</glyph>
<glyph name="threesuperior" format="2">
  <advance width="560"/>
  <unicode hex="00B3"/>
  <outline>
    <contour>
      <point x="328" y="293" type="curve" smooth="yes"/>
      <point x="420" y="293"/>
      <point x="513" y="332"/>
      <point x="513" y="431" type="curve" smooth="yes"/>
      <point x="513" y="467"/>
      <point x="494" y="500"/>
      <point x="465" y="514" type="curve"/>
      <point x="508" y="533"/>
      <point x="531" y="575"/>
      <point x="531" y="613" type="curve" smooth="yes"/>
      <point x="531" y="687"/>
      <point x="476" y="709"/>
      <point x="412" y="709" type="curve" smooth="yes"/>
      <point x="360" y="709"/>
      <point x="301" y="692"/>
      <point x="268" y="675" type="curve"/>
      <point x="289" y="595" type="line"/>
      <point x="316" y="608"/>
      <point x="353" y="622"/>
      <point x="386" y="622" type="curve" smooth="yes"/>
      <point x="418" y="622"/>
      <point x="432" y="607"/>
      <point x="432" y="591" type="curve" smooth="yes"/>
      <point x="432" y="568"/>
      <point x="408" y="544"/>
      <point x="365" y="544" type="curve" smooth="yes"/>
      <point x="320" y="544" type="line"/>
      <point x="300" y="467" type="line"/>
      <point x="351" y="467" type="line" smooth="yes"/>
      <point x="395" y="467"/>
      <point x="414" y="454"/>
      <point x="414" y="431" type="curve" smooth="yes"/>
      <point x="414" y="396"/>
      <point x="377" y="383"/>
      <point x="334" y="383" type="curve" smooth="yes"/>
      <point x="295" y="383"/>
      <point x="253" y="394"/>
      <point x="228" y="410" type="curve"/>
      <point x="188" y="326" type="line"/>
      <point x="223" y="305"/>
      <point x="276" y="293"/>
    </contour>
  </outline>
</glyph>
<glyph name="acute" format="2">
  <advance width="560"/>
  <unicode hex="00B4"/>
  <outline>
    <contour>
      <point x="360" y="567" type="line"/>
      <point x="554" y="669" type="line"/>
      <point x="486" y="774" type="line"/>
      <point x="309" y="642" type="line"/>
    </contour>
  </outline>
</glyph>
<glyph name="micro" format="2">
  <advance width="560"/>
  <unicode hex="00B5"/>
  <outline>
    <contour>
      <point x="1" y="-185" type="line"/>
      <point x="136" y="-185" type="line"/>
      <point x="158" y="-92" type="line" smooth="yes"/>
      <point x="167" y="-53"/>
      <point x="172" y="-24"/>
      <point x="174" y="16" type="curve"/>
      <point x="193" y="0"/>
      <point x="226" y="-12"/>
      <point x="264" y="-12" type="curve" smooth="yes"/>
      <point x="319" y="-12"/>
      <point x="364" y="15"/>
      <point x="393" y="40" type="curve"/>
      <point x="413" y="9"/>
      <point x="442" y="-10"/>
      <point x="510" y="-11" type="curve"/>
      <point x="549" y="102" type="line"/>
      <point x="519" y="108"/>
      <point x="505" y="122"/>
      <point x="505" y="150" type="curve" smooth="yes"/>
      <point x="505" y="169"/>
      <point x="510" y="195"/>
      <point x="517" y="223" type="curve"/>
      <point x="590" y="526" type="line"/>
      <point x="454" y="526" type="line"/>
      <point x="379" y="216" type="line" smooth="yes"/>
      <point x="373" y="192"/>
      <point x="370" y="165"/>
      <point x="374" y="141" type="curve"/>
      <point x="354" y="127"/>
      <point x="328" y="108"/>
      <point x="287" y="108" type="curve" smooth="yes"/>
      <point x="243" y="108"/>
      <point x="228" y="134"/>
      <point x="228" y="171" type="curve" smooth="yes"/>
      <point x="228" y="202"/>
      <point x="239" y="241"/>
      <point x="248" y="274" type="curve" smooth="yes"/>
      <point x="308" y="526" type="line"/>
      <point x="171" y="526" type="line"/>
    </contour>
  </outline>
</glyph>
<glyph name="mu" format="2">
  <advance width="500"/>
  <unicode hex="00B5"/>
  <outline>
    <contour>
      <point x="1" y="-165" type="line"/>
      <point x="121" y="-165" type="line"/>
      <point x="141" y="-82" type="line" smooth="yes"/>
      <point x="149" y="-47"/>
      <point x="154" y="-21"/>
      <point x="155" y="14" type="curve"/>
      <point x="172" y="0"/>
      <point x="202" y="-11"/>
      <point x="236" y="-11" type="curve" smooth="yes"/>
      <point x="285" y="-11"/>
      <point x="325" y="13"/>
      <point x="351" y="36" type="curve"/>
      <point x="369" y="8"/>
      <point x="395" y="-9"/>
      <point x="455" y="-10" type="curve"/>
      <point x="490" y="91" type="line"/>
      <point x="463" y="96"/>
      <point x="451" y="109"/>
      <point x="451" y="134" type="curve" smooth="yes"/>
      <point x="451" y="151"/>
      <point x="455" y="174"/>
      <point x="462" y="199" type="curve"/>
      <point x="527" y="470" type="line"/>
      <point x="405" y="470" type="line"/>
      <point x="338" y="193" type="line" smooth="yes"/>
      <point x="333" y="171"/>
      <point x="330" y="147"/>
      <point x="334" y="126" type="curve"/>
      <point x="316" y="113"/>
      <point x="293" y="96"/>
      <point x="256" y="96" type="curve" smooth="yes"/>
      <point x="217" y="96"/>
      <point x="204" y="120"/>
      <point x="204" y="153" type="curve" smooth="yes"/>
      <point x="204" y="180"/>
      <point x="213" y="215"/>
      <point x="221" y="245" type="curve" smooth="yes"/>
      <point x="275" y="470" type="line"/>
      <point x="153" y="470" type="line"/>
    </contour>
  </outline>
</glyph>
<glyph name="paragraph" format="2">
  <advance width="560"/>
  <unicode hex="00B6"/>
  <outline>
    <contour>
      <point x="128" y="-185" type="line"/>
      <point x="242" y="-185" type="line"/>
      <point x="427" y="587" type="line"/>
      <point x="436" y="588"/>
      <point x="446" y="588"/>
      <point x="456" y="588" type="curve" smooth="yes"/>
      <point x="482" y="588"/>
      <point x="506" y="586"/>
      <point x="516" y="585" type="curve"/>
      <point x="332" y="-185" type="line"/>
      <point x="445" y="-185" type="line"/>
      <point x="652" y="678" type="line"/>
      <point x="599" y="692"/>
      <point x="521" y="701"/>
      <point x="450" y="701" type="curve" smooth="yes"/>
      <point x="267" y="701"/>
      <point x="104" y="599"/>
      <point x="104" y="416" type="curve" smooth="yes"/>
      <point x="104" y="336"/>
      <point x="148" y="278"/>
      <point x="235" y="260" type="curve"/>
    </contour>
  </outline>
</glyph>
<glyph name="cedilla" format="2">
  <advance width="560"/>
  <unicode hex="00B8"/>
  <outline>
    <contour>
      <point x="237" y="-190" type="curve" smooth="yes"/>
      <point x="317" y="-190"/>
      <point x="375" y="-155"/>
      <point x="375" y="-94" type="curve" smooth="yes"/>
      <point x="375" y="-67"/>
      <point x="363" y="-45"/>
      <point x="330" y="-28" type="curve"/>
      <point x="342" y="-11"/>
      <point x="353" y="6"/>
      <point x="364" y="20" type="curve"/>
      <point x="272" y="20" type="line"/>
      <point x="255" y="-2"/>
      <point x="242" y="-20"/>
      <point x="224" y="-48" type="curve"/>
      <point x="268" y="-59"/>
      <point x="273" y="-74"/>
      <point x="273" y="-90" type="curve" smooth="yes"/>
      <point x="273" y="-100"/>
      <point x="264" y="-118"/>
      <point x="231" y="-118" type="curve" smooth="yes"/>
      <point x="211" y="-118"/>
      <point x="187" y="-112"/>
      <point x="170" y="-103" type="curve"/>
      <point x="141" y="-168" type="line"/>
      <point x="169" y="-183"/>
      <point x="202" y="-190"/>
    </contour>
  </outline>
</glyph>
<glyph name="onesuperior" format="2">
  <advance width="500"/>
  <unicode hex="00B9"/>
  <outline>
    <contour>
      <point x="156" y="270" type="line"/>
      <point x="433" y="270" type="line"/>
      <point x="453" y="351" type="line"/>
      <point x="372" y="351" type="line"/>
      <point x="438" y="626" type="line"/>
      <point x="361" y="626" type="line"/>
      <point x="319" y="598"/>
      <point x="265" y="572"/>
      <point x="209" y="552" type="curve"/>
      <point x="219" y="474" type="line"/>
      <point x="257" y="488"/>
      <point x="283" y="497"/>
      <point x="309" y="511" type="curve"/>
      <point x="271" y="351" type="line"/>
      <point x="176" y="351" type="line"/>
    </contour>
  </outline>
</glyph>
<glyph name="ordmasculine" format="2">
  <advance width="560"/>
  <unicode hex="00BA"/>
  <outline>
    <contour>
      <point x="345" y="306" type="curve" smooth="yes"/>
      <point x="495" y="306"/>
      <point x="573" y="435"/>
      <point x="573" y="567" type="curve" smooth="yes"/>
      <point x="573" y="654"/>
      <point x="526" y="709"/>
      <point x="422" y="709" type="curve" smooth="yes"/>
      <point x="272" y="709"/>
      <point x="194" y="581"/>
      <point x="194" y="448" type="curve" smooth="yes"/>
      <point x="194" y="361"/>
      <point x="241" y="306"/>
    </contour>
    <contour>
      <point x="356" y="396" type="curve" smooth="yes"/>
      <point x="327" y="396"/>
      <point x="298" y="407"/>
      <point x="298" y="456" type="curve" smooth="yes"/>
      <point x="298" y="548"/>
      <point x="352" y="619"/>
      <point x="411" y="619" type="curve" smooth="yes"/>
      <point x="440" y="619"/>
      <point x="469" y="608"/>
      <point x="469" y="559" type="curve" smooth="yes"/>
      <point x="469" y="467"/>
      <point x="416" y="396"/>
    </contour>
  </outline>
</glyph>
<glyph name="guillemetright" format="2">
  <advance width="560"/>
  <unicode hex="00BB"/>
  <outline>
    <contour>
      <point x="366" y="52" type="line"/>
      <point x="560" y="280" type="line"/>
      <point x="451" y="519" type="line"/>
      <point x="373" y="478" type="line"/>
      <point x="438" y="289" type="line"/>
      <point x="296" y="102" type="line"/>
    </contour>
    <contour>
      <point x="142" y="52" type="line"/>
      <point x="336" y="280" type="line"/>
      <point x="227" y="519" type="line"/>
      <point x="149" y="478" type="line"/>
      <point x="214" y="289" type="line"/>
      <point x="72" y="102" type="line"/>
    </contour>
  </outline>
</glyph>
<glyph name="guillemotright" format="2">
  <advance width="500"/>
  <unicode hex="00BB"/>
  <outline>
    <contour>
      <point x="327" y="46" type="line"/>
      <point x="500" y="250" type="line"/>
      <point x="403" y="463" type="line"/>
      <point x="333" y="427" type="line"/>
      <point x="391" y="258" type="line"/>
      <point x="264" y="91" type="line"/>
    </contour>
    <contour>
      <point x="127" y="46" type="line"/>
      <point x="300" y="250" type="line"/>
      <point x="203" y="463" type="line"/>
      <point x="133" y="427" type="line"/>
      <point x="191" y="258" type="line"/>
      <point x="64" y="91" type="line"/>
    </contour>
  </outline>
</glyph>
<glyph name="onequarter" format="2">
  <advance width="560"/>
  <unicode hex="00BC"/>
  <outline>
    <contour>
      <point x="-27" y="0" type="line"/>
      <point x="80" y="0" type="line"/>
      <point x="601" y="693" type="line"/>
      <point x="492" y="693" type="line"/>
    </contour>
    <contour>
      <point x="369" y="0" type="line"/>
      <point x="450" y="0" type="line"/>
      <point x="461" y="44" type="line"/>
      <point x="501" y="44" type="line"/>
      <point x="517" y="111" type="line"/>
      <point x="477" y="111" type="line"/>
      <point x="517" y="280" type="line"/>
      <point x="405" y="280" type="line"/>
      <point x="339" y="212"/>
      <point x="303" y="167"/>
      <point x="250" y="99" type="curve"/>
      <point x="237" y="44" type="line"/>
      <point x="380" y="44" type="line"/>
    </contour>
    <contour>
      <point x="337" y="111" type="line"/>
      <point x="360" y="140"/>
      <point x="391" y="180"/>
      <point x="421" y="211" type="curve"/>
      <point x="396" y="111" type="line"/>
    </contour>
    <contour>
      <point x="130" y="421" type="line"/>
      <point x="227" y="421" type="line"/>
      <point x="295" y="701" type="line"/>
      <point x="225" y="701" type="line"/>
      <point x="179" y="668"/>
      <point x="141" y="646"/>
      <point x="85" y="624" type="curve"/>
      <point x="90" y="558" type="line"/>
      <point x="119" y="566"/>
      <point x="139" y="573"/>
      <point x="172" y="589" type="curve"/>
    </contour>
  </outline>
</glyph>
<glyph name="onehalf" format="2">
  <advance width="560"/>
  <unicode hex="00BD"/>
  <outline>
    <contour>
      <point x="-29" y="0" type="line"/>
      <point x="78" y="0" type="line"/>
      <point x="599" y="693" type="line"/>
      <point x="491" y="693" type="line"/>
    </contour>
    <contour>
      <point x="258" y="0" type="curve"/>
      <point x="483" y="0" type="line"/>
      <point x="500" y="69" type="line"/>
      <point x="377" y="69" type="line"/>
      <point x="389" y="80"/>
      <point x="413" y="91"/>
      <point x="431" y="100" type="curve" smooth="yes"/>
      <point x="478" y="123"/>
      <point x="519" y="149"/>
      <point x="519" y="211" type="curve" smooth="yes"/>
      <point x="519" y="258"/>
      <point x="490" y="290"/>
      <point x="427" y="290" type="curve" smooth="yes"/>
      <point x="379" y="290"/>
      <point x="331" y="269"/>
      <point x="301" y="237" type="curve"/>
      <point x="332" y="179" type="line"/>
      <point x="356" y="198"/>
      <point x="381" y="212"/>
      <point x="405" y="212" type="curve" smooth="yes"/>
      <point x="421" y="212"/>
      <point x="432" y="205"/>
      <point x="432" y="192" type="curve" smooth="yes"/>
      <point x="432" y="170"/>
      <point x="408" y="158"/>
      <point x="353" y="130" type="curve" smooth="yes"/>
      <point x="294" y="100"/>
      <point x="262" y="71"/>
    </contour>
    <contour>
      <point x="130" y="421" type="line"/>
      <point x="227" y="421" type="line"/>
      <point x="295" y="701" type="line"/>
      <point x="225" y="701" type="line"/>
      <point x="179" y="668"/>
      <point x="141" y="646"/>
      <point x="85" y="624" type="curve"/>
      <point x="90" y="558" type="line"/>
      <point x="119" y="566"/>
      <point x="139" y="573"/>
      <point x="172" y="589" type="curve"/>
    </contour>
  </outline>
</glyph>
<glyph name="threequarters" format="2">
  <advance width="560"/>
  <unicode hex="00BE"/>
  <outline>
    <contour>
      <point x="36" y="0" type="line"/>
      <point x="143" y="0" type="line"/>
      <point x="664" y="693" type="line"/>
      <point x="556" y="693" type="line"/>
    </contour>
    <contour>
      <point x="411" y="0" type="line"/>
      <point x="492" y="0" type="line"/>
      <point x="503" y="44" type="line"/>
      <point x="543" y="44" type="line"/>
      <point x="559" y="111" type="line"/>
      <point x="519" y="111" type="line"/>
      <point x="559" y="280" type="line"/>
      <point x="447" y="280" type="line"/>
      <point x="381" y="212"/>
      <point x="345" y="167"/>
      <point x="292" y="99" type="curve"/>
      <point x="279" y="44" type="line"/>
      <point x="422" y="44" type="line"/>
    </contour>
    <contour>
      <point x="379" y="111" type="line"/>
      <point x="402" y="140"/>
      <point x="433" y="180"/>
      <point x="463" y="211" type="curve"/>
      <point x="438" y="111" type="line"/>
    </contour>
    <contour>
      <point x="207" y="411" type="curve" smooth="yes"/>
      <point x="274" y="411"/>
      <point x="353" y="440"/>
      <point x="353" y="517" type="curve" smooth="yes"/>
      <point x="353" y="540"/>
      <point x="343" y="560"/>
      <point x="310" y="571" type="curve"/>
      <point x="351" y="594"/>
      <point x="363" y="615"/>
      <point x="363" y="647" type="curve" smooth="yes"/>
      <point x="363" y="680"/>
      <point x="336" y="709"/>
      <point x="267" y="709" type="curve" smooth="yes"/>
      <point x="223" y="709"/>
      <point x="176" y="697"/>
      <point x="150" y="681" type="curve"/>
      <point x="164" y="620" type="line"/>
      <point x="179" y="628"/>
      <point x="213" y="641"/>
      <point x="242" y="641" type="curve" smooth="yes"/>
      <point x="261" y="641"/>
      <point x="274" y="635"/>
      <point x="274" y="622" type="curve" smooth="yes"/>
      <point x="274" y="598"/>
      <point x="240" y="594"/>
      <point x="215" y="594" type="curve" smooth="yes"/>
      <point x="189" y="594" type="line"/>
      <point x="175" y="535" type="line"/>
      <point x="197" y="535" type="line" smooth="yes"/>
      <point x="237" y="535"/>
      <point x="258" y="529"/>
      <point x="258" y="511" type="curve" smooth="yes"/>
      <point x="258" y="482"/>
      <point x="220" y="482"/>
      <point x="199" y="482" type="curve" smooth="yes"/>
      <point x="169" y="482"/>
      <point x="140" y="491"/>
      <point x="125" y="498" type="curve"/>
      <point x="95" y="432" type="line"/>
      <point x="116" y="421"/>
      <point x="150" y="411"/>
    </contour>
  </outline>
</glyph>
<glyph name="questiondown" format="2">
  <advance width="560"/>
  <unicode hex="00BF"/>
  <outline>
    <contour>
      <point x="197" y="-190" type="curve" smooth="yes"/>
      <point x="268" y="-190"/>
      <point x="334" y="-171"/>
      <point x="395" y="-139" type="curve"/>
      <point x="378" y="-32" type="line"/>
      <point x="320" y="-58"/>
      <point x="284" y="-75"/>
      <point x="235" y="-75" type="curve" smooth="yes"/>
      <point x="188" y="-75"/>
      <point x="164" y="-56"/>
      <point x="164" y="-24" type="curve" smooth="yes"/>
      <point x="164" y="22"/>
      <point x="188" y="39"/>
      <point x="259" y="92" type="curve"/>
      <point x="343" y="151"/>
      <point x="374" y="198"/>
      <point x="385" y="267" type="curve"/>
      <point x="257" y="267" type="line"/>
      <point x="238" y="209"/>
      <point x="213" y="192"/>
      <point x="145" y="142" type="curve" smooth="yes"/>
      <point x="71" y="91"/>
      <point x="15" y="43"/>
      <point x="15" y="-47" type="curve" smooth="yes"/>
      <point x="15" y="-127"/>
      <point x="66" y="-190"/>
    </contour>
    <contour>
      <point x="340" y="339" type="curve" smooth="yes"/>
      <point x="391" y="339"/>
      <point x="441" y="381"/>
      <point x="441" y="442" type="curve" smooth="yes"/>
      <point x="441" y="497"/>
      <point x="404" y="526"/>
      <point x="358" y="526" type="curve" smooth="yes"/>
      <point x="305" y="526"/>
      <point x="257" y="482"/>
      <point x="257" y="422" type="curve" smooth="yes"/>
      <point x="257" y="367"/>
      <point x="293" y="339"/>
    </contour>
  </outline>
</glyph>
<glyph name="Aring" format="2">
  <advance width="560"/>
  <unicode hex="00C5"/>
  <outline>
    <contour>
      <point x="-7" y="0" type="curve"/>
      <point x="133" y="0" type="line"/>
      <point x="155" y="57"/>
      <point x="179" y="111"/>
      <point x="202" y="161" type="curve"/>
      <point x="399" y="161" type="line"/>
      <point x="394" y="0" type="line"/>
      <point x="533" y="0" type="line"/>
      <point x="535" y="254"/>
      <point x="520" y="475"/>
      <point x="498" y="671" type="curve"/>
      <point x="529" y="689"/>
      <point x="549" y="721"/>
      <point x="549" y="767" type="curve" smooth="yes"/>
      <point x="549" y="842"/>
      <point x="494" y="883"/>
      <point x="430" y="883" type="curve" smooth="yes"/>
      <point x="370" y="883"/>
      <point x="314" y="842"/>
      <point x="314" y="767" type="curve" smooth="yes"/>
      <point x="314" y="732"/>
      <point x="326" y="704"/>
      <point x="345" y="685" type="curve"/>
      <point x="235" y="505"/>
      <point x="118" y="271"/>
    </contour>
    <contour>
      <point x="253" y="272" type="line"/>
      <point x="323" y="426"/>
      <point x="355" y="488"/>
      <point x="394" y="562" type="curve"/>
      <point x="398" y="489"/>
      <point x="404" y="426"/>
      <point x="401" y="272" type="curve"/>
    </contour>
    <contour>
      <point x="430" y="720" type="curve" smooth="yes"/>
      <point x="408" y="720"/>
      <point x="385" y="737"/>
      <point x="385" y="767" type="curve" smooth="yes"/>
      <point x="385" y="799"/>
      <point x="408" y="814"/>
      <point x="430" y="814" type="curve" smooth="yes"/>
      <point x="455" y="814"/>
      <point x="476" y="799"/>
      <point x="476" y="767" type="curve" smooth="yes"/>
      <point x="476" y="737"/>
      <point x="455" y="720"/>
    </contour>
  </outline>
</glyph>
<glyph name="AE" format="2">
  <advance width="560"/>
  <unicode hex="00C6"/>
  <outline>
    <contour>
      <point x="-15" y="0" type="curve"/>
      <point x="123" y="0" type="line"/>
      <point x="193" y="161" type="line"/>
      <point x="304" y="161" type="line"/>
      <point x="265" y="0" type="line"/>
      <point x="528" y="0" type="line"/>
      <point x="554" y="114" type="line"/>
      <point x="413" y="114" type="line"/>
      <point x="460" y="309" type="line"/>
      <point x="560" y="309" type="line"/>
      <point x="587" y="423" type="line"/>
      <point x="487" y="423" type="line"/>
      <point x="525" y="579" type="line"/>
      <point x="651" y="579" type="line"/>
      <point x="678" y="693" type="line"/>
      <point x="357" y="693" type="line"/>
      <point x="215" y="469"/>
      <point x="138" y="317"/>
    </contour>
    <contour>
      <point x="243" y="272" type="line"/>
      <point x="300" y="396"/>
      <point x="352" y="501"/>
      <point x="409" y="600" type="curve"/>
      <point x="330" y="272" type="line"/>
    </contour>
  </outline>
</glyph>
<glyph name="Ccedilla" format="2">
  <advance width="560"/>
  <unicode hex="00C7"/>
  <outline>
    <contour>
      <point x="243" y="-190" type="curve" smooth="yes"/>
      <point x="323" y="-190"/>
      <point x="381" y="-155"/>
      <point x="381" y="-94" type="curve" smooth="yes"/>
      <point x="381" y="-67"/>
      <point x="368" y="-45"/>
      <point x="336" y="-28" type="curve"/>
      <point x="339" y="-22"/>
      <point x="342" y="-18"/>
      <point x="345" y="-13" type="curve"/>
      <point x="420" y="-10"/>
      <point x="482" y="12"/>
      <point x="516" y="34" type="curve"/>
      <point x="501" y="144" type="line"/>
      <point x="470" y="127"/>
      <point x="426" y="106"/>
      <point x="357" y="106" type="curve" smooth="yes"/>
      <point x="267" y="106"/>
      <point x="237" y="164"/>
      <point x="237" y="243" type="curve" smooth="yes"/>
      <point x="237" y="398"/>
      <point x="309" y="589"/>
      <point x="456" y="589" type="curve" smooth="yes"/>
      <point x="517" y="589"/>
      <point x="557" y="571"/>
      <point x="586" y="549" type="curve"/>
      <point x="637" y="655" type="line"/>
      <point x="622" y="669"/>
      <point x="566" y="709"/>
      <point x="470" y="709" type="curve" smooth="yes"/>
      <point x="220" y="709"/>
      <point x="99" y="455"/>
      <point x="99" y="230" type="curve" smooth="yes"/>
      <point x="99" y="105"/>
      <point x="149" y="17"/>
      <point x="256" y="-8" type="curve"/>
      <point x="248" y="-21"/>
      <point x="239" y="-35"/>
      <point x="230" y="-48" type="curve"/>
      <point x="274" y="-60"/>
      <point x="279" y="-74"/>
      <point x="279" y="-90" type="curve" smooth="yes"/>
      <point x="279" y="-100"/>
      <point x="270" y="-118"/>
      <point x="236" y="-118" type="curve" smooth="yes"/>
      <point x="216" y="-118"/>
      <point x="193" y="-112"/>
      <point x="176" y="-103" type="curve"/>
      <point x="147" y="-168" type="line"/>
      <point x="175" y="-183"/>
      <point x="207" y="-190"/>
    </contour>
  </outline>
</glyph>
<glyph name="Eth" format="2">
  <advance width="560"/>
  <unicode hex="00D0"/>
  <outline>
    <contour>
      <point x="213" y="-9" type="curve" smooth="yes"/>
      <point x="484" y="-9"/>
      <point x="592" y="218"/>
      <point x="592" y="458" type="curve" smooth="yes"/>
      <point x="592" y="613"/>
      <point x="500" y="701"/>
      <point x="363" y="701" type="curve" smooth="yes"/>
      <point x="318" y="701"/>
      <point x="274" y="698"/>
      <point x="218" y="684" type="curve"/>
      <point x="153" y="417" type="line"/>
      <point x="90" y="417" type="line"/>
      <point x="62" y="302" type="line"/>
      <point x="127" y="302" type="line"/>
      <point x="56" y="8" type="line"/>
      <point x="108" y="-4"/>
      <point x="164" y="-9"/>
    </contour>
    <contour>
      <point x="237" y="111" type="curve" smooth="yes"/>
      <point x="234" y="111"/>
      <point x="223" y="111"/>
      <point x="216" y="112" type="curve"/>
      <point x="262" y="302" type="line"/>
      <point x="330" y="302" type="line"/>
      <point x="358" y="417" type="line"/>
      <point x="290" y="417" type="line"/>
      <point x="328" y="580" type="line"/>
      <point x="337" y="581"/>
      <point x="348" y="581"/>
      <point x="361" y="581" type="curve" smooth="yes"/>
      <point x="435" y="581"/>
      <point x="455" y="526"/>
      <point x="455" y="454" type="curve" smooth="yes"/>
      <point x="455" y="309"/>
      <point x="398" y="111"/>
    </contour>
  </outline>
</glyph>
<glyph name="multiply" format="2">
  <advance width="560"/>
  <unicode hex="00D7"/>
  <outline>
    <contour>
      <point x="109" y="74" type="line"/>
      <point x="281" y="213" type="line"/>
      <point x="386" y="74" type="line"/>
      <point x="484" y="151" type="line"/>
      <point x="377" y="290" type="line"/>
      <point x="553" y="433" type="line"/>
      <point x="487" y="521" type="line"/>
      <point x="310" y="377" type="line"/>
      <point x="200" y="521" type="line"/>
      <point x="104" y="444" type="line"/>
      <point x="213" y="299" type="line"/>
      <point x="42" y="161" type="line"/>
    </contour>
  </outline>
</glyph>
<glyph name="Oslash" format="2">
  <advance width="560"/>
  <unicode hex="00D8"/>
  <outline>
    <contour>
      <point x="91" y="-45" type="line"/>
      <point x="127" y="9" type="line"/>
      <point x="155" y="-6"/>
      <point x="189" y="-15"/>
      <point x="228" y="-15" type="curve" smooth="yes"/>
      <point x="487" y="-15"/>
      <point x="563" y="318"/>
      <point x="563" y="494" type="curve" smooth="yes"/>
      <point x="563" y="543"/>
      <point x="552" y="586"/>
      <point x="533" y="622" type="curve"/>
      <point x="580" y="693" type="line"/>
      <point x="499" y="738" type="line"/>
      <point x="465" y="687" type="line"/>
      <point x="438" y="701"/>
      <point x="405" y="709"/>
      <point x="369" y="709" type="curve" smooth="yes"/>
      <point x="110" y="709"/>
      <point x="33" y="376"/>
      <point x="33" y="200" type="curve" smooth="yes"/>
      <point x="33" y="151"/>
      <point x="43" y="110"/>
      <point x="62" y="76" type="curve"/>
      <point x="12" y="0" type="line"/>
    </contour>
    <contour>
      <point x="244" y="99" type="curve" smooth="yes"/>
      <point x="225" y="99"/>
      <point x="207" y="106"/>
      <point x="197" y="115" type="curve"/>
      <point x="431" y="466" type="line"/>
      <point x="431" y="458"/>
      <point x="431" y="450"/>
      <point x="431" y="442" type="curve" smooth="yes"/>
      <point x="423" y="292"/>
      <point x="353" y="99"/>
    </contour>
    <contour>
      <point x="165" y="232" type="line"/>
      <point x="165" y="241"/>
      <point x="165" y="250"/>
      <point x="166" y="259" type="curve" smooth="yes"/>
      <point x="173" y="411"/>
      <point x="245" y="594"/>
      <point x="352" y="594" type="curve" smooth="yes"/>
      <point x="369" y="594"/>
      <point x="386" y="590"/>
      <point x="396" y="582" type="curve"/>
    </contour>
  </outline>
</glyph>
<glyph name="Thorn" format="2">
  <advance width="560"/>
  <unicode hex="00DE"/>
  <outline>
    <contour>
      <point x="43" y="0" type="line"/>
      <point x="180" y="0" type="line"/>
      <point x="211" y="129" type="line"/>
      <point x="243" y="129" type="line" smooth="yes"/>
      <point x="451" y="129"/>
      <point x="595" y="214"/>
      <point x="595" y="404" type="curve" smooth="yes"/>
      <point x="595" y="516"/>
      <point x="533" y="594"/>
      <point x="363" y="594" type="curve" smooth="yes"/>
      <point x="351" y="594"/>
      <point x="334" y="594"/>
      <point x="323" y="592" type="curve"/>
      <point x="347" y="693" type="line"/>
      <point x="209" y="693" type="line"/>
    </contour>
    <contour>
      <point x="239" y="248" type="line"/>
      <point x="295" y="473" type="line"/>
      <point x="312" y="475"/>
      <point x="328" y="476"/>
      <point x="346" y="476" type="curve" smooth="yes"/>
      <point x="433" y="476"/>
      <point x="457" y="441"/>
      <point x="457" y="384" type="curve" smooth="yes"/>
      <point x="457" y="300"/>
      <point x="394" y="248"/>
      <point x="276" y="248" type="curve" smooth="yes"/>
    </contour>
  </outline>
</glyph>
<glyph name="germandbls" format="2">
  <advance width="560"/>
  <unicode hex="00DF"/>
  <outline>
    <contour>
      <point x="-36" y="-188" type="curve" smooth="yes"/>
      <point x="88" y="-188"/>
      <point x="164" y="-110"/>
      <point x="192" y="29" type="curve" smooth="yes"/>
      <point x="295" y="536" type="line" smooth="yes"/>
      <point x="310" y="613"/>
      <point x="351" y="659"/>
      <point x="408" y="659" type="curve" smooth="yes"/>
      <point x="445" y="659"/>
      <point x="468" y="643"/>
      <point x="468" y="613" type="curve" smooth="yes"/>
      <point x="468" y="566"/>
      <point x="437" y="533"/>
      <point x="407" y="501" type="curve" smooth="yes"/>
      <point x="366" y="457"/>
      <point x="327" y="416"/>
      <point x="327" y="354" type="curve" smooth="yes"/>
      <point x="327" y="264"/>
      <point x="433" y="239"/>
      <point x="433" y="164" type="curve" smooth="yes"/>
      <point x="433" y="123"/>
      <point x="398" y="103"/>
      <point x="358" y="103" type="curve" smooth="yes"/>
      <point x="326" y="103"/>
      <point x="304" y="113"/>
      <point x="286" y="125" type="curve"/>
      <point x="240" y="18" type="line"/>
      <point x="263" y="4"/>
      <point x="292" y="-12"/>
      <point x="363" y="-12" type="curve" smooth="yes"/>
      <point x="492" y="-12"/>
      <point x="569" y="60"/>
      <point x="569" y="170" type="curve" smooth="yes"/>
      <point x="569" y="291"/>
      <point x="455" y="310"/>
      <point x="455" y="380" type="curve" smooth="yes"/>
      <point x="455" y="412"/>
      <point x="491" y="442"/>
      <point x="528" y="482" type="curve" smooth="yes"/>
      <point x="564" y="521"/>
      <point x="603" y="570"/>
      <point x="603" y="642" type="curve" smooth="yes"/>
      <point x="603" y="711"/>
      <point x="557" y="776"/>
      <point x="433" y="776" type="curve" smooth="yes"/>
      <point x="255" y="776"/>
      <point x="186" y="675"/>
      <point x="157" y="533" type="curve" smooth="yes"/>
      <point x="53" y="34" type="line" smooth="yes"/>
      <point x="41" y="-19"/>
      <point x="19" y="-63"/>
      <point x="-38" y="-63" type="curve" smooth="yes"/>
      <point x="-59" y="-63"/>
      <point x="-80" y="-56"/>
      <point x="-99" y="-49" type="curve"/>
      <point x="-137" y="-166" type="line"/>
      <point x="-108" y="-179"/>
      <point x="-74" y="-188"/>
    </contour>
  </outline>
</glyph>
<glyph name="ae" format="2">
  <advance width="560"/>
  <unicode hex="00E6"/>
  <outline>
    <contour>
      <point x="99" y="-15" type="curve" smooth="yes"/>
      <point x="155" y="-15"/>
      <point x="209" y="22"/>
      <point x="245" y="92" type="curve"/>
      <point x="262" y="20"/>
      <point x="314" y="-15"/>
      <point x="382" y="-15" type="curve" smooth="yes"/>
      <point x="423" y="-15"/>
      <point x="464" y="-1"/>
      <point x="496" y="19" type="curve"/>
      <point x="482" y="116" type="line"/>
      <point x="458" y="99"/>
      <point x="430" y="88"/>
      <point x="404" y="88" type="curve" smooth="yes"/>
      <point x="346" y="88"/>
      <point x="326" y="120"/>
      <point x="326" y="172" type="curve" smooth="yes"/>
      <point x="326" y="178"/>
      <point x="326" y="183"/>
      <point x="328" y="189" type="curve"/>
      <point x="458" y="200"/>
      <point x="567" y="273"/>
      <point x="567" y="422" type="curve"/>
      <point x="567" y="510"/>
      <point x="515" y="540"/>
      <point x="460" y="540" type="curve" smooth="yes"/>
      <point x="404" y="540"/>
      <point x="350" y="504"/>
      <point x="314" y="435" type="curve"/>
      <point x="298" y="506"/>
      <point x="245" y="540"/>
      <point x="178" y="540" type="curve" smooth="yes"/>
      <point x="136" y="540"/>
      <point x="95" y="528"/>
      <point x="63" y="507" type="curve"/>
      <point x="77" y="409" type="line"/>
      <point x="102" y="427"/>
      <point x="130" y="438"/>
      <point x="155" y="438" type="curve"/>
      <point x="213" y="438"/>
      <point x="234" y="407"/>
      <point x="234" y="353" type="curve" smooth="yes"/>
      <point x="234" y="348"/>
      <point x="234" y="343"/>
      <point x="232" y="337" type="curve"/>
      <point x="102" y="326"/>
      <point x="-8" y="253"/>
      <point x="-8" y="104" type="curve"/>
      <point x="-8" y="16"/>
      <point x="44" y="-15"/>
    </contour>
    <contour>
      <point x="123" y="86" type="curve" smooth="yes"/>
      <point x="96" y="86"/>
      <point x="89" y="104"/>
      <point x="89" y="124" type="curve" smooth="yes"/>
      <point x="89" y="192"/>
      <point x="146" y="246"/>
      <point x="225" y="246" type="curve"/>
      <point x="201" y="131"/>
      <point x="153" y="86"/>
    </contour>
    <contour>
      <point x="334" y="280" type="curve"/>
      <point x="358" y="395"/>
      <point x="406" y="440"/>
      <point x="436" y="440" type="curve"/>
      <point x="463" y="440"/>
      <point x="470" y="422"/>
      <point x="470" y="402" type="curve"/>
      <point x="470" y="334"/>
      <point x="413" y="280"/>
    </contour>
  </outline>
</glyph>
<glyph name="ccedilla" format="2">
  <advance width="560"/>
  <unicode hex="00E7"/>
  <outline>
    <contour>
      <point x="255" y="-190" type="curve" smooth="yes"/>
      <point x="335" y="-190"/>
      <point x="393" y="-155"/>
      <point x="393" y="-94" type="curve" smooth="yes"/>
      <point x="393" y="-67"/>
      <point x="381" y="-45"/>
      <point x="348" y="-28" type="curve"/>
      <point x="358" y="-11" type="line"/>
      <point x="441" y="-8"/>
      <point x="478" y="7"/>
      <point x="511" y="24" type="curve"/>
      <point x="497" y="133" type="line"/>
      <point x="472" y="122"/>
      <point x="418" y="108"/>
      <point x="360" y="108" type="curve" smooth="yes"/>
      <point x="251" y="108"/>
      <point x="225" y="151"/>
      <point x="225" y="209" type="curve" smooth="yes"/>
      <point x="225" y="344"/>
      <point x="315" y="420"/>
      <point x="436" y="420" type="curve" smooth="yes"/>
      <point x="484" y="420"/>
      <point x="522" y="410"/>
      <point x="545" y="400" type="curve"/>
      <point x="595" y="510" type="line"/>
      <point x="557" y="526"/>
      <point x="515" y="539"/>
      <point x="436" y="539" type="curve" smooth="yes"/>
      <point x="231" y="539"/>
      <point x="86" y="398"/>
      <point x="86" y="204" type="curve" smooth="yes"/>
      <point x="86" y="100"/>
      <point x="132" y="10"/>
      <point x="269" y="-8" type="curve"/>
      <point x="260" y="-20"/>
      <point x="252" y="-32"/>
      <point x="242" y="-48" type="curve"/>
      <point x="287" y="-59"/>
      <point x="291" y="-74"/>
      <point x="291" y="-90" type="curve" smooth="yes"/>
      <point x="291" y="-100"/>
      <point x="282" y="-118"/>
      <point x="249" y="-118" type="curve" smooth="yes"/>
      <point x="228" y="-118"/>
      <point x="205" y="-112"/>
      <point x="188" y="-103" type="curve"/>
      <point x="159" y="-168" type="line"/>
      <point x="187" y="-183"/>
      <point x="220" y="-190"/>
    </contour>
  </outline>
</glyph>
<glyph name="eth" format="2">
  <advance width="560"/>
  <unicode hex="00F0"/>
  <outline>
    <contour>
      <point x="251" y="-15" type="curve" smooth="yes"/>
      <point x="476" y="-15"/>
      <point x="566" y="218"/>
      <point x="566" y="438" type="curve" smooth="yes"/>
      <point x="566" y="493"/>
      <point x="559" y="547"/>
      <point x="547" y="598" type="curve"/>
      <point x="656" y="632" type="line"/>
      <point x="641" y="715" type="line"/>
      <point x="516" y="675" type="line"/>
      <point x="493" y="715"/>
      <point x="455" y="749"/>
      <point x="416" y="776" type="curve"/>
      <point x="324" y="711" type="line"/>
      <point x="348" y="693"/>
      <point x="379" y="661"/>
      <point x="392" y="637" type="curve"/>
      <point x="304" y="609" type="line"/>
      <point x="314" y="526" type="line"/>
      <point x="427" y="561" type="line"/>
      <point x="438" y="526"/>
      <point x="441" y="477"/>
      <point x="441" y="442" type="curve"/>
      <point x="418" y="460"/>
      <point x="381" y="472"/>
      <point x="340" y="472" type="curve" smooth="yes"/>
      <point x="165" y="472"/>
      <point x="71" y="328"/>
      <point x="71" y="175" type="curve" smooth="yes"/>
      <point x="71" y="75"/>
      <point x="127" y="-15"/>
    </contour>
    <contour>
      <point x="264" y="105" type="curve" smooth="yes"/>
      <point x="223" y="105"/>
      <point x="205" y="141"/>
      <point x="205" y="186" type="curve" smooth="yes"/>
      <point x="205" y="264"/>
      <point x="249" y="362"/>
      <point x="334" y="362" type="curve" smooth="yes"/>
      <point x="364" y="362"/>
      <point x="396" y="354"/>
      <point x="418" y="329" type="curve"/>
      <point x="402" y="246"/>
      <point x="367" y="105"/>
    </contour>
  </outline>
</glyph>
<glyph name="divide" format="2">
  <advance width="560"/>
  <unicode hex="00F7"/>
  <outline>
    <contour>
      <point x="91" y="237" type="line"/>
      <point x="561" y="237" type="line"/>
      <point x="588" y="351" type="line"/>
      <point x="118" y="351" type="line"/>
    </contour>
    <contour>
      <point x="277" y="8" type="curve" smooth="yes"/>
      <point x="324" y="8"/>
      <point x="367" y="43"/>
      <point x="367" y="101" type="curve" smooth="yes"/>
      <point x="367" y="151"/>
      <point x="336" y="172"/>
      <point x="295" y="172" type="curve" smooth="yes"/>
      <point x="248" y="172"/>
      <point x="204" y="138"/>
      <point x="204" y="80" type="curve" smooth="yes"/>
      <point x="204" y="29"/>
      <point x="234" y="8"/>
    </contour>
    <contour>
      <point x="377" y="416" type="curve" smooth="yes"/>
      <point x="424" y="416"/>
      <point x="468" y="450"/>
      <point x="468" y="508" type="curve" smooth="yes"/>
      <point x="468" y="559"/>
      <point x="437" y="580"/>
      <point x="395" y="580" type="curve" smooth="yes"/>
      <point x="348" y="580"/>
      <point x="305" y="545"/>
      <point x="305" y="487" type="curve" smooth="yes"/>
      <point x="305" y="437"/>
      <point x="335" y="416"/>
    </contour>
  </outline>
</glyph>
<glyph name="oslash" format="2">
  <advance width="560"/>
  <unicode hex="00F8"/>
  <outline>
    <contour>
      <point x="143" y="-50" type="line"/>
      <point x="192" y="6" type="line"/>
      <point x="228" y="-11"/>
      <point x="245" y="-15"/>
      <point x="296" y="-15" type="curve" smooth="yes"/>
      <point x="491" y="-15"/>
      <point x="592" y="172"/>
      <point x="592" y="332" type="curve" smooth="yes"/>
      <point x="592" y="383"/>
      <point x="586" y="426"/>
      <point x="564" y="463" type="curve"/>
      <point x="615" y="520" type="line"/>
      <point x="550" y="573" type="line"/>
      <point x="504" y="520" type="line"/>
      <point x="467" y="538"/>
      <point x="435" y="540"/>
      <point x="400" y="540" type="curve" smooth="yes"/>
      <point x="231" y="540"/>
      <point x="100" y="377"/>
      <point x="100" y="196" type="curve" smooth="yes"/>
      <point x="100" y="152"/>
      <point x="102" y="110"/>
      <point x="130" y="62" type="curve"/>
      <point x="78" y="3" type="line"/>
    </contour>
    <contour>
      <point x="314" y="101" type="curve" smooth="yes"/>
      <point x="298" y="101"/>
      <point x="281" y="103"/>
      <point x="267" y="112" type="curve"/>
      <point x="460" y="328" type="line"/>
      <point x="460" y="217"/>
      <point x="417" y="101"/>
    </contour>
    <contour>
      <point x="231" y="200" type="line"/>
      <point x="231" y="306"/>
      <point x="278" y="427"/>
      <point x="382" y="427" type="curve" smooth="yes"/>
      <point x="398" y="427"/>
      <point x="413" y="423"/>
      <point x="426" y="416" type="curve"/>
    </contour>
  </outline>
</glyph>
<glyph name="thorn" format="2">
  <advance width="560"/>
  <unicode hex="00FE"/>
  <outline>
    <contour>
      <point x="-2" y="-185" type="line"/>
      <point x="136" y="-185" type="line"/>
      <point x="179" y="-7" type="line"/>
      <point x="192" y="-9"/>
      <point x="205" y="-11"/>
      <point x="235" y="-11" type="curve" smooth="yes"/>
      <point x="460" y="-11"/>
      <point x="567" y="161"/>
      <point x="567" y="347" type="curve" smooth="yes"/>
      <point x="567" y="459"/>
      <point x="505" y="538"/>
      <point x="385" y="538" type="curve" smooth="yes"/>
      <point x="360" y="538"/>
      <point x="332" y="531"/>
      <point x="306" y="524" type="curve"/>
      <point x="367" y="777" type="line"/>
      <point x="224" y="754" type="line"/>
    </contour>
    <contour>
      <point x="234" y="108" type="curve" smooth="yes"/>
      <point x="224" y="108"/>
      <point x="214" y="108"/>
      <point x="207" y="110" type="curve"/>
      <point x="280" y="413" type="line"/>
      <point x="296" y="417"/>
      <point x="316" y="422"/>
      <point x="346" y="422" type="curve" smooth="yes"/>
      <point x="418" y="422"/>
      <point x="431" y="382"/>
      <point x="431" y="337" type="curve" smooth="yes"/>
      <point x="431" y="214"/>
      <point x="357" y="108"/>
    </contour>
  </outline>
</glyph>
<glyph name="Aogonek" format="2">
  <advance width="560"/>
  <unicode hex="0104"/>
  <outline>
    <contour>
      <point x="384" y="-190" type="curve" smooth="yes"/>
      <point x="418" y="-190"/>
      <point x="454" y="-184"/>
      <point x="479" y="-175" type="curve"/>
      <point x="488" y="-103" type="line"/>
      <point x="479" y="-106"/>
      <point x="453" y="-113"/>
      <point x="434" y="-113" type="curve" smooth="yes"/>
      <point x="417" y="-113"/>
      <point x="409" y="-108"/>
      <point x="409" y="-97" type="curve" smooth="yes"/>
      <point x="409" y="-80"/>
      <point x="434" y="-53"/>
      <point x="505" y="0" type="curve"/>
      <point x="505" y="293"/>
      <point x="490" y="504"/>
      <point x="468" y="693" type="curve"/>
      <point x="321" y="693" type="line"/>
      <point x="210" y="512"/>
      <point x="91" y="276"/>
      <point x="-35" y="0" type="curve"/>
      <point x="105" y="0" type="line"/>
      <point x="126" y="57"/>
      <point x="151" y="111"/>
      <point x="173" y="161" type="curve"/>
      <point x="370" y="161" type="line"/>
      <point x="366" y="0" type="line"/>
      <point x="385" y="0" type="line"/>
      <point x="302" y="-49"/>
      <point x="273" y="-88"/>
      <point x="273" y="-131" type="curve" smooth="yes"/>
      <point x="273" y="-162"/>
      <point x="302" y="-190"/>
    </contour>
    <contour>
      <point x="225" y="272" type="line"/>
      <point x="294" y="426"/>
      <point x="326" y="488"/>
      <point x="366" y="562" type="curve"/>
      <point x="370" y="466"/>
      <point x="372" y="368"/>
      <point x="372" y="272" type="curve"/>
    </contour>
  </outline>
</glyph>
<glyph name="aogonek" format="2">
  <advance width="560"/>
  <unicode hex="0105"/>
  <outline>
    <contour>
      <point x="394" y="-190" type="curve" smooth="yes"/>
      <point x="429" y="-190"/>
      <point x="465" y="-184"/>
      <point x="489" y="-175" type="curve"/>
      <point x="498" y="-103" type="line"/>
      <point x="489" y="-106"/>
      <point x="464" y="-113"/>
      <point x="445" y="-113" type="curve" smooth="yes"/>
      <point x="428" y="-113"/>
      <point x="420" y="-108"/>
      <point x="420" y="-97" type="curve" smooth="yes"/>
      <point x="420" y="-80"/>
      <point x="442" y="-50"/>
      <point x="532" y="11" type="curve"/>
      <point x="519" y="52"/>
      <point x="510" y="92"/>
      <point x="510" y="136" type="curve" smooth="yes"/>
      <point x="510" y="162"/>
      <point x="513" y="188"/>
      <point x="519" y="215" type="curve"/>
      <point x="588" y="501" type="line"/>
      <point x="524" y="526"/>
      <point x="460" y="538"/>
      <point x="400" y="538" type="curve" smooth="yes"/>
      <point x="220" y="538"/>
      <point x="72" y="396"/>
      <point x="72" y="193" type="curve" smooth="yes"/>
      <point x="72" y="60"/>
      <point x="133" y="-11"/>
      <point x="231" y="-12" type="curve" smooth="yes"/>
      <point x="311" y="-12"/>
      <point x="361" y="18"/>
      <point x="390" y="40" type="curve"/>
      <point x="391" y="35"/>
      <point x="398" y="19"/>
      <point x="403" y="6" type="curve"/>
      <point x="312" y="-46"/>
      <point x="283" y="-87"/>
      <point x="283" y="-131" type="curve" smooth="yes"/>
      <point x="283" y="-162"/>
      <point x="312" y="-190"/>
    </contour>
    <contour>
      <point x="281" y="105" type="curve" smooth="yes"/>
      <point x="237" y="105"/>
      <point x="208" y="125"/>
      <point x="208" y="204" type="curve" smooth="yes"/>
      <point x="208" y="316"/>
      <point x="274" y="421"/>
      <point x="379" y="421" type="curve" smooth="yes"/>
      <point x="395" y="421"/>
      <point x="413" y="420"/>
      <point x="430" y="416" type="curve"/>
      <point x="382" y="216" type="line" smooth="yes"/>
      <point x="376" y="190"/>
      <point x="373" y="174"/>
      <point x="371" y="152" type="curve"/>
      <point x="349" y="127"/>
      <point x="323" y="105"/>
    </contour>
  </outline>
</glyph>
<glyph name="dcaron" format="2">
  <advance width="560"/>
  <unicode hex="010F"/>
  <outline>
    <contour>
      <point x="178" y="-12" type="curve" smooth="yes"/>
      <point x="240" y="-12"/>
      <point x="284" y="18"/>
      <point x="311" y="40" type="curve"/>
      <point x="314" y="32"/>
      <point x="327" y="2"/>
      <point x="333" y="-9" type="curve"/>
      <point x="454" y="11" type="line"/>
      <point x="440" y="52"/>
      <point x="431" y="92"/>
      <point x="431" y="136" type="curve" smooth="yes"/>
      <point x="431" y="162"/>
      <point x="435" y="188"/>
      <point x="440" y="215" type="curve"/>
      <point x="576" y="777" type="line"/>
      <point x="432" y="754" type="line"/>
      <point x="379" y="526" type="line"/>
      <point x="363" y="532"/>
      <point x="348" y="534"/>
      <point x="334" y="534" type="curve" smooth="yes"/>
      <point x="171" y="534"/>
      <point x="38" y="396"/>
      <point x="38" y="184" type="curve" smooth="yes"/>
      <point x="38" y="47"/>
      <point x="88" y="-11"/>
    </contour>
    <contour>
      <point x="216" y="105" type="curve" smooth="yes"/>
      <point x="192" y="105"/>
      <point x="175" y="125"/>
      <point x="175" y="204" type="curve" smooth="yes"/>
      <point x="175" y="316"/>
      <point x="230" y="421"/>
      <point x="314" y="421" type="curve" smooth="yes"/>
      <point x="326" y="421"/>
      <point x="339" y="420"/>
      <point x="352" y="416" type="curve"/>
      <point x="304" y="216" type="line" smooth="yes"/>
      <point x="298" y="190"/>
      <point x="295" y="174"/>
      <point x="292" y="152" type="curve"/>
      <point x="273" y="127"/>
      <point x="251" y="105"/>
    </contour>
    <contour>
      <point x="563" y="532" type="line"/>
      <point x="652" y="532" type="line"/>
      <point x="745" y="776" type="line"/>
      <point x="619" y="776" type="line"/>
    </contour>
  </outline>
</glyph>
<glyph name="dcroat" format="2">
  <advance width="560"/>
  <unicode hex="0111"/>
  <outline>
    <contour>
      <point x="175" y="-12" type="curve" smooth="yes"/>
      <point x="253" y="-12"/>
      <point x="300" y="18"/>
      <point x="328" y="40" type="curve"/>
      <point x="330" y="32"/>
      <point x="343" y="2"/>
      <point x="349" y="-9" type="curve"/>
      <point x="470" y="11" type="line"/>
      <point x="458" y="52"/>
      <point x="447" y="92"/>
      <point x="447" y="136" type="curve" smooth="yes"/>
      <point x="447" y="162"/>
      <point x="451" y="188"/>
      <point x="458" y="215" type="curve" smooth="yes"/>
      <point x="548" y="596" type="line"/>
      <point x="622" y="596" type="line"/>
      <point x="645" y="689" type="line"/>
      <point x="571" y="689" type="line"/>
      <point x="592" y="777" type="line"/>
      <point x="449" y="754" type="line"/>
      <point x="434" y="689" type="line"/>
      <point x="272" y="689" type="line"/>
      <point x="250" y="596" type="line"/>
      <point x="412" y="596" type="line"/>
      <point x="395" y="526" type="line"/>
      <point x="377" y="532"/>
      <point x="360" y="534"/>
      <point x="343" y="534" type="curve" smooth="yes"/>
      <point x="170" y="534"/>
      <point x="30" y="396"/>
      <point x="30" y="193" type="curve" smooth="yes"/>
      <point x="30" y="60"/>
      <point x="86" y="-11"/>
    </contour>
    <contour>
      <point x="225" y="105" type="curve" smooth="yes"/>
      <point x="189" y="105"/>
      <point x="166" y="125"/>
      <point x="166" y="204" type="curve" smooth="yes"/>
      <point x="166" y="316"/>
      <point x="227" y="421"/>
      <point x="323" y="421" type="curve" smooth="yes"/>
      <point x="337" y="421"/>
      <point x="353" y="420"/>
      <point x="368" y="416" type="curve"/>
      <point x="320" y="216" type="line" smooth="yes"/>
      <point x="314" y="190"/>
      <point x="311" y="174"/>
      <point x="309" y="152" type="curve"/>
      <point x="288" y="127"/>
      <point x="263" y="105"/>
    </contour>
  </outline>
</glyph>
<glyph name="Eogonek" format="2">
  <advance width="560"/>
  <unicode hex="0118"/>
  <outline>
    <contour>
      <point x="374" y="-190" type="curve" smooth="yes"/>
      <point x="409" y="-190"/>
      <point x="445" y="-184"/>
      <point x="469" y="-175" type="curve"/>
      <point x="478" y="-103" type="line"/>
      <point x="469" y="-106"/>
      <point x="444" y="-113"/>
      <point x="424" y="-113" type="curve" smooth="yes"/>
      <point x="408" y="-113"/>
      <point x="400" y="-108"/>
      <point x="400" y="-97" type="curve" smooth="yes"/>
      <point x="400" y="-80"/>
      <point x="420" y="-54"/>
      <point x="495" y="0" type="curve"/>
      <point x="522" y="114" type="line"/>
      <point x="224" y="114" type="line"/>
      <point x="271" y="309" type="line"/>
      <point x="508" y="309" type="line"/>
      <point x="535" y="423" type="line"/>
      <point x="298" y="423" type="line"/>
      <point x="336" y="579" type="line"/>
      <point x="609" y="579" type="line"/>
      <point x="636" y="693" type="line"/>
      <point x="225" y="693" type="line"/>
      <point x="59" y="0" type="line"/>
      <point x="373" y="0" type="line"/>
      <point x="290" y="-49"/>
      <point x="263" y="-88"/>
      <point x="263" y="-131" type="curve" smooth="yes"/>
      <point x="263" y="-162"/>
      <point x="292" y="-190"/>
    </contour>
  </outline>
</glyph>
<glyph name="eogonek" format="2">
  <advance width="560"/>
  <unicode hex="0119"/>
  <outline>
    <contour>
      <point x="348" y="-190" type="curve" smooth="yes"/>
      <point x="383" y="-190"/>
      <point x="419" y="-184"/>
      <point x="444" y="-175" type="curve"/>
      <point x="452" y="-103" type="line"/>
      <point x="444" y="-106"/>
      <point x="418" y="-113"/>
      <point x="399" y="-113" type="curve" smooth="yes"/>
      <point x="382" y="-113"/>
      <point x="374" y="-108"/>
      <point x="374" y="-97" type="curve" smooth="yes"/>
      <point x="374" y="-80"/>
      <point x="394" y="-45"/>
      <point x="505" y="24" type="curve"/>
      <point x="496" y="128" type="line"/>
      <point x="470" y="116"/>
      <point x="411" y="100"/>
      <point x="352" y="100" type="curve" smooth="yes"/>
      <point x="251" y="100"/>
      <point x="220" y="132"/>
      <point x="220" y="187" type="curve"/>
      <point x="426" y="187"/>
      <point x="585" y="243"/>
      <point x="585" y="395" type="curve" smooth="yes"/>
      <point x="585" y="486"/>
      <point x="512" y="540"/>
      <point x="409" y="540" type="curve" smooth="yes"/>
      <point x="204" y="540"/>
      <point x="84" y="380"/>
      <point x="84" y="205" type="curve" smooth="yes"/>
      <point x="84" y="80"/>
      <point x="151" y="-10"/>
      <point x="317" y="-13" type="curve" smooth="yes"/>
      <point x="320" y="-13"/>
      <point x="324" y="-13"/>
      <point x="327" y="-13" type="curve"/>
      <point x="261" y="-56"/>
      <point x="237" y="-93"/>
      <point x="237" y="-131" type="curve" smooth="yes"/>
      <point x="237" y="-162"/>
      <point x="267" y="-190"/>
    </contour>
    <contour>
      <point x="221" y="282" type="curve"/>
      <point x="244" y="385"/>
      <point x="315" y="430"/>
      <point x="383" y="430" type="curve" smooth="yes"/>
      <point x="428" y="430"/>
      <point x="454" y="411"/>
      <point x="454" y="376" type="curve" smooth="yes"/>
      <point x="454" y="337"/>
      <point x="409" y="282"/>
    </contour>
  </outline>
</glyph>
<glyph name="hcircumflex" format="2">
  <advance width="560"/>
  <unicode hex="0125"/>
  <outline>
    <contour>
      <point x="49" y="0" type="line"/>
      <point x="187" y="0" type="line"/>
      <point x="286" y="407" type="line"/>
      <point x="307" y="416"/>
      <point x="332" y="419"/>
      <point x="351" y="419" type="curve" smooth="yes"/>
      <point x="401" y="419"/>
      <point x="416" y="389"/>
      <point x="416" y="354" type="curve" smooth="yes"/>
      <point x="416" y="329"/>
      <point x="408" y="302"/>
      <point x="403" y="279" type="curve" smooth="yes"/>
      <point x="336" y="0" type="line"/>
      <point x="474" y="0" type="line"/>
      <point x="545" y="297" type="line" smooth="yes"/>
      <point x="553" y="329"/>
      <point x="557" y="360"/>
      <point x="557" y="385" type="curve" smooth="yes"/>
      <point x="557" y="482"/>
      <point x="501" y="538"/>
      <point x="391" y="538" type="curve" smooth="yes"/>
      <point x="365" y="538"/>
      <point x="337" y="531"/>
      <point x="312" y="524" type="curve"/>
      <point x="363" y="732" type="line"/>
      <point x="220" y="709" type="line"/>
    </contour>
    <contour>
      <point x="281" y="758" type="line"/>
      <point x="393" y="819" type="line"/>
      <point x="474" y="759" type="line"/>
      <point x="528" y="818" type="line"/>
      <point x="404" y="928" type="line"/>
      <point x="246" y="816" type="line"/>
    </contour>
  </outline>
</glyph>
<glyph name="Hbar" format="2">
  <advance width="560"/>
  <unicode hex="0126"/>
  <outline>
    <contour>
      <point x="59" y="0" type="line"/>
      <point x="197" y="0" type="line"/>
      <point x="271" y="306" type="line"/>
      <point x="395" y="306" type="line"/>
      <point x="321" y="0" type="line"/>
      <point x="459" y="0" type="line"/>
      <point x="580" y="502" type="line"/>
      <point x="642" y="502" type="line"/>
      <point x="669" y="613" type="line"/>
      <point x="606" y="613" type="line"/>
      <point x="626" y="693" type="line"/>
      <point x="488" y="693" type="line"/>
      <point x="468" y="613" type="line"/>
      <point x="344" y="613" type="line"/>
      <point x="364" y="693" type="line"/>
      <point x="226" y="693" type="line"/>
      <point x="206" y="613" type="line"/>
      <point x="146" y="613" type="line"/>
      <point x="119" y="502" type="line"/>
      <point x="180" y="502" type="line"/>
    </contour>
    <contour>
      <point x="298" y="420" type="line"/>
      <point x="318" y="502" type="line"/>
      <point x="442" y="502" type="line"/>
      <point x="422" y="420" type="line"/>
    </contour>
  </outline>
</glyph>
<glyph name="hbar" format="2">
  <advance width="560"/>
  <unicode hex="0127"/>
  <outline>
    <contour>
      <point x="64" y="0" type="line"/>
      <point x="202" y="0" type="line"/>
      <point x="301" y="413" type="line"/>
      <point x="323" y="417"/>
      <point x="339" y="419"/>
      <point x="360" y="419" type="curve" smooth="yes"/>
      <point x="402" y="419"/>
      <point x="413" y="385"/>
      <point x="413" y="349" type="curve" smooth="yes"/>
      <point x="413" y="323"/>
      <point x="407" y="296"/>
      <point x="402" y="277" type="curve" smooth="yes"/>
      <point x="336" y="0" type="line"/>
      <point x="474" y="0" type="line"/>
      <point x="544" y="295" type="line" smooth="yes"/>
      <point x="551" y="324"/>
      <point x="556" y="352"/>
      <point x="556" y="379" type="curve" smooth="yes"/>
      <point x="556" y="467"/>
      <point x="514" y="536"/>
      <point x="411" y="536" type="curve" smooth="yes"/>
      <point x="372" y="536"/>
      <point x="344" y="529"/>
      <point x="326" y="522" type="curve"/>
      <point x="344" y="596" type="line"/>
      <point x="487" y="596" type="line"/>
      <point x="510" y="689" type="line"/>
      <point x="366" y="689" type="line"/>
      <point x="388" y="777" type="line"/>
      <point x="245" y="754" type="line"/>
      <point x="228" y="689" type="line"/>
      <point x="168" y="689" type="line"/>
      <point x="146" y="596" type="line"/>
      <point x="207" y="596" type="line"/>
    </contour>
  </outline>
</glyph>
<glyph name="Iogonek" format="2">
  <advance width="560"/>
  <unicode hex="012E"/>
  <outline>
    <contour>
      <point x="167" y="-190" type="curve" smooth="yes"/>
      <point x="202" y="-190"/>
      <point x="238" y="-184"/>
      <point x="263" y="-175" type="curve"/>
      <point x="272" y="-103" type="line"/>
      <point x="263" y="-106"/>
      <point x="237" y="-113"/>
      <point x="218" y="-113" type="curve" smooth="yes"/>
      <point x="201" y="-113"/>
      <point x="193" y="-108"/>
      <point x="193" y="-97" type="curve" smooth="yes"/>
      <point x="193" y="-80"/>
      <point x="216" y="-50"/>
      <point x="288" y="0" type="curve"/>
      <point x="437" y="0" type="line"/>
      <point x="464" y="114" type="line"/>
      <point x="314" y="114" type="line"/>
      <point x="426" y="579" type="line"/>
      <point x="576" y="579" type="line"/>
      <point x="603" y="693" type="line"/>
      <point x="163" y="693" type="line"/>
      <point x="136" y="579" type="line"/>
      <point x="288" y="579" type="line"/>
      <point x="176" y="114" type="line"/>
      <point x="24" y="114" type="line"/>
      <point x="-3" y="0" type="line"/>
      <point x="166" y="0" type="line"/>
      <point x="83" y="-49"/>
      <point x="57" y="-88"/>
      <point x="57" y="-131" type="curve" smooth="yes"/>
      <point x="57" y="-162"/>
      <point x="86" y="-190"/>
    </contour>
  </outline>
</glyph>
<glyph name="iogonek" format="2">
  <advance width="560"/>
  <unicode hex="012F"/>
  <outline>
    <contour>
      <point x="372" y="-190" type="curve" smooth="yes"/>
      <point x="407" y="-190"/>
      <point x="442" y="-184"/>
      <point x="467" y="-175" type="curve"/>
      <point x="476" y="-103" type="line"/>
      <point x="467" y="-106"/>
      <point x="441" y="-113"/>
      <point x="422" y="-113" type="curve" smooth="yes"/>
      <point x="405" y="-113"/>
      <point x="398" y="-108"/>
      <point x="398" y="-97" type="curve" smooth="yes"/>
      <point x="398" y="-80"/>
      <point x="420" y="-48"/>
      <point x="514" y="15" type="curve"/>
      <point x="512" y="127" type="line"/>
      <point x="470" y="112"/>
      <point x="435" y="108"/>
      <point x="410" y="108" type="curve" smooth="yes"/>
      <point x="371" y="108"/>
      <point x="353" y="127"/>
      <point x="353" y="164" type="curve" smooth="yes"/>
      <point x="353" y="175"/>
      <point x="355" y="189"/>
      <point x="360" y="205" type="curve"/>
      <point x="436" y="526" type="line"/>
      <point x="152" y="526" type="line"/>
      <point x="124" y="412" type="line"/>
      <point x="270" y="412" type="line"/>
      <point x="225" y="222" type="line" smooth="yes"/>
      <point x="217" y="190"/>
      <point x="213" y="161"/>
      <point x="213" y="136" type="curve" smooth="yes"/>
      <point x="213" y="47"/>
      <point x="258" y="-7"/>
      <point x="353" y="-11" type="curve"/>
      <point x="284" y="-55"/>
      <point x="261" y="-92"/>
      <point x="261" y="-131" type="curve" smooth="yes"/>
      <point x="261" y="-162"/>
      <point x="290" y="-190"/>
    </contour>
    <contour>
      <point x="372" y="590" type="curve" smooth="yes"/>
      <point x="417" y="590"/>
      <point x="466" y="631"/>
      <point x="466" y="685" type="curve" smooth="yes"/>
      <point x="466" y="741"/>
      <point x="429" y="766"/>
      <point x="385" y="766" type="curve" smooth="yes"/>
      <point x="338" y="766"/>
      <point x="292" y="727"/>
      <point x="292" y="669" type="curve" smooth="yes"/>
      <point x="292" y="615"/>
      <point x="325" y="590"/>
    </contour>
  </outline>
</glyph>
<glyph name="dotlessi" format="2">
  <advance width="560"/>
  <unicode hex="0131"/>
  <outline>
    <contour>
      <point x="368" y="-12" type="curve" smooth="yes"/>
      <point x="410" y="-12"/>
      <point x="459" y="-6"/>
      <point x="514" y="15" type="curve"/>
      <point x="512" y="127" type="line"/>
      <point x="470" y="112"/>
      <point x="435" y="108"/>
      <point x="410" y="108" type="curve" smooth="yes"/>
      <point x="371" y="108"/>
      <point x="353" y="127"/>
      <point x="353" y="164" type="curve" smooth="yes"/>
      <point x="353" y="175"/>
      <point x="355" y="189"/>
      <point x="360" y="205" type="curve" smooth="yes"/>
      <point x="436" y="526" type="line"/>
      <point x="152" y="526" type="line"/>
      <point x="124" y="412" type="line"/>
      <point x="270" y="412" type="line"/>
      <point x="225" y="222" type="line" smooth="yes"/>
      <point x="217" y="190"/>
      <point x="213" y="161"/>
      <point x="213" y="136" type="curve" smooth="yes"/>
      <point x="213" y="43"/>
      <point x="263" y="-12"/>
    </contour>
  </outline>
</glyph>
<glyph name="idotless" format="2">
  <advance width="560"/>
  <unicode hex="0131"/>
  <outline>
    <contour>
      <point x="326" y="-12" type="curve" smooth="yes"/>
      <point x="368" y="-12"/>
      <point x="417" y="-6"/>
      <point x="472" y="15" type="curve"/>
      <point x="470" y="127" type="line"/>
      <point x="428" y="112"/>
      <point x="393" y="108"/>
      <point x="368" y="108" type="curve" smooth="yes"/>
      <point x="329" y="108"/>
      <point x="311" y="127"/>
      <point x="311" y="164" type="curve" smooth="yes"/>
      <point x="311" y="175"/>
      <point x="313" y="189"/>
      <point x="318" y="205" type="curve" smooth="yes"/>
      <point x="394" y="526" type="line"/>
      <point x="110" y="526" type="line"/>
      <point x="82" y="412" type="line"/>
      <point x="228" y="412" type="line"/>
      <point x="183" y="222" type="line" smooth="yes"/>
      <point x="175" y="190"/>
      <point x="171" y="161"/>
      <point x="171" y="136" type="curve" smooth="yes"/>
      <point x="171" y="43"/>
      <point x="221" y="-12"/>
    </contour>
  </outline>
</glyph>
<glyph name="IJ" format="2">
  <advance width="560"/>
  <unicode hex="0132"/>
  <outline>
    <contour>
      <point x="342" y="-15" type="curve" smooth="yes"/>
      <point x="487" y="-15"/>
      <point x="536" y="91"/>
      <point x="564" y="232" type="curve" smooth="yes"/>
      <point x="674" y="693" type="line"/>
      <point x="547" y="693" type="line"/>
      <point x="435" y="230" type="line" smooth="yes"/>
      <point x="411" y="128"/>
      <point x="390" y="95"/>
      <point x="333" y="95" type="curve" smooth="yes"/>
      <point x="305" y="95"/>
      <point x="269" y="116"/>
      <point x="249" y="139" type="curve"/>
      <point x="185" y="50" type="line"/>
      <point x="213" y="17"/>
      <point x="269" y="-15"/>
    </contour>
    <contour>
      <point x="15" y="0" type="line"/>
      <point x="143" y="0" type="line"/>
      <point x="310" y="693" type="line"/>
      <point x="183" y="693" type="line"/>
    </contour>
  </outline>
</glyph>
<glyph name="ij" format="2">
  <advance width="560"/>
  <unicode hex="0133"/>
  <outline>
    <contour>
      <point x="248" y="-185" type="curve" smooth="yes"/>
      <point x="373" y="-185"/>
      <point x="435" y="-119"/>
      <point x="468" y="19" type="curve" smooth="yes"/>
      <point x="590" y="526" type="line"/>
      <point x="451" y="526" type="line"/>
      <point x="330" y="24" type="line" smooth="yes"/>
      <point x="318" y="-30"/>
      <point x="296" y="-59"/>
      <point x="249" y="-59" type="curve" smooth="yes"/>
      <point x="226" y="-59"/>
      <point x="211" y="-55"/>
      <point x="192" y="-48" type="curve"/>
      <point x="153" y="-166" type="line"/>
      <point x="183" y="-177"/>
      <point x="211" y="-185"/>
    </contour>
    <contour>
      <point x="75" y="0" type="line"/>
      <point x="213" y="0" type="line"/>
      <point x="340" y="526" type="line"/>
      <point x="202" y="526" type="line"/>
    </contour>
    <contour>
      <point x="297" y="590" type="curve" smooth="yes"/>
      <point x="342" y="590"/>
      <point x="390" y="631"/>
      <point x="390" y="685" type="curve" smooth="yes"/>
      <point x="390" y="741"/>
      <point x="353" y="766"/>
      <point x="309" y="766" type="curve" smooth="yes"/>
      <point x="262" y="766"/>
      <point x="216" y="727"/>
      <point x="216" y="669" type="curve" smooth="yes"/>
      <point x="216" y="615"/>
      <point x="250" y="590"/>
    </contour>
    <contour>
      <point x="545" y="590" type="curve" smooth="yes"/>
      <point x="590" y="590"/>
      <point x="640" y="631"/>
      <point x="640" y="685" type="curve" smooth="yes"/>
      <point x="640" y="741"/>
      <point x="603" y="766"/>
      <point x="558" y="766" type="curve" smooth="yes"/>
      <point x="511" y="766"/>
      <point x="465" y="727"/>
      <point x="465" y="669" type="curve" smooth="yes"/>
      <point x="465" y="615"/>
      <point x="498" y="590"/>
    </contour>
  </outline>
</glyph>
<glyph name="lacute" format="2">
  <advance width="560"/>
  <unicode hex="013A"/>
  <outline>
    <contour>
      <point x="303" y="-12" type="curve" smooth="yes"/>
      <point x="396" y="-12"/>
      <point x="456" y="16"/>
      <point x="468" y="22" type="curve"/>
      <point x="459" y="131" type="line"/>
      <point x="445" y="127"/>
      <point x="395" y="108"/>
      <point x="353" y="108" type="curve" smooth="yes"/>
      <point x="303" y="108"/>
      <point x="291" y="134"/>
      <point x="291" y="164" type="curve" smooth="yes"/>
      <point x="291" y="177"/>
      <point x="295" y="196"/>
      <point x="298" y="211" type="curve" smooth="yes"/>
      <point x="418" y="722" type="line"/>
      <point x="135" y="722" type="line"/>
      <point x="108" y="608" type="line"/>
      <point x="254" y="608" type="line"/>
      <point x="162" y="220" type="line" smooth="yes"/>
      <point x="155" y="190"/>
      <point x="151" y="162"/>
      <point x="151" y="137" type="curve" smooth="yes"/>
      <point x="151" y="43"/>
      <point x="202" y="-12"/>
    </contour>
    <contour>
      <point x="277" y="759" type="line"/>
      <point x="505" y="827" type="line"/>
      <point x="477" y="930" type="line"/>
      <point x="259" y="824" type="line"/>
    </contour>
  </outline>
</glyph>
<glyph name="Lslash" format="2">
  <advance width="560"/>
  <unicode hex="0141"/>
  <outline>
    <contour>
      <point x="90" y="0" type="line"/>
      <point x="480" y="0" type="line"/>
      <point x="507" y="114" type="line"/>
      <point x="255" y="114" type="line"/>
      <point x="309" y="342" type="line"/>
      <point x="474" y="419" type="line"/>
      <point x="449" y="520" type="line"/>
      <point x="340" y="468" type="line"/>
      <point x="394" y="693" type="line"/>
      <point x="256" y="693" type="line"/>
      <point x="185" y="395" type="line"/>
      <point x="52" y="333" type="line"/>
      <point x="76" y="232" type="line"/>
      <point x="155" y="269" type="line"/>
    </contour>
  </outline>
</glyph>
<glyph name="lslash" format="2">
  <advance width="560"/>
  <unicode hex="0142"/>
  <outline>
    <contour>
      <point x="345" y="-12" type="curve" smooth="yes"/>
      <point x="438" y="-12"/>
      <point x="498" y="16"/>
      <point x="510" y="22" type="curve"/>
      <point x="501" y="131" type="line"/>
      <point x="487" y="127"/>
      <point x="437" y="108"/>
      <point x="395" y="108" type="curve" smooth="yes"/>
      <point x="345" y="108"/>
      <point x="333" y="134"/>
      <point x="333" y="164" type="curve" smooth="yes"/>
      <point x="333" y="177"/>
      <point x="337" y="196"/>
      <point x="340" y="211" type="curve" smooth="yes"/>
      <point x="385" y="402" type="line"/>
      <point x="516" y="461" type="line"/>
      <point x="493" y="553" type="line"/>
      <point x="413" y="517" type="line"/>
      <point x="473" y="771" type="line"/>
      <point x="189" y="771" type="line"/>
      <point x="162" y="656" type="line"/>
      <point x="308" y="656" type="line"/>
      <point x="259" y="448" type="line"/>
      <point x="140" y="396" type="line"/>
      <point x="162" y="304" type="line"/>
      <point x="231" y="334" type="line"/>
      <point x="204" y="220" type="line" smooth="yes"/>
      <point x="197" y="190"/>
      <point x="193" y="162"/>
      <point x="193" y="137" type="curve" smooth="yes"/>
      <point x="193" y="43"/>
      <point x="244" y="-12"/>
    </contour>
  </outline>
</glyph>
<glyph name="Eng" format="2">
  <advance width="560"/>
  <unicode hex="014A"/>
  <outline>
    <contour>
      <point x="286" y="-187" type="curve" smooth="yes"/>
      <point x="414" y="-187"/>
      <point x="461" y="-116"/>
      <point x="494" y="21" type="curve" smooth="yes"/>
      <point x="655" y="693" type="line"/>
      <point x="533" y="693" type="line"/>
      <point x="427" y="244" type="line"/>
      <point x="407" y="374"/>
      <point x="355" y="562"/>
      <point x="312" y="693" type="curve"/>
      <point x="195" y="693" type="line"/>
      <point x="29" y="0" type="line"/>
      <point x="151" y="0" type="line"/>
      <point x="269" y="497" type="line"/>
      <point x="310" y="337"/>
      <point x="351" y="158"/>
      <point x="374" y="24" type="curve"/>
      <point x="370" y="8" type="line" smooth="yes"/>
      <point x="358" y="-40"/>
      <point x="337" y="-69"/>
      <point x="286" y="-69" type="curve" smooth="yes"/>
      <point x="260" y="-69"/>
      <point x="249" y="-66"/>
      <point x="232" y="-60" type="curve"/>
      <point x="192" y="-167" type="line"/>
      <point x="216" y="-180"/>
      <point x="248" y="-187"/>
    </contour>
  </outline>
</glyph>
<glyph name="eng" format="2">
  <advance width="560"/>
  <unicode hex="014B"/>
  <outline>
    <contour>
      <point x="274" y="-187" type="curve" smooth="yes"/>
      <point x="414" y="-187"/>
      <point x="446" y="-116"/>
      <point x="479" y="21" type="curve" smooth="yes"/>
      <point x="545" y="297" type="line" smooth="yes"/>
      <point x="553" y="329"/>
      <point x="557" y="360"/>
      <point x="557" y="385" type="curve" smooth="yes"/>
      <point x="557" y="482"/>
      <point x="495" y="538"/>
      <point x="370" y="538" type="curve" smooth="yes"/>
      <point x="286" y="538"/>
      <point x="224" y="523"/>
      <point x="171" y="510" type="curve"/>
      <point x="49" y="0" type="line"/>
      <point x="187" y="0" type="line"/>
      <point x="286" y="413" type="line"/>
      <point x="308" y="417"/>
      <point x="330" y="419"/>
      <point x="351" y="419" type="curve" smooth="yes"/>
      <point x="400" y="419"/>
      <point x="416" y="389"/>
      <point x="416" y="354" type="curve" smooth="yes"/>
      <point x="416" y="329"/>
      <point x="408" y="302"/>
      <point x="403" y="279" type="curve" smooth="yes"/>
      <point x="342" y="21" type="line" smooth="yes"/>
      <point x="329" y="-27"/>
      <point x="318" y="-67"/>
      <point x="274" y="-67" type="curve" smooth="yes"/>
      <point x="252" y="-67"/>
      <point x="244" y="-64"/>
      <point x="227" y="-58" type="curve"/>
      <point x="188" y="-168" type="line"/>
      <point x="211" y="-178"/>
      <point x="246" y="-187"/>
    </contour>
  </outline>
</glyph>
<glyph name="OE" format="2">
  <advance width="560"/>
  <unicode hex="0152"/>
  <outline>
    <contour>
      <point x="234" y="-6" type="curve" smooth="yes"/>
      <point x="254" y="-6"/>
      <point x="274" y="-4"/>
      <point x="293" y="0" type="curve"/>
      <point x="531" y="0" type="line"/>
      <point x="558" y="114" type="line"/>
      <point x="417" y="114" type="line"/>
      <point x="464" y="309" type="line"/>
      <point x="564" y="309" type="line"/>
      <point x="591" y="423" type="line"/>
      <point x="491" y="423" type="line"/>
      <point x="529" y="579" type="line"/>
      <point x="655" y="579" type="line"/>
      <point x="682" y="693" type="line"/>
      <point x="459" y="693" type="line"/>
      <point x="440" y="697"/>
      <point x="413" y="700"/>
      <point x="391" y="700" type="curve" smooth="yes"/>
      <point x="141" y="700"/>
      <point x="60" y="381"/>
      <point x="60" y="195" type="curve" smooth="yes"/>
      <point x="60" y="67"/>
      <point x="123" y="-6"/>
    </contour>
    <contour>
      <point x="256" y="111" type="curve" smooth="yes"/>
      <point x="206" y="111"/>
      <point x="189" y="144"/>
      <point x="189" y="204" type="curve" smooth="yes"/>
      <point x="189" y="338"/>
      <point x="260" y="584"/>
      <point x="370" y="584" type="curve" smooth="yes"/>
      <point x="383" y="584"/>
      <point x="394" y="581"/>
      <point x="404" y="578" type="curve"/>
      <point x="293" y="116" type="line"/>
      <point x="281" y="113"/>
      <point x="269" y="111"/>
    </contour>
  </outline>
</glyph>
<glyph name="oe" format="2">
  <advance width="560"/>
  <unicode hex="0153"/>
  <outline>
    <contour>
      <point x="167" y="-15" type="curve" smooth="yes"/>
      <point x="220" y="-15"/>
      <point x="274" y="13"/>
      <point x="305" y="71" type="curve"/>
      <point x="326" y="20"/>
      <point x="366" y="-15"/>
      <point x="437" y="-15" type="curve" smooth="yes"/>
      <point x="478" y="-15"/>
      <point x="519" y="-1"/>
      <point x="551" y="19" type="curve"/>
      <point x="538" y="116" type="line"/>
      <point x="512" y="99"/>
      <point x="484" y="88"/>
      <point x="459" y="88" type="curve" smooth="yes"/>
      <point x="401" y="88"/>
      <point x="381" y="120"/>
      <point x="381" y="172" type="curve" smooth="yes"/>
      <point x="381" y="178"/>
      <point x="381" y="183"/>
      <point x="382" y="189" type="curve"/>
      <point x="512" y="200"/>
      <point x="622" y="273"/>
      <point x="622" y="422" type="curve" smooth="yes"/>
      <point x="622" y="510"/>
      <point x="570" y="540"/>
      <point x="515" y="540" type="curve" smooth="yes"/>
      <point x="472" y="540"/>
      <point x="422" y="510"/>
      <point x="391" y="469" type="curve"/>
      <point x="376" y="515"/>
      <point x="342" y="540"/>
      <point x="283" y="540" type="curve" smooth="yes"/>
      <point x="157" y="540"/>
      <point x="40" y="379"/>
      <point x="40" y="150" type="curve" smooth="yes"/>
      <point x="40" y="57"/>
      <point x="83" y="-15"/>
    </contour>
    <contour>
      <point x="190" y="101" type="curve" smooth="yes"/>
      <point x="160" y="101"/>
      <point x="147" y="129"/>
      <point x="147" y="170" type="curve" smooth="yes"/>
      <point x="147" y="315"/>
      <point x="215" y="426"/>
      <point x="265" y="426" type="curve" smooth="yes"/>
      <point x="287" y="426"/>
      <point x="304" y="409"/>
      <point x="304" y="368" type="curve" smooth="yes"/>
      <point x="304" y="223"/>
      <point x="240" y="101"/>
    </contour>
    <contour>
      <point x="389" y="280" type="curve"/>
      <point x="413" y="395"/>
      <point x="461" y="440"/>
      <point x="491" y="440" type="curve" smooth="yes"/>
      <point x="519" y="440"/>
      <point x="525" y="422"/>
      <point x="525" y="402" type="curve" smooth="yes"/>
      <point x="525" y="334"/>
      <point x="468" y="280"/>
    </contour>
  </outline>
</glyph>
